<svg width="738" height="425" viewBox="0 0 738 425" fill="none" xmlns="http://www.w3.org/2000/svg">
<rect x="1" y="1" width="736" height="423" rx="9" stroke="white" stroke-width="2"/>
<rect x="34" y="28" width="670" height="370" rx="10" fill="#FF8566"/>
<path d="M165.571 173.6L158.886 184.345H162.666L167.006 177.31H167.426V198.1H170.891L170.926 173.6H165.571Z" fill="white"/>
<path d="M160.466 68C160.466 71.6 162.946 73.44 165.226 74.28V74.76C162.986 75.28 159.986 77.44 159.986 81.52C159.986 86.32 164.226 89.56 170.226 89.56C176.266 89.56 180.466 86.32 180.466 81.52C180.466 77.44 177.506 75.28 175.266 74.76V74.28C177.546 73.44 180.026 71.6 180.026 68C180.026 63.64 176.146 60.44 170.226 60.44C164.346 60.44 160.466 63.64 160.466 68ZM164.426 68.4C164.426 65.56 166.866 63.96 170.226 63.96C173.626 63.96 176.066 65.56 176.066 68.4C176.066 71.2 173.626 72.84 170.226 72.84C166.866 72.84 164.426 71.2 164.426 68.4ZM163.946 81.2C163.946 78.12 166.426 76.36 170.226 76.36C174.066 76.36 176.546 78.12 176.546 81.2C176.546 84.24 174.066 86.04 170.226 86.04C166.426 86.04 163.946 84.24 163.946 81.2Z" fill="white"/>
<path d="M217.746 105.64L196.536 138.75V144.77H221.876V154.64H228.806V144.77H237.136V138.54H228.806V105.64H217.746ZM221.036 111.8H221.876V138.54H203.886L221.036 111.8Z" fill="white"/>
<path d="M99.496 125.496V130.936C99.496 137.26 102.93 140.592 108.336 140.592C113.742 140.592 117.142 137.26 117.142 130.936V125.496C117.142 119.274 113.742 115.84 108.336 115.84C102.93 115.84 99.496 119.274 99.496 125.496ZM102.862 125.326C102.862 121.382 104.766 118.832 108.336 118.832C111.838 118.832 113.81 121.314 113.81 125.326V131.106C113.81 135.084 112.042 137.6 108.336 137.6C104.664 137.6 102.862 135.152 102.862 131.106V125.326ZM120.182 125.496V130.936C120.182 137.26 123.616 140.592 129.022 140.592C134.428 140.592 137.828 137.26 137.828 130.936V125.496C137.828 119.274 134.428 115.84 129.022 115.84C123.616 115.84 120.182 119.274 120.182 125.496ZM123.548 125.326C123.548 121.382 125.452 118.832 129.022 118.832C132.524 118.832 134.496 121.314 134.496 125.326V131.106C134.496 135.084 132.728 137.6 129.022 137.6C125.35 137.6 123.548 135.152 123.548 131.106V125.326Z" fill="white"/>
<path d="M235.93 129.881C235.93 167.283 205.399 197.621 167.715 197.621C130.031 197.621 99.5 167.283 99.5 129.881C99.5 92.4779 130.031 62.1396 167.715 62.1396C205.399 62.1396 235.93 92.4779 235.93 129.881Z" stroke="white" stroke-width="3"/>
<path d="M258.088 327.185V330.335H270.443L263.163 336.495V339.68H266.873C269.743 339.68 271.948 341.15 271.948 344.16C271.948 346.96 269.918 349.095 266.593 349.095C263.058 349.095 260.958 347.065 260.958 343.775V342.725H257.493V343.81C257.493 348.92 260.993 352.175 266.593 352.175C271.703 352.175 275.413 348.955 275.413 344.195C275.413 339.645 272.193 337.09 268.308 337.09H267.433V336.67L275.098 330.265V327.185H258.088Z" fill="white"/>
<path d="M278.323 235.425C278.323 229.905 274.403 226.065 269.283 226.065C265.323 226.065 263.483 227.945 262.643 229.305H262.163V225.625C262.163 221.785 264.483 219.545 268.483 219.545C272.203 219.545 274.083 221.665 274.083 224.785H278.083C278.083 219.625 274.403 216.025 268.483 216.025C262.403 216.025 258.203 219.665 258.203 225.905V235.665C258.203 241.345 262.523 245.185 268.243 245.105C274.043 245.065 278.323 241.225 278.323 235.425ZM268.283 229.185C271.883 229.185 274.363 231.665 274.363 235.425C274.363 239.185 271.843 241.585 268.283 241.585C264.683 241.585 262.163 239.225 262.163 235.425C262.163 231.665 264.643 229.185 268.283 229.185Z" fill="white"/>
<path d="M199.006 275.211C199.006 283.353 204.788 289.017 212.281 289.017C218.122 289.017 220.895 286.244 222.075 284.238H222.783V289.666C222.783 295.33 219.42 298.575 213.52 298.575C207.974 298.575 205.26 295.389 205.26 290.905H199.36C199.36 298.516 204.729 303.767 213.52 303.767C222.488 303.767 228.624 298.398 228.624 289.194V274.798C228.624 266.479 222.311 260.815 213.874 260.874C205.319 260.933 199.006 266.656 199.006 275.211ZM213.815 284.415C208.446 284.415 204.847 280.698 204.847 275.211C204.847 269.665 208.564 266.066 213.815 266.066C219.125 266.066 222.783 269.606 222.783 275.211C222.783 280.698 219.184 284.415 213.815 284.415Z" fill="white"/>
<path d="M333.627 283.465C333.627 320.868 303.095 351.206 265.411 351.206C227.728 351.206 197.196 320.868 197.196 283.465C197.196 246.063 227.728 215.725 265.411 215.725C303.095 215.725 333.627 246.063 333.627 283.465Z" stroke="white" stroke-width="3"/>
<path d="M464.096 333.6V336.75H478.201L468.121 358.1H471.971L482.156 336.61V333.6H464.096Z" fill="white"/>
<path d="M503.706 277.89C503.706 284.19 508.046 287.41 512.036 288.88V289.72C508.116 290.63 502.866 294.41 502.866 301.55C502.866 309.95 510.286 315.62 520.786 315.62C531.356 315.62 538.706 309.95 538.706 301.55C538.706 294.41 533.526 290.63 529.606 289.72V288.88C533.596 287.41 537.936 284.19 537.936 277.89C537.936 270.26 531.146 264.66 520.786 264.66C510.496 264.66 503.706 270.26 503.706 277.89ZM510.636 278.59C510.636 273.62 514.906 270.82 520.786 270.82C526.736 270.82 531.006 273.62 531.006 278.59C531.006 283.49 526.736 286.36 520.786 286.36C514.906 286.36 510.636 283.49 510.636 278.59ZM509.796 300.99C509.796 295.6 514.136 292.52 520.786 292.52C527.506 292.52 531.846 295.6 531.846 300.99C531.846 306.31 527.506 309.46 520.786 309.46C514.136 309.46 509.796 306.31 509.796 300.99Z" fill="white"/>
<path d="M404.326 284.136V284.952H407.692V284.238C407.692 280.634 410.004 278.832 413.064 278.832C416.056 278.832 418.062 280.566 418.062 283.524C418.062 286.584 415.818 288.046 412.078 288.998C407.488 290.188 404.326 292.126 404.326 296.818V300.116H421.394V297.09H407.726V296.478C407.726 293.418 409.834 292.636 413.676 291.65C418.572 290.392 421.428 288.114 421.428 283.592C421.428 278.832 417.722 275.84 413.03 275.84C408.236 275.84 404.326 278.764 404.326 284.136ZM431.939 276.316L421.637 292.398V295.322H433.945V300.116H437.311V295.322H441.357V292.296H437.311V276.316H431.939ZM433.537 279.308H433.945V292.296H425.207L433.537 279.308Z" fill="white"/>
<path d="M540.93 289.881C540.93 327.283 510.399 357.621 472.715 357.621C435.031 357.621 404.5 327.283 404.5 289.881C404.5 252.478 435.031 222.14 472.715 222.14C510.399 222.14 540.93 252.478 540.93 289.881Z" stroke="white" stroke-width="3"/>
<path d="M359.8 64L352.16 76.28H356.48L361.44 68.24H361.92V92H365.88L365.92 64H359.8ZM381.241 64L369.121 82.92V86.36H383.601V92H387.561V86.36H392.321V82.8H387.561V64H381.241ZM383.121 67.52H383.601V82.8H373.321L383.121 67.52Z" fill="white"/>
<path d="M359.29 148V154.3H384L369.44 166.62V172.99H376.86C382.6 172.99 387.01 175.93 387.01 181.95C387.01 187.55 382.95 191.82 376.3 191.82C369.23 191.82 365.03 187.76 365.03 181.18V179.08H358.1V181.25C358.1 191.47 365.1 197.98 376.3 197.98C386.52 197.98 393.94 191.54 393.94 182.02C393.94 172.92 387.5 167.81 379.73 167.81H377.98V166.97L393.31 154.16V148H359.29Z" fill="white"/>
<path d="M305.326 126.136V126.952H308.692V126.238C308.692 122.634 311.004 120.832 314.064 120.832C317.056 120.832 319.062 122.566 319.062 125.524C319.062 128.584 316.818 130.046 313.078 130.998C308.488 132.188 305.326 134.126 305.326 138.818V142.116H322.394V139.09H308.726V138.478C308.726 135.418 310.834 134.636 314.676 133.65C319.572 132.392 322.428 130.114 322.428 125.592C322.428 120.832 318.722 117.84 314.03 117.84C309.236 117.84 305.326 120.764 305.326 126.136Z" fill="white"/>
<path d="M441.93 131.881C441.93 169.283 411.399 199.621 373.715 199.621C336.031 199.621 305.5 169.283 305.5 131.881C305.5 94.4779 336.031 64.1396 373.715 64.1396C411.399 64.1396 441.93 94.4779 441.93 131.881Z" stroke="white" stroke-width="3"/>
<path d="M562.558 173.6V176.75H574.913L567.633 182.91V186.095H571.343C574.213 186.095 576.418 187.565 576.418 190.575C576.418 193.375 574.388 195.51 571.063 195.51C567.528 195.51 565.428 193.48 565.428 190.19V189.14H561.963V190.225C561.963 195.335 565.463 198.59 571.063 198.59C576.173 198.59 579.883 195.37 579.883 190.61C579.883 186.06 576.663 183.505 572.778 183.505H571.903V183.085L579.568 176.68V173.6H562.558Z" fill="white"/>
<path d="M560.56 71.2V72.16H564.52V71.32C564.52 67.08 567.24 64.96 570.84 64.96C574.36 64.96 576.72 67 576.72 70.48C576.72 74.08 574.08 75.8 569.68 76.92C564.28 78.32 560.56 80.6 560.56 86.12V90H580.64V86.44H564.56V85.72C564.56 82.12 567.04 81.2 571.56 80.04C577.32 78.56 580.68 75.88 580.68 70.56C580.68 64.96 576.32 61.44 570.8 61.44C565.16 61.44 560.56 64.88 560.56 71.2Z" fill="white"/>
<path d="M583.512 105.64L570.142 127.13H577.702L586.382 113.06H587.222V154.64H594.152L594.222 105.64H583.512ZM602.973 105.64V132.24H612.423C613.473 130.21 615.643 127.55 620.473 127.55C626.143 127.55 629.923 131.47 629.923 137.91C629.923 145.05 625.933 149.46 619.073 149.46C612.423 149.46 608.223 145.47 608.223 138.47V137.35H601.363V138.89C601.363 148.97 608.573 155.62 619.283 155.62C629.993 155.62 636.923 148.27 636.923 137.7C636.923 127.69 630.203 121.67 622.153 121.67C615.083 121.67 612.143 125.24 610.743 127.76H609.903V111.87H635.453V105.64H602.973Z" fill="white"/>
<path d="M638.096 129.881C638.096 167.283 607.565 197.621 569.881 197.621C532.197 197.621 501.666 167.283 501.666 129.881C501.666 92.4779 532.197 62.1396 569.881 62.1396C607.565 62.1396 638.096 92.4779 638.096 129.881Z" stroke="white" stroke-width="3"/>
</svg>
