<svg width="320" height="205" viewBox="0 0 320 205" fill="none" xmlns="http://www.w3.org/2000/svg">
<rect x="1" y="1" width="318" height="203" rx="9" stroke="white" stroke-width="2"/>
<path d="M163.679 155H160.954V136.938L155.49 138.945V136.484L163.254 133.569H163.679V155Z" fill="#FF8566"/>
<path d="M167.707 55.2383C167.707 56.3027 167.424 57.25 166.857 58.0801C166.301 58.9102 165.544 59.5596 164.587 60.0283C165.7 60.5068 166.579 61.2051 167.224 62.123C167.878 63.041 168.205 64.0811 168.205 65.2432C168.205 67.0889 167.58 68.5586 166.33 69.6523C165.09 70.7461 163.454 71.293 161.423 71.293C159.372 71.293 157.727 70.7461 156.486 69.6523C155.256 68.5488 154.641 67.0791 154.641 65.2432C154.641 64.0908 154.953 63.0508 155.578 62.123C156.213 61.1953 157.087 60.4922 158.2 60.0137C157.253 59.5449 156.506 58.8955 155.959 58.0654C155.412 57.2354 155.139 56.293 155.139 55.2383C155.139 53.4414 155.715 52.0156 156.867 50.9609C158.02 49.9062 159.538 49.3789 161.423 49.3789C163.298 49.3789 164.812 49.9062 165.964 50.9609C167.126 52.0156 167.707 53.4414 167.707 55.2383ZM165.495 65.1846C165.495 63.9932 165.114 63.0215 164.353 62.2695C163.601 61.5176 162.614 61.1416 161.394 61.1416C160.173 61.1416 159.191 61.5127 158.449 62.2549C157.717 62.9971 157.351 63.9736 157.351 65.1846C157.351 66.3955 157.707 67.3477 158.42 68.041C159.143 68.7344 160.144 69.0811 161.423 69.0811C162.692 69.0811 163.688 68.7344 164.411 68.041C165.134 67.3379 165.495 66.3857 165.495 65.1846ZM161.423 51.6055C160.358 51.6055 159.494 51.9375 158.83 52.6016C158.176 53.2559 157.849 54.1494 157.849 55.2822C157.849 56.3662 158.171 57.2451 158.815 57.9189C159.47 58.583 160.339 58.915 161.423 58.915C162.507 58.915 163.371 58.583 164.016 57.9189C164.67 57.2451 164.997 56.3662 164.997 55.2822C164.997 54.1982 164.66 53.3145 163.986 52.6309C163.312 51.9473 162.458 51.6055 161.423 51.6055Z" fill="#FF8566"/>
<path d="M207.021 110.062H211.953V113.748H207.021V122H202.48V113.748H186.294V111.087L202.212 86.4531H207.021V110.062ZM191.421 110.062H202.48V92.6299L201.943 93.6064L191.421 110.062Z" fill="#FF8566"/>
<path d="M120.146 103.57C120.146 106.744 119.604 109.103 118.521 110.646C117.437 112.188 115.742 112.96 113.438 112.96C111.162 112.96 109.478 112.208 108.384 110.704C107.29 109.19 106.724 106.935 106.685 103.937V100.318C106.685 97.1836 107.227 94.8545 108.311 93.3311C109.395 91.8076 111.094 91.0459 113.408 91.0459C115.703 91.0459 117.393 91.7832 118.477 93.2578C119.561 94.7227 120.117 96.9883 120.146 100.055V103.57ZM117.437 99.8643C117.437 97.5693 117.114 95.8994 116.47 94.8545C115.825 93.7998 114.805 93.2725 113.408 93.2725C112.021 93.2725 111.011 93.7949 110.376 94.8398C109.741 95.8848 109.414 97.4912 109.395 99.6592V103.995C109.395 106.3 109.727 108.004 110.391 109.107C111.064 110.201 112.08 110.748 113.438 110.748C114.775 110.748 115.767 110.23 116.411 109.195C117.065 108.16 117.407 106.529 117.437 104.303V99.8643Z" fill="#FF8566"/>
<path d="M137.855 103.57C137.855 106.744 137.313 109.103 136.229 110.646C135.145 112.188 133.451 112.96 131.146 112.96C128.871 112.96 127.186 112.208 126.092 110.704C124.999 109.19 124.432 106.935 124.393 103.937V100.318C124.393 97.1836 124.935 94.8545 126.019 93.3311C127.103 91.8076 128.802 91.0459 131.117 91.0459C133.412 91.0459 135.101 91.7832 136.185 93.2578C137.269 94.7227 137.826 96.9883 137.855 100.055V103.57ZM135.145 99.8643C135.145 97.5693 134.823 95.8994 134.178 94.8545C133.534 93.7998 132.513 93.2725 131.117 93.2725C129.73 93.2725 128.719 93.7949 128.084 94.8398C127.45 95.8848 127.123 97.4912 127.103 99.6592V103.995C127.103 106.3 127.435 108.004 128.099 109.107C128.773 110.201 129.789 110.748 131.146 110.748C132.484 110.748 133.475 110.23 134.12 109.195C134.774 108.16 135.116 106.529 135.145 104.303V99.8643Z" fill="#FF8566"/>
<circle cx="160" cy="102" r="53.5" stroke="#FF8566" stroke-width="3"/>
</svg>
