<svg width="189" height="189" viewBox="0 0 189 189" fill="none" xmlns="http://www.w3.org/2000/svg">
<path d="M54.8571 32.8334H2V94.4999H54.8571V32.8334Z" stroke="#FF8566" stroke-width="4" stroke-linejoin="round"/>
<path d="M54.8571 125.333H2V187H54.8571V125.333Z" stroke="#FF8566" stroke-width="4" stroke-linejoin="round"/>
<path d="M187 2H134.143V63.6666H187V2Z" stroke="#FF8566" stroke-width="4" stroke-linejoin="round"/>
<path d="M187 94.4999H134.143V156.166H187V94.4999Z" stroke="#FF8566" stroke-width="4" stroke-linejoin="round"/>
<path d="M81.2853 2H54.8567V32.8333H81.2853V2Z" stroke="#FF8566" stroke-width="4" stroke-linejoin="round"/>
<path d="M81.2853 94.4999H54.8567V125.333H81.2853V94.4999Z" stroke="#FF8566" stroke-width="4" stroke-linejoin="round"/>
<path d="M107.714 32.8334H81.2852V63.6667H107.714V32.8334Z" stroke="#FF8566" stroke-width="4" stroke-linejoin="round"/>
<path d="M134.143 63.667H107.715V94.5003H134.143V63.667Z" stroke="#FF8566" stroke-width="4" stroke-linejoin="round"/>
<path d="M107.714 125.333H81.2852V156.166H107.714V125.333Z" stroke="#FF8566" stroke-width="4" stroke-linejoin="round"/>
<path d="M134.143 156.167H107.715V187H134.143V156.167Z" stroke="#FF8566" stroke-width="4" stroke-linejoin="round"/>
</svg>
