<svg width="189" height="189" viewBox="0 0 189 189" fill="none" xmlns="http://www.w3.org/2000/svg">
<path d="M109.158 79.7394H79.8416V109.261H109.158V79.7394Z" stroke="#FF8566" stroke-width="4" stroke-linejoin="round"/>
<path d="M109.158 119.101H79.8416V147.638H109.158V119.101Z" stroke="#FF8566" stroke-width="4" stroke-linejoin="round"/>
<path d="M109.158 157.479H79.8416V187H109.158V157.479Z" stroke="#FF8566" stroke-width="4" stroke-linejoin="round"/>
<path d="M70.7432 79.7394H41.4263V109.261H70.7432V79.7394Z" stroke="#FF8566" stroke-width="4" stroke-linejoin="round"/>
<path d="M32.3279 79.7394H2V109.261H32.3279V79.7394Z" stroke="#FF8566" stroke-width="4" stroke-linejoin="round"/>
<path d="M70.7432 119.101H41.4263V147.638H70.7432V119.101Z" stroke="#FF8566" stroke-width="4" stroke-linejoin="round"/>
<path d="M70.7432 157.479H41.4263V187H70.7432V157.479Z" stroke="#FF8566" stroke-width="4" stroke-linejoin="round"/>
<path d="M32.3279 119.101H2V147.638H32.3279V119.101Z" stroke="#FF8566" stroke-width="4" stroke-linejoin="round"/>
<path d="M32.3279 157.479H2V187H32.3279V157.479Z" stroke="#FF8566" stroke-width="4" stroke-linejoin="round"/>
<path d="M148.585 79.7394H118.257V109.261H148.585V79.7394Z" stroke="#FF8566" stroke-width="4" stroke-linejoin="round"/>
<path d="M148.585 119.101H118.257V147.638H148.585V119.101Z" stroke="#FF8566" stroke-width="4" stroke-linejoin="round"/>
<path d="M148.585 157.479H118.257V187H148.585V157.479Z" stroke="#FF8566" stroke-width="4" stroke-linejoin="round"/>
<path d="M187 79.7394H156.672V109.261H187V79.7394Z" stroke="#FF8566" stroke-width="4" stroke-linejoin="round"/>
<path d="M187 119.101H156.672V147.638H187V119.101Z" stroke="#FF8566" stroke-width="4" stroke-linejoin="round"/>
<path d="M187 157.479H156.672V187H187V157.479Z" stroke="#FF8566" stroke-width="4" stroke-linejoin="round"/>
<path d="M109.158 41.3617H79.8416V69.8989H109.158V41.3617Z" stroke="#FF8566" stroke-width="4" stroke-linejoin="round"/>
<path d="M70.7432 41.3617H41.4263V69.8989H70.7432V41.3617Z" stroke="#FF8566" stroke-width="4" stroke-linejoin="round"/>
<path d="M32.3279 41.3617H2V69.8989H32.3279V41.3617Z" stroke="#FF8566" stroke-width="4" stroke-linejoin="round"/>
<path d="M109.158 2H79.8416V31.5213H109.158V2Z" stroke="#FF8566" stroke-width="4" stroke-linejoin="round"/>
<path d="M70.7432 2H41.4263V31.5213H70.7432V2Z" stroke="#FF8566" stroke-width="4" stroke-linejoin="round"/>
<path d="M32.3279 2H2V31.5213H32.3279V2Z" stroke="#FF8566" stroke-width="4" stroke-linejoin="round"/>
<path d="M185 36C185 53.6189 170.28 68 152 68C133.72 68 119 53.6189 119 36C119 18.3811 133.72 4 152 4C170.28 4 185 18.3811 185 36Z" stroke="#FF8566" stroke-width="4"/>
</svg>
