<svg width="738" height="425" viewBox="0 0 738 425" fill="none" xmlns="http://www.w3.org/2000/svg">
<rect x="1" y="1" width="736" height="423" rx="9" stroke="white" stroke-width="2"/>
<rect x="34" y="28" width="670" height="370" rx="10" fill="#FF8566"/>
<path d="M218.082 219.702H172.166V265.918H218.082V219.702Z" stroke="white" stroke-width="5" stroke-linejoin="round"/>
<path d="M218.082 281.325H172.166V326.001H218.082V281.325Z" stroke="white" stroke-width="5" stroke-linejoin="round"/>
<path d="M157.917 219.702H112V265.918H157.917V219.702Z" stroke="white" stroke-width="5" stroke-linejoin="round"/>
<path d="M157.917 281.325H112V326.001H157.917V281.325Z" stroke="white" stroke-width="5" stroke-linejoin="round"/>
<path d="M279.833 219.702H232.333V265.918H279.833V219.702Z" stroke="white" stroke-width="5" stroke-linejoin="round"/>
<path d="M279.833 281.325H232.333V326.001H279.833V281.325Z" stroke="white" stroke-width="5" stroke-linejoin="round"/>
<path d="M339.999 219.702H292.499V265.918H339.999V219.702Z" stroke="white" stroke-width="5" stroke-linejoin="round"/>
<path d="M339.999 281.325H292.499V326.001H339.999V281.325Z" stroke="white" stroke-width="5" stroke-linejoin="round"/>
<path d="M218.082 159.622H172.166V204.297H218.082V159.622Z" stroke="white" stroke-width="5" stroke-linejoin="round"/>
<path d="M157.917 159.622H112V204.297H157.917V159.622Z" stroke="white" stroke-width="5" stroke-linejoin="round"/>
<path d="M218.084 98H172.168V144.216H218.084V98Z" stroke="white" stroke-width="5" stroke-linejoin="round"/>
<path d="M157.917 98H112V144.216H157.917V98Z" stroke="white" stroke-width="5" stroke-linejoin="round"/>
<path d="M337.499 151.227C337.499 179.175 314.146 201.955 285.182 201.955C256.217 201.955 232.864 179.175 232.864 151.227C232.864 123.28 256.217 100.5 285.182 100.5C314.146 100.5 337.499 123.28 337.499 151.227Z" stroke="white" stroke-width="5"/>
<path d="M520.917 204.298L566.833 204.298L566.833 158.082L520.917 158.082L520.917 204.298Z" stroke="white" stroke-width="5" stroke-linejoin="round"/>
<path d="M520.917 142.675L566.833 142.675L566.833 97.9994L520.917 97.9994L520.917 142.675Z" stroke="white" stroke-width="5" stroke-linejoin="round"/>
<path d="M581.082 204.298L626.999 204.298L626.999 158.082L581.082 158.082L581.082 204.298Z" stroke="white" stroke-width="5" stroke-linejoin="round"/>
<path d="M581.082 142.675L626.999 142.675L626.999 97.9994L581.082 97.9994L581.082 142.675Z" stroke="white" stroke-width="5" stroke-linejoin="round"/>
<path d="M459.166 204.298L506.666 204.298L506.666 158.082L459.166 158.082L459.166 204.298Z" stroke="white" stroke-width="5" stroke-linejoin="round"/>
<path d="M459.166 142.675L506.666 142.675L506.666 97.9994L459.166 97.9994L459.166 142.675Z" stroke="white" stroke-width="5" stroke-linejoin="round"/>
<path d="M399 204.298L446.5 204.298L446.5 158.082L399 158.082L399 204.298Z" stroke="white" stroke-width="5" stroke-linejoin="round"/>
<path d="M399 142.675L446.5 142.675L446.5 97.9994L399 97.9994L399 142.675Z" stroke="white" stroke-width="5" stroke-linejoin="round"/>
<path d="M520.917 264.378L566.833 264.378L566.833 219.703L520.917 219.703L520.917 264.378Z" stroke="white" stroke-width="5" stroke-linejoin="round"/>
<path d="M581.082 264.378L626.999 264.378L626.999 219.703L581.082 219.703L581.082 264.378Z" stroke="white" stroke-width="5" stroke-linejoin="round"/>
<path d="M520.915 326L566.831 326L566.831 279.784L520.915 279.784L520.915 326Z" stroke="white" stroke-width="5" stroke-linejoin="round"/>
<path d="M581.082 326L626.999 326L626.999 279.784L581.082 279.784L581.082 326Z" stroke="white" stroke-width="5" stroke-linejoin="round"/>
<path d="M401.5 272.773C401.5 244.825 424.853 222.045 453.818 222.045C482.782 222.045 506.135 244.825 506.135 272.773C506.135 300.72 482.782 323.5 453.818 323.5C424.853 323.5 401.5 300.72 401.5 272.773Z" stroke="white" stroke-width="5"/>
</svg>
