<svg width="320" height="205" viewBox="0 0 320 205" fill="none" xmlns="http://www.w3.org/2000/svg">
<rect x="1" y="1" width="318" height="203" rx="9" stroke="white" stroke-width="2"/>
<path d="M156.181 106.716H134.028V129.013H156.181V106.716Z" stroke="#FF8566" stroke-width="3" stroke-linejoin="round"/>
<path d="M156.181 136.446H134.028V158H156.181V136.446Z" stroke="#FF8566" stroke-width="3" stroke-linejoin="round"/>
<path d="M127.153 106.716H105V129.013H127.153V106.716Z" stroke="#FF8566" stroke-width="3" stroke-linejoin="round"/>
<path d="M127.153 136.446H105V158H127.153V136.446Z" stroke="#FF8566" stroke-width="3" stroke-linejoin="round"/>
<path d="M185.972 106.716H163.056V129.013H185.972V106.716Z" stroke="#FF8566" stroke-width="3" stroke-linejoin="round"/>
<path d="M185.972 136.446H163.056V158H185.972V136.446Z" stroke="#FF8566" stroke-width="3" stroke-linejoin="round"/>
<path d="M215 106.716H192.083V129.013H215V106.716Z" stroke="#FF8566" stroke-width="3" stroke-linejoin="round"/>
<path d="M215 136.446H192.083V158H215V136.446Z" stroke="#FF8566" stroke-width="3" stroke-linejoin="round"/>
<path d="M156.181 77.73H134.028V99.2839H156.181V77.73Z" stroke="#FF8566" stroke-width="3" stroke-linejoin="round"/>
<path d="M127.153 77.73H105V99.2839H127.153V77.73Z" stroke="#FF8566" stroke-width="3" stroke-linejoin="round"/>
<path d="M156.181 48H134.028V70.2972H156.181V48Z" stroke="#FF8566" stroke-width="3" stroke-linejoin="round"/>
<path d="M127.153 48H105V70.2972H127.153V48Z" stroke="#FF8566" stroke-width="3" stroke-linejoin="round"/>
<path d="M213.5 73.6799C213.5 86.9928 202.373 97.8598 188.553 97.8598C174.733 97.8598 163.606 86.9928 163.606 73.6799C163.606 60.367 174.733 49.5 188.553 49.5C202.373 49.5 213.5 60.367 213.5 73.6799Z" stroke="#FF8566" stroke-width="3"/>
</svg>
