<svg width="738" height="425" viewBox="0 0 738 425" fill="none" xmlns="http://www.w3.org/2000/svg">
<rect x="1" y="1" width="736" height="423" rx="9" stroke="white" stroke-width="2"/>
<rect x="34" y="28" width="670" height="370" rx="10" fill="#FF8566"/>
<path d="M329.536 120.808C329.536 151.63 304.55 176.617 273.728 176.617C242.906 176.617 217.92 151.63 217.92 120.808C217.92 89.9862 242.906 65 273.728 65C304.55 65 329.536 89.9862 329.536 120.808Z" stroke="white" stroke-width="5" stroke-linejoin="round"/>
<path d="M517.663 120.808C517.663 151.63 492.677 176.617 461.855 176.617C431.033 176.617 406.047 151.63 406.047 120.808C406.047 89.9862 431.033 65 461.855 65C492.677 65 517.663 89.9862 517.663 120.808Z" stroke="white" stroke-width="5" stroke-linejoin="round"/>
<path d="M517.616 303.808C517.616 334.63 492.63 359.617 461.808 359.617C430.986 359.617 406 334.63 406 303.808C406 272.986 430.986 248 461.808 248C492.63 248 517.616 272.986 517.616 303.808Z" stroke="white" stroke-width="5" stroke-linejoin="round"/>
<path d="M295.431 120.809C295.431 132.795 285.714 142.512 273.728 142.512C261.742 142.512 252.025 132.795 252.025 120.809C252.025 108.822 261.742 99.1055 273.728 99.1055C285.714 99.1055 295.431 108.822 295.431 120.809Z" stroke="white" stroke-width="5" stroke-linejoin="round"/>
<path d="M483.406 303.703C483.406 315.69 473.69 325.406 461.703 325.406C449.717 325.406 440 315.69 440 303.703C440 291.717 449.717 282 461.703 282C473.69 282 483.406 291.717 483.406 303.703Z" stroke="white" stroke-width="5" stroke-linejoin="round"/>
<path d="M329.288 303.52C329.288 334.342 304.302 359.328 273.48 359.328C242.658 359.328 217.672 334.342 217.672 303.52C217.672 272.698 242.658 247.712 273.48 247.712C304.302 247.712 329.288 272.698 329.288 303.52Z" stroke="white" stroke-width="5" stroke-linejoin="round"/>
<path d="M233.617 211.939C233.617 242.761 208.63 267.747 177.808 267.747C146.986 267.747 122 242.761 122 211.939C122 181.117 146.986 156.131 177.808 156.131C208.63 156.131 233.617 181.117 233.617 211.939Z" stroke="white" stroke-width="5" stroke-linejoin="round"/>
<path d="M424.96 211.939C424.96 242.761 399.974 267.747 369.152 267.747C338.33 267.747 313.343 242.761 313.343 211.939C313.343 181.117 338.33 156.131 369.152 156.131C399.974 156.131 424.96 181.117 424.96 211.939Z" stroke="white" stroke-width="5" stroke-linejoin="round"/>
<path d="M615 211.939C615 242.761 590.014 267.747 559.192 267.747C528.37 267.747 503.384 242.761 503.384 211.939C503.384 181.117 528.37 156.131 559.192 156.131C590.014 156.131 615 181.117 615 211.939Z" stroke="white" stroke-width="5" stroke-linejoin="round"/>
</svg>
