<svg width="729" height="426" viewBox="0 0 729 426" fill="none" xmlns="http://www.w3.org/2000/svg">
<rect x="1.5" y="5.95923" width="725.46" height="418.541" rx="8.5" fill="#131F26" stroke="white" stroke-width="3"/>
<rect x="35.8151" y="37.2191" width="657.81" height="355.073" rx="8.5" fill="#FF8566"/>
<rect x="35.8151" y="37.2191" width="657.81" height="355.073" rx="8.5" fill="#FF8566"/>
<rect x="35.8151" y="37.2191" width="657.81" height="355.073" rx="8.5" stroke="#FF8566" stroke-width="3"/>
<path d="M289.419 139.968H253.142C250.695 139.968 248.71 141.952 248.71 144.4V179.503C248.71 181.951 250.695 183.935 253.142 183.935H289.419C291.866 183.935 293.851 181.951 293.851 179.503V144.4C293.851 141.952 291.866 139.968 289.419 139.968Z" stroke="white" stroke-width="3" stroke-linejoin="round"/>
<path d="M321.017 96.0001H302.797C300.349 96.0001 298.365 97.9843 298.365 100.432V117.949C298.365 120.396 300.349 122.381 302.797 122.381H321.017C323.465 122.381 325.449 120.396 325.449 117.949V100.432C325.449 97.9843 323.465 96.0001 321.017 96.0001Z" stroke="white" stroke-width="3" stroke-linejoin="round"/>
<path d="M257.739 139.968V122.38V109.19H244.197V122.38" stroke="white" stroke-width="3" stroke-linejoin="round"/>
<path d="M284.823 139.968V122.38H289.337" stroke="white" stroke-width="3" stroke-linejoin="round"/>
<path d="M271.28 139.968V122.38V109.19H298.364" stroke="white" stroke-width="3" stroke-linejoin="round"/>
<path d="M244.197 96H287.08" stroke="white" stroke-width="3" stroke-linejoin="round"/>
<path d="M296.108 144.364H311.907V131.174" stroke="white" stroke-width="3" stroke-linejoin="round"/>
<path d="M296.108 170.745H307.393V183.935H316.421H325.449V170.745" stroke="white" stroke-width="3" stroke-linejoin="round"/>
<path d="M323.192 131.174V148.761V159.753H296.108" stroke="white" stroke-width="3" stroke-linejoin="round"/>
<path d="M143.222 139.968H106.946C104.498 139.968 102.514 141.952 102.514 144.4V179.503C102.514 181.951 104.498 183.935 106.946 183.935H143.222C145.67 183.935 147.654 181.951 147.654 179.503V144.4C147.654 141.952 145.67 139.968 143.222 139.968Z" stroke="white" stroke-width="3" stroke-linejoin="round"/>
<path d="M174.821 96.0001H156.601C154.153 96.0001 152.169 97.9843 152.169 100.432V117.949C152.169 120.396 154.153 122.381 156.601 122.381H174.821C177.268 122.381 179.253 120.396 179.253 117.949V100.432C179.253 97.9843 177.268 96.0001 174.821 96.0001Z" stroke="white" stroke-width="3" stroke-linejoin="round"/>
<path d="M111.542 139.968V122.38V109.19H98V122.38" stroke="white" stroke-width="3" stroke-linejoin="round"/>
<path d="M138.626 139.968V122.38H143.14" stroke="white" stroke-width="3" stroke-linejoin="round"/>
<path d="M125.084 139.968V122.38V109.19H152.168" stroke="white" stroke-width="3" stroke-linejoin="round"/>
<path d="M98 96H140.883" stroke="white" stroke-width="3" stroke-linejoin="round"/>
<path d="M149.911 144.364H165.71V131.174" stroke="white" stroke-width="3" stroke-linejoin="round"/>
<path d="M149.911 170.745H161.196V183.935H170.224H179.252V170.745" stroke="white" stroke-width="3" stroke-linejoin="round"/>
<path d="M176.995 131.174V148.761V159.753H149.911" stroke="white" stroke-width="3" stroke-linejoin="round"/>
<path d="M433.21 142.373L433.21 106.097C433.21 103.649 431.225 101.665 428.778 101.665L393.674 101.665C391.226 101.665 389.242 103.649 389.242 106.097L389.242 142.373C389.242 144.821 391.226 146.805 393.674 146.805L428.778 146.805C431.225 146.805 433.21 144.821 433.21 142.373Z" stroke="white" stroke-width="3" stroke-linejoin="round"/>
<path d="M477.177 173.972L477.177 155.752C477.177 153.304 475.193 151.32 472.746 151.32L455.229 151.32C452.781 151.32 450.797 153.304 450.797 155.752L450.797 173.972C450.797 176.42 452.781 178.404 455.229 178.404L472.746 178.404C475.193 178.404 477.177 176.42 477.177 173.972Z" stroke="white" stroke-width="3" stroke-linejoin="round"/>
<path d="M433.21 110.693L450.797 110.693L463.987 110.693L463.987 97.1511L450.797 97.1511" stroke="white" stroke-width="3" stroke-linejoin="round"/>
<path d="M433.21 137.777L450.797 137.777L450.797 142.291" stroke="white" stroke-width="3" stroke-linejoin="round"/>
<path d="M433.21 124.235L450.797 124.235L463.987 124.235L463.987 151.319" stroke="white" stroke-width="3" stroke-linejoin="round"/>
<path d="M477.177 97.1512L477.177 140.034" stroke="white" stroke-width="3" stroke-linejoin="round"/>
<path d="M428.813 149.062L428.813 164.861L442.003 164.861" stroke="white" stroke-width="3" stroke-linejoin="round"/>
<path d="M402.433 149.063L402.433 160.348L389.242 160.348L389.242 169.376L389.242 178.404L402.433 178.404" stroke="white" stroke-width="3" stroke-linejoin="round"/>
<path d="M442.003 176.147L424.416 176.147L413.424 176.147L413.424 149.063" stroke="white" stroke-width="3" stroke-linejoin="round"/>
<path d="M585.283 145.724L621.56 145.724C624.007 145.724 625.991 143.739 625.991 141.292L625.991 106.188C625.991 103.74 624.007 101.756 621.56 101.756L585.283 101.756C582.836 101.756 580.851 103.74 580.851 106.188L580.851 141.292C580.851 143.739 582.836 145.724 585.283 145.724Z" stroke="white" stroke-width="3" stroke-linejoin="round"/>
<path d="M553.685 189.691L571.905 189.691C574.352 189.691 576.337 187.707 576.337 185.259L576.337 167.743C576.337 165.295 574.352 163.311 571.905 163.311L553.685 163.311C551.237 163.311 549.253 165.295 549.253 167.743L549.253 185.259C549.253 187.707 551.237 189.691 553.685 189.691Z" stroke="white" stroke-width="3" stroke-linejoin="round"/>
<path d="M616.963 145.724L616.963 163.311L616.963 176.501L630.505 176.501L630.505 163.311" stroke="white" stroke-width="3" stroke-linejoin="round"/>
<path d="M589.879 145.724L589.879 163.311L585.365 163.311" stroke="white" stroke-width="3" stroke-linejoin="round"/>
<path d="M603.421 145.724L603.421 163.311L603.421 176.501L576.337 176.501" stroke="white" stroke-width="3" stroke-linejoin="round"/>
<path d="M630.505 189.691L587.622 189.691" stroke="white" stroke-width="3" stroke-linejoin="round"/>
<path d="M578.594 141.327L562.795 141.327L562.795 154.517" stroke="white" stroke-width="3" stroke-linejoin="round"/>
<path d="M578.594 114.946L567.309 114.946L567.309 101.756L558.281 101.756L549.253 101.756L549.253 114.946" stroke="white" stroke-width="3" stroke-linejoin="round"/>
<path d="M551.51 154.517L551.51 136.93L551.51 125.938L578.594 125.938" stroke="white" stroke-width="3" stroke-linejoin="round"/>
<path d="M141.968 287.436L141.968 323.713C141.968 326.16 143.952 328.145 146.4 328.145L181.503 328.145C183.951 328.145 185.935 326.16 185.935 323.713L185.935 287.436C185.935 284.989 183.951 283.004 181.503 283.004L146.4 283.004C143.952 283.004 141.968 284.989 141.968 287.436Z" stroke="white" stroke-width="3" stroke-linejoin="round"/>
<path d="M98 255.838L98 274.058C98 276.506 99.9842 278.49 102.432 278.49L119.949 278.49C122.396 278.49 124.381 276.506 124.381 274.058L124.381 255.838C124.381 253.39 122.396 251.406 119.949 251.406L102.432 251.406C99.9842 251.406 98 253.39 98 255.838Z" stroke="white" stroke-width="3" stroke-linejoin="round"/>
<path d="M141.968 319.117L124.38 319.117L111.19 319.117L111.19 332.659L124.38 332.659" stroke="white" stroke-width="3" stroke-linejoin="round"/>
<path d="M141.967 292.032L124.38 292.032L124.38 287.518" stroke="white" stroke-width="3" stroke-linejoin="round"/>
<path d="M141.968 305.575L124.38 305.575L111.19 305.575L111.19 278.49" stroke="white" stroke-width="3" stroke-linejoin="round"/>
<path d="M98 332.659L98 289.775" stroke="white" stroke-width="3" stroke-linejoin="round"/>
<path d="M146.364 280.747L146.364 264.948L133.174 264.948" stroke="white" stroke-width="3" stroke-linejoin="round"/>
<path d="M172.745 280.747L172.745 269.462L185.935 269.462L185.935 260.434L185.935 251.406L172.745 251.406" stroke="white" stroke-width="3" stroke-linejoin="round"/>
<path d="M133.174 253.663L150.761 253.663L161.753 253.663L161.753 280.747" stroke="white" stroke-width="3" stroke-linejoin="round"/>
<path d="M280.115 292.032L316.391 292.032C318.839 292.032 320.823 290.048 320.823 287.6L320.823 252.496C320.823 250.049 318.839 248.064 316.391 248.064L280.115 248.064C277.667 248.064 275.683 250.049 275.683 252.496L275.683 287.6C275.683 290.048 277.667 292.032 280.115 292.032Z" stroke="white" stroke-width="3" stroke-linejoin="round"/>
<path d="M248.516 336L266.737 336C269.184 336 271.169 334.016 271.169 331.568L271.169 314.051C271.169 311.603 269.184 309.619 266.737 309.619L248.516 309.619C246.069 309.619 244.084 311.603 244.084 314.051L244.084 331.568C244.084 334.016 246.069 336 248.516 336Z" stroke="white" stroke-width="3" stroke-linejoin="round"/>
<path d="M311.795 292.032L311.795 309.619L311.795 322.81L325.337 322.81L325.337 309.619" stroke="white" stroke-width="3" stroke-linejoin="round"/>
<path d="M284.711 292.032L284.711 309.62L280.197 309.62" stroke="white" stroke-width="3" stroke-linejoin="round"/>
<path d="M298.253 292.032L298.253 309.619L298.253 322.81L271.169 322.81" stroke="white" stroke-width="3" stroke-linejoin="round"/>
<path d="M325.337 336L282.454 336" stroke="white" stroke-width="3" stroke-linejoin="round"/>
<path d="M273.426 287.635L257.627 287.636L257.627 300.826" stroke="white" stroke-width="3" stroke-linejoin="round"/>
<path d="M273.426 261.255L262.141 261.255L262.141 248.065L253.113 248.065L244.085 248.065L244.085 261.255" stroke="white" stroke-width="3" stroke-linejoin="round"/>
<path d="M246.342 300.826L246.342 283.239L246.342 272.247L273.426 272.247" stroke="white" stroke-width="3" stroke-linejoin="round"/>
<path d="M428.605 287.436L428.605 323.713C428.605 326.16 430.589 328.145 433.037 328.145L468.141 328.145C470.589 328.145 472.573 326.16 472.573 323.713L472.573 287.436C472.573 284.989 470.589 283.004 468.141 283.004L433.037 283.004C430.589 283.004 428.605 284.989 428.605 287.436Z" stroke="white" stroke-width="3" stroke-linejoin="round"/>
<path d="M384.637 255.838L384.637 274.058C384.637 276.506 386.622 278.49 389.069 278.49L406.586 278.49C409.034 278.49 411.018 276.506 411.018 274.058L411.018 255.838C411.018 253.39 409.034 251.406 406.586 251.406L389.069 251.406C386.622 251.406 384.637 253.39 384.637 255.838Z" stroke="white" stroke-width="3" stroke-linejoin="round"/>
<path d="M428.605 319.117L411.018 319.117L397.828 319.117L397.828 332.659L411.018 332.659" stroke="white" stroke-width="3" stroke-linejoin="round"/>
<path d="M428.605 292.032L411.018 292.032L411.018 287.518" stroke="white" stroke-width="3" stroke-linejoin="round"/>
<path d="M428.605 305.575L411.018 305.575L397.828 305.575L397.828 278.49" stroke="white" stroke-width="3" stroke-linejoin="round"/>
<path d="M384.637 332.659L384.637 289.775" stroke="white" stroke-width="3" stroke-linejoin="round"/>
<path d="M433.002 280.747L433.002 264.948L419.812 264.948" stroke="white" stroke-width="3" stroke-linejoin="round"/>
<path d="M459.382 280.747L459.382 269.462L472.573 269.462L472.573 260.434L472.573 251.406L459.382 251.406" stroke="white" stroke-width="3" stroke-linejoin="round"/>
<path d="M419.812 253.663L437.399 253.663L448.391 253.663L448.391 280.747" stroke="white" stroke-width="3" stroke-linejoin="round"/>
<path d="M592.06 292.032H555.784C553.336 292.032 551.352 294.016 551.352 296.464V331.568C551.352 334.016 553.336 336 555.784 336H592.06C594.508 336 596.492 334.016 596.492 331.568V296.464C596.492 294.016 594.508 292.032 592.06 292.032Z" stroke="white" stroke-width="3" stroke-linejoin="round"/>
<path d="M623.659 248.065H605.439C602.991 248.065 601.007 250.049 601.007 252.497V270.013C601.007 272.461 602.991 274.445 605.439 274.445H623.659C626.107 274.445 628.091 272.461 628.091 270.013V252.497C628.091 250.049 626.107 248.065 623.659 248.065Z" stroke="white" stroke-width="3" stroke-linejoin="round"/>
<path d="M560.38 292.032V274.445V261.255H546.838V274.445" stroke="white" stroke-width="3" stroke-linejoin="round"/>
<path d="M587.464 292.032V274.445H591.978" stroke="white" stroke-width="3" stroke-linejoin="round"/>
<path d="M573.922 292.032V274.445V261.255H601.006" stroke="white" stroke-width="3" stroke-linejoin="round"/>
<path d="M546.838 248.065H589.721" stroke="white" stroke-width="3" stroke-linejoin="round"/>
<path d="M598.749 296.429H614.548V283.239" stroke="white" stroke-width="3" stroke-linejoin="round"/>
<path d="M598.75 322.809H610.035V336H619.063H628.091V322.809" stroke="white" stroke-width="3" stroke-linejoin="round"/>
<path d="M625.834 283.239V300.826V311.818H598.75" stroke="white" stroke-width="3" stroke-linejoin="round"/>
</svg>
