<svg width="185" height="185" viewBox="0 0 185 185" fill="none" xmlns="http://www.w3.org/2000/svg">
<path d="M46.3554 16.9159C46.5057 16.8367 46.6477 16.7602 46.6477 16.7602C47.0812 16.5655 47.5148 16.3709 48.1651 16.1762C50.983 15.2028 54.0176 14.2294 57.0523 13.4507C74.1766 8.77853 92.3847 7.4158 110.376 9.75191C124.249 11.6987 137.905 15.7868 150.26 21.4324C152.645 22.6005 155.679 22.0165 156.98 19.875C158.281 17.9283 157.63 14.8135 155.246 13.8401C133.57 4.10632 109.292 -1.14991 84.798 0.212817C68.9743 1.18619 53.5841 4.49567 39.2778 10.3359C36.4599 11.504 33.6419 12.672 31.0408 14.2294C28.8732 15.5922 27.7893 18.1229 29.3067 20.2644C30.3905 22.2111 33.6419 23.1845 35.8096 21.8218C37.3638 20.8912 38.918 20.2077 40.5819 19.4761C41.0065 19.2894 41.4382 19.0995 41.8789 18.9016C42.9627 18.5123 43.8298 18.1229 44.9136 17.5389C45.0419 17.4237 45.7015 17.1722 46.0839 17.0263C46.0952 17.022 46.1062 17.0178 46.117 17.0137M46.3554 16.9159C46.3427 16.9175 46.2985 16.9297 46.2142 16.9549C46.176 16.9777 46.1438 16.9972 46.117 17.0137M46.3554 16.9159C46.3424 16.9227 46.3293 16.9296 46.3163 16.9364M46.3554 16.9159C46.3671 16.9144 46.3518 16.9219 46.3163 16.9364M46.117 17.0137C45.8669 17.1674 46.0879 17.0562 46.3163 16.9364M46.117 17.0137C46.2043 16.9804 46.2744 16.9536 46.3163 16.9364" fill="#FF8566"/>
<path d="M46.3554 16.9159C46.5057 16.8367 46.6477 16.7602 46.6477 16.7602C47.0812 16.5655 47.5148 16.3709 48.1651 16.1762C50.983 15.2028 54.0176 14.2294 57.0523 13.4507C74.1766 8.77853 92.3847 7.4158 110.376 9.75191C124.249 11.6987 137.905 15.7868 150.26 21.4324C152.645 22.6005 155.679 22.0165 156.98 19.875C158.281 17.9283 157.63 14.8135 155.246 13.8401C133.57 4.10632 109.292 -1.14991 84.798 0.212817C68.9743 1.18619 53.5841 4.49567 39.2778 10.3359C36.4599 11.504 33.6419 12.672 31.0408 14.2294C28.8732 15.5922 27.7893 18.1229 29.3067 20.2644C30.3905 22.2111 33.6419 23.1845 35.8096 21.8218C37.3638 20.8912 38.918 20.2077 40.5819 19.4761C41.0065 19.2894 41.4382 19.0995 41.8789 18.9016C42.9627 18.5123 43.8298 18.1229 44.9136 17.5389C45.0419 17.4237 45.7015 17.1722 46.0839 17.0263C46.0952 17.022 46.1062 17.0178 46.117 17.0137M46.3554 16.9159C46.3427 16.9175 46.2985 16.9297 46.2142 16.9549C46.176 16.9777 46.1438 16.9972 46.117 17.0137M46.3554 16.9159C46.3424 16.9227 46.3293 16.9296 46.3163 16.9364M46.3554 16.9159C46.3671 16.9144 46.3518 16.9219 46.3163 16.9364M46.117 17.0137C45.8669 17.1674 46.0879 17.0562 46.3163 16.9364M46.117 17.0137C46.2043 16.9804 46.2744 16.9536 46.3163 16.9364" stroke="#FF8566"/>
<path d="M19.2705 107.61C19.2727 107.596 19.2749 107.58 19.2771 107.565C19.3041 107.38 19.3358 107.164 19.3358 107.09C19.4441 106.7 19.4983 106.311 19.5525 105.922C19.6067 105.532 19.6609 105.143 19.7693 104.753C19.9053 104.204 20.02 103.654 20.1334 103.11C20.3815 101.921 20.6236 100.761 21.0699 99.6919C23.2375 92.6836 25.8387 87.038 30.6074 81.0031C32.7751 78.2776 35.3762 75.5522 38.4109 73.0214C41.8791 70.1013 45.3473 67.5705 49.4658 65.2344C59.6537 59.3941 71.3589 55.306 83.4976 54.3326C96.7201 53.1645 109.943 54.9166 122.298 59.1995C132.052 62.5089 140.94 67.5705 148.093 74.3841C151.995 77.8883 155.029 81.9765 157.847 86.2593C159.365 88.5954 160.882 91.1262 162.183 93.657C162.508 94.3383 162.887 95.0197 163.266 95.701C163.646 96.3824 164.025 97.0638 164.35 97.7452C165 99.1079 165.434 100.471 165.867 101.833C166.301 103.001 166.518 104.169 166.734 105.337L166.735 105.338C166.85 105.648 166.904 106.013 166.961 106.404C167.012 106.749 167.066 107.114 167.168 107.479C167.168 107.674 167.222 107.868 167.276 108.063C167.331 108.258 167.385 108.452 167.385 108.647C167.234 107.833 167.293 108.438 167.343 108.945C167.365 109.165 167.385 109.367 167.385 109.426C167.602 110.983 167.602 112.54 167.602 114.293V118.965C166.951 122.858 166.084 125 163.483 128.115L163.05 128.699L161.966 129.672L161.966 129.672C161.315 130.256 160.665 130.84 160.232 131.035C158.064 132.592 155.463 133.565 152.862 134.149C147.226 135.707 140.723 135.318 135.304 132.787C131.185 130.84 128.151 128.115 125.983 124.416C125.55 123.637 125.333 123.248 124.899 122.08C124.683 121.496 124.466 120.717 124.466 120.133C124.4 119.896 124.294 119.588 124.203 119.323C123.994 118.714 123.862 118.328 124.466 119.549C124.217 118.991 124.254 118.304 124.289 117.637C124.316 117.141 124.341 116.655 124.249 116.239C124.249 115.253 124.075 114.267 123.893 113.231C123.787 112.631 123.678 112.015 123.599 111.372C118.83 89.9582 84.7982 83.3392 69.408 99.3026C57.7028 111.372 60.9542 129.088 67.2404 142.715C74.3935 158.484 88.0496 170.943 104.957 178.535C110.376 181.066 116.229 183.013 122.081 184.765C128.151 186.517 130.752 177.951 124.683 176.199C114.278 173.085 103.657 168.607 95.4195 162.377C88.4831 157.316 83.7144 151.865 79.3791 145.051L76.7779 140.379L76.5612 139.99C76.3444 139.6 76.1277 139.211 76.1277 139.016C75.6941 138.238 75.4774 137.459 75.2606 136.68C74.1768 133.955 73.3097 131.035 72.6594 128.115C72.4427 126.752 72.2259 125.584 72.0092 124.416C72.0092 124.026 72.0092 123.832 71.7924 123.637C71.7924 123.345 71.7382 123.053 71.684 122.761C71.6298 122.469 71.5756 122.177 71.5756 121.885C70.9253 117.018 71.7924 112.151 74.6103 107.868C80.6797 98.9132 92.6016 97.3558 102.573 101.055C106.258 102.417 109.726 104.753 111.894 107.868C113.911 110.737 114.233 113.841 114.58 117.178C114.68 118.144 114.782 119.128 114.928 120.133C115.145 121.301 114.928 120.522 114.928 120.328C114.928 120.62 114.982 120.863 115.037 121.106C115.091 121.35 115.145 121.593 115.145 121.885C115.253 122.177 115.308 122.518 115.362 122.858C115.416 123.199 115.47 123.54 115.579 123.832C116.012 125.194 116.662 126.752 117.313 127.92C117.963 129.283 119.047 130.84 120.131 132.008C124.249 136.875 129.885 140.379 136.604 142.131C148.31 145.246 162.616 142.52 170.636 133.955C180.391 123.442 179.307 108.063 174.755 95.6037C171.72 87.4274 166.518 79.6404 160.665 73.0214C154.162 65.4291 145.925 59.0048 136.388 54.5273C111.677 42.8467 81.9802 41.2893 56.619 51.8018C39.0612 59.0048 23.8878 71.2693 16.3011 87.4274C10.4485 99.8866 8.71438 113.709 10.2317 127.336C11.0988 135.512 12.8329 143.689 15.8676 151.476C16.0843 151.865 16.3011 152.254 16.3011 152.644C17.3849 154.98 19.5525 156.537 22.3704 155.758C23.671 155.564 25.8386 152.838 24.7548 150.502C22.3704 145.246 21.0699 139.795 19.9861 134.149C19.8777 133.565 19.7693 132.933 19.6609 132.3C19.5525 131.667 19.4441 131.035 19.3358 130.451C19.3358 130.061 19.3358 129.867 19.119 129.477C19.119 129.088 19.0648 128.699 19.0106 128.309C18.9564 127.92 18.9022 127.53 18.9022 127.141C18.4687 124.221 18.4687 121.301 18.4687 118.186C18.4687 115.071 18.6855 111.762 19.119 108.647C19.119 108.301 19.119 107.956 19.2705 107.61ZM19.2705 107.61C19.2306 107.884 19.2087 108.05 19.3358 107.479C19.3114 107.523 19.2897 107.567 19.2705 107.61Z" fill="#FF8566"/>
<path d="M19.2705 107.61C19.2727 107.596 19.2749 107.58 19.2771 107.565C19.3041 107.38 19.3358 107.164 19.3358 107.09C19.4441 106.7 19.4983 106.311 19.5525 105.922C19.6067 105.532 19.6609 105.143 19.7693 104.753C19.9053 104.204 20.02 103.654 20.1334 103.11C20.3815 101.921 20.6236 100.761 21.0699 99.6919C23.2375 92.6836 25.8387 87.038 30.6074 81.0031C32.7751 78.2776 35.3762 75.5522 38.4109 73.0214C41.8791 70.1013 45.3473 67.5705 49.4658 65.2344C59.6537 59.3941 71.3589 55.306 83.4976 54.3326C96.7201 53.1645 109.943 54.9166 122.298 59.1995C132.052 62.5089 140.94 67.5705 148.093 74.3841C151.995 77.8883 155.029 81.9765 157.847 86.2593C159.365 88.5954 160.882 91.1262 162.183 93.657C162.508 94.3383 162.887 95.0197 163.266 95.701C163.646 96.3824 164.025 97.0638 164.35 97.7452C165 99.1079 165.434 100.471 165.867 101.833C166.301 103.001 166.518 104.169 166.734 105.337L166.735 105.338C166.85 105.648 166.904 106.013 166.961 106.404C167.012 106.749 167.066 107.114 167.168 107.479C167.168 107.674 167.222 107.868 167.276 108.063C167.331 108.258 167.385 108.452 167.385 108.647C167.234 107.833 167.293 108.438 167.343 108.945C167.365 109.165 167.385 109.367 167.385 109.426C167.602 110.983 167.602 112.54 167.602 114.293V118.965C166.951 122.858 166.084 125 163.483 128.115L163.05 128.699L161.966 129.672L161.966 129.672C161.315 130.256 160.665 130.84 160.232 131.035C158.064 132.592 155.463 133.565 152.862 134.149C147.226 135.707 140.723 135.318 135.304 132.787C131.185 130.84 128.151 128.115 125.983 124.416C125.55 123.637 125.333 123.248 124.899 122.08C124.683 121.496 124.466 120.717 124.466 120.133C124.4 119.896 124.294 119.588 124.203 119.323C123.994 118.714 123.862 118.328 124.466 119.549C124.217 118.991 124.254 118.304 124.289 117.637C124.316 117.141 124.341 116.655 124.249 116.239C124.249 115.253 124.075 114.267 123.893 113.231C123.787 112.631 123.678 112.015 123.599 111.372C118.83 89.9582 84.7982 83.3392 69.408 99.3026C57.7028 111.372 60.9542 129.088 67.2404 142.715C74.3935 158.484 88.0496 170.943 104.957 178.535C110.376 181.066 116.229 183.013 122.081 184.765C128.151 186.517 130.752 177.951 124.683 176.199C114.278 173.085 103.657 168.607 95.4195 162.377C88.4831 157.316 83.7144 151.865 79.3791 145.051L76.7779 140.379L76.5612 139.99C76.3444 139.6 76.1277 139.211 76.1277 139.016C75.6941 138.238 75.4774 137.459 75.2606 136.68C74.1768 133.955 73.3097 131.035 72.6594 128.115C72.4427 126.752 72.2259 125.584 72.0092 124.416C72.0092 124.026 72.0092 123.832 71.7924 123.637C71.7924 123.345 71.7382 123.053 71.684 122.761C71.6298 122.469 71.5756 122.177 71.5756 121.885C70.9253 117.018 71.7924 112.151 74.6103 107.868C80.6797 98.9132 92.6016 97.3558 102.573 101.055C106.258 102.417 109.726 104.753 111.894 107.868C113.911 110.737 114.233 113.841 114.58 117.178C114.68 118.144 114.782 119.128 114.928 120.133C115.145 121.301 114.928 120.522 114.928 120.328C114.928 120.62 114.982 120.863 115.037 121.106C115.091 121.35 115.145 121.593 115.145 121.885C115.253 122.177 115.308 122.518 115.362 122.858C115.416 123.199 115.47 123.54 115.579 123.832C116.012 125.194 116.662 126.752 117.313 127.92C117.963 129.283 119.047 130.84 120.131 132.008C124.249 136.875 129.885 140.379 136.604 142.131C148.31 145.246 162.616 142.52 170.636 133.955C180.391 123.442 179.307 108.063 174.755 95.6037C171.72 87.4274 166.518 79.6404 160.665 73.0214C154.162 65.4291 145.925 59.0048 136.388 54.5273C111.677 42.8467 81.9802 41.2893 56.619 51.8018C39.0612 59.0048 23.8878 71.2693 16.3011 87.4274C10.4485 99.8866 8.71438 113.709 10.2317 127.336C11.0988 135.512 12.8329 143.689 15.8676 151.476C16.0843 151.865 16.3011 152.254 16.3011 152.644C17.3849 154.98 19.5525 156.537 22.3704 155.758C23.671 155.564 25.8386 152.838 24.7548 150.502C22.3704 145.246 21.0699 139.795 19.9861 134.149C19.8777 133.565 19.7693 132.933 19.6609 132.3C19.5525 131.667 19.4441 131.035 19.3358 130.451C19.3358 130.061 19.3358 129.867 19.119 129.477C19.119 129.088 19.0648 128.699 19.0106 128.309C18.9564 127.92 18.9022 127.53 18.9022 127.141C18.4687 124.221 18.4687 121.301 18.4687 118.186C18.4687 115.071 18.6855 111.762 19.119 108.647C19.119 108.301 19.119 107.956 19.2705 107.61ZM19.2705 107.61C19.2306 107.884 19.2087 108.05 19.3358 107.479C19.3114 107.523 19.2897 107.567 19.2705 107.61Z" stroke="#FF8566"/>
<path d="M9.14826 69.1286C9.36502 68.7393 9.58178 68.5446 10.0153 68.1553C10.4488 67.7659 10.6656 67.3766 10.8824 66.9872C10.9907 66.7925 11.1533 66.6465 11.3159 66.5005C11.4785 66.3545 11.641 66.2085 11.7494 66.0138C14.5673 62.899 17.8188 59.7842 21.0702 56.8641C26.0558 52.5812 30.391 49.4664 36.0269 46.157C42.7465 42.2635 49.8997 38.954 57.2696 36.6179C65.9401 33.8924 75.0442 32.1403 84.365 31.5563C88.4835 31.3616 92.602 31.3616 96.5037 31.5563C97.4791 31.5563 98.5088 31.605 99.5384 31.6536C100.568 31.7023 101.598 31.751 102.573 31.751C103.657 31.751 104.957 31.9457 106.041 32.1403C106.366 32.1403 106.692 32.189 107.017 32.2377C107.342 32.2863 107.667 32.335 107.992 32.335C108.642 32.4323 108.371 32.3837 108.101 32.335C107.83 32.2863 107.559 32.2377 108.209 32.335C108.642 32.335 109.076 32.335 109.293 32.5297C115.796 33.5031 122.298 34.8658 128.585 36.8125C147.226 42.6528 163.917 54.528 175.839 69.1286C177.356 71.0754 180.174 72.0488 182.559 70.686C184.726 69.518 185.81 66.5979 184.293 64.6511C172.587 50.0505 157.197 38.1753 138.772 30.9723C126.417 26.1054 113.194 23.3799 99.7551 22.7959C86.9661 22.2119 73.7436 22.9906 61.3881 26.1054C45.3477 30.1936 30.6078 37.7859 18.0355 47.5197C11.7494 52.5812 5.46329 58.2268 0.911265 64.6511C-2.7737 69.518 5.68005 73.9955 9.14826 69.1286Z" fill="#FF8566"/>
<path d="M9.14826 69.1286C9.36502 68.7393 9.58178 68.5446 10.0153 68.1553C10.4488 67.7659 10.6656 67.3766 10.8824 66.9872C10.9907 66.7925 11.1533 66.6465 11.3159 66.5005C11.4785 66.3545 11.641 66.2085 11.7494 66.0138C14.5673 62.899 17.8188 59.7842 21.0702 56.8641C26.0558 52.5812 30.391 49.4664 36.0269 46.157C42.7465 42.2635 49.8997 38.954 57.2696 36.6179C65.9401 33.8924 75.0442 32.1403 84.365 31.5563C88.4835 31.3616 92.602 31.3616 96.5037 31.5563C97.4791 31.5563 98.5088 31.605 99.5384 31.6536C100.568 31.7023 101.598 31.751 102.573 31.751C103.657 31.751 104.957 31.9457 106.041 32.1403C106.366 32.1403 106.692 32.189 107.017 32.2377C107.342 32.2863 107.667 32.335 107.992 32.335C108.642 32.4323 108.371 32.3837 108.101 32.335C107.83 32.2863 107.559 32.2377 108.209 32.335C108.642 32.335 109.076 32.335 109.293 32.5297C115.796 33.5031 122.298 34.8658 128.585 36.8125C147.226 42.6528 163.917 54.528 175.839 69.1286C177.356 71.0754 180.174 72.0488 182.559 70.686C184.726 69.518 185.81 66.5979 184.293 64.6511C172.587 50.0505 157.197 38.1753 138.772 30.9723C126.417 26.1054 113.194 23.3799 99.7551 22.7959C86.9661 22.2119 73.7436 22.9906 61.3881 26.1054C45.3477 30.1936 30.6078 37.7859 18.0355 47.5197C11.7494 52.5812 5.46329 58.2268 0.911265 64.6511C-2.7737 69.518 5.68005 73.9955 9.14826 69.1286Z" stroke="#FF8566"/>
<path d="M97.177 120.383C97.1636 120.269 97.1537 120.175 97.1537 120.133V116.629C97.1537 111.178 87.3994 111.178 87.1826 116.824C86.9658 125.195 90.2173 133.566 94.7693 140.769C101.272 151.281 111.677 159.457 124.466 162.962C134.437 165.687 144.408 165.298 154.813 164.324C157.414 164.13 159.798 162.378 159.798 159.847C159.798 157.511 157.631 155.175 154.813 155.369C146.359 156.148 137.905 156.732 130.102 154.98C126.633 154.201 124.249 153.422 121.648 152.254C120.998 151.962 120.347 151.622 119.697 151.281C119.047 150.94 118.396 150.6 117.746 150.308C117.552 150.191 117.377 150.075 117.21 149.964C116.818 149.703 116.468 149.471 116.012 149.334C115.579 149.14 115.362 148.945 115.145 148.75C115.062 148.676 114.979 148.63 114.909 148.591C114.794 148.527 114.711 148.481 114.711 148.361C112.544 146.804 110.376 144.857 108.642 142.91C108.425 142.715 108.209 142.472 107.992 142.229C107.775 141.985 107.558 141.742 107.342 141.547C107.667 141.839 107.504 141.645 107.26 141.353C107.016 141.061 106.691 140.671 106.691 140.574C106.258 140.087 105.878 139.552 105.499 139.017C105.12 138.481 104.74 137.946 104.307 137.459C103.006 135.512 101.922 133.566 100.839 131.424C100.839 131.368 100.82 131.311 100.795 131.255M97.177 120.383C97.1627 120.417 97.1537 120.519 97.1537 120.717C97.2982 121.366 97.25 120.977 97.2019 120.587C97.1932 120.517 97.1845 120.447 97.177 120.383ZM97.177 120.383C97.233 120.25 97.3704 121.146 97.3704 121.301C97.804 123.053 98.2375 124.805 98.8878 126.557C99.1045 127.044 99.2671 127.531 99.4297 128.017C99.5923 128.504 99.7548 128.991 99.9716 129.477C100.08 129.769 100.188 130.013 100.297 130.256C100.405 130.499 100.514 130.743 100.622 131.035C100.685 131.091 100.748 131.18 100.795 131.255M100.795 131.255C100.841 131.328 100.872 131.387 100.872 131.387C100.873 131.386 100.806 131.254 100.622 130.84C100.622 130.938 100.676 131.035 100.73 131.132C100.753 131.173 100.776 131.214 100.795 131.255Z" fill="#FF8566"/>
<path d="M97.177 120.383C97.1636 120.269 97.1537 120.175 97.1537 120.133V116.629C97.1537 111.178 87.3994 111.178 87.1826 116.824C86.9658 125.195 90.2173 133.566 94.7693 140.769C101.272 151.281 111.677 159.457 124.466 162.962C134.437 165.687 144.408 165.298 154.813 164.324C157.414 164.13 159.798 162.378 159.798 159.847C159.798 157.511 157.631 155.175 154.813 155.369C146.359 156.148 137.905 156.732 130.102 154.98C126.633 154.201 124.249 153.422 121.648 152.254C120.998 151.962 120.347 151.622 119.697 151.281C119.047 150.94 118.396 150.6 117.746 150.308C117.552 150.191 117.377 150.075 117.21 149.964C116.818 149.703 116.468 149.471 116.012 149.334C115.579 149.14 115.362 148.945 115.145 148.75C115.062 148.676 114.979 148.63 114.909 148.591C114.794 148.527 114.711 148.481 114.711 148.361C112.544 146.804 110.376 144.857 108.642 142.91C108.425 142.715 108.209 142.472 107.992 142.229C107.775 141.985 107.558 141.742 107.342 141.547C107.667 141.839 107.504 141.645 107.26 141.353C107.016 141.061 106.691 140.671 106.691 140.574C106.258 140.087 105.878 139.552 105.499 139.017C105.12 138.481 104.74 137.946 104.307 137.459C103.006 135.512 101.922 133.566 100.839 131.424C100.839 131.368 100.82 131.311 100.795 131.255M97.177 120.383C97.1627 120.417 97.1537 120.519 97.1537 120.717C97.2982 121.366 97.25 120.977 97.2019 120.587C97.1932 120.517 97.1845 120.447 97.177 120.383ZM97.177 120.383C97.233 120.25 97.3704 121.146 97.3704 121.301C97.804 123.053 98.2375 124.805 98.8878 126.557C99.1045 127.044 99.2671 127.531 99.4297 128.017C99.5923 128.504 99.7548 128.991 99.9716 129.477C100.08 129.769 100.188 130.013 100.297 130.256C100.405 130.499 100.514 130.743 100.622 131.035C100.685 131.091 100.748 131.18 100.795 131.255M100.795 131.255C100.841 131.328 100.872 131.387 100.872 131.387C100.873 131.386 100.806 131.254 100.622 130.84C100.622 130.938 100.676 131.035 100.73 131.132C100.753 131.173 100.776 131.214 100.795 131.255Z" stroke="#FF8566"/>
<path d="M44.5243 127.77C44.5143 127.713 44.5001 127.635 44.4806 127.53C44.4806 127.238 44.4264 126.897 44.3722 126.556C44.318 126.216 44.2638 125.875 44.2638 125.583C44.0471 123.831 43.8303 121.884 43.8303 120.132C43.8303 116.239 44.2638 112.54 45.1309 108.841C46.865 101.638 50.7667 95.0191 56.4026 89.9575C58.7639 87.8368 60.6686 86.5363 62.8819 85.025C63.3099 84.7328 63.7494 84.4327 64.206 84.1173C68.1077 81.7812 72.0095 79.8344 76.5615 78.4717C86.9661 75.3569 97.8043 75.7462 107.992 78.6664C115.579 80.8078 122.082 84.3119 127.284 89.1788C130.102 91.7096 131.619 93.4617 133.787 96.7712C134.654 97.9392 135.304 99.3019 135.955 100.665C136.013 100.769 136.071 100.859 136.125 100.943C136.272 101.172 136.388 101.353 136.388 101.638C136.605 102.125 136.551 101.979 136.496 101.833C136.442 101.687 136.388 101.541 136.605 102.027C136.713 102.319 136.876 102.66 137.038 103.001C137.201 103.341 137.363 103.682 137.472 103.974L137.472 103.974C138.339 106.31 139.206 108.646 139.64 111.177C139.64 111.469 139.694 111.712 139.748 111.956C139.802 112.199 139.856 112.443 139.856 112.735C139.748 111.956 139.748 111.956 139.775 112.199C139.802 112.443 139.856 112.929 139.856 113.124C140.073 114.681 140.073 116.239 140.073 117.601C140.507 123.052 150.478 123.052 150.478 117.212C150.911 105.921 145.926 94.8244 138.122 86.064C125.767 72.0474 104.09 65.4284 84.5817 67.7645C65.7234 69.906 47.0817 81.3918 39.2783 97.1605C34.2927 107.478 33.4257 118.769 35.1598 129.671C38.4112 149.528 49.8997 167.633 65.9401 181.455C70.4921 185.348 77.4286 179.119 72.8765 175.225C59.4372 163.545 49.4661 148.944 45.5644 132.397C45.1916 131.225 44.9791 130.053 44.789 129.005C44.7581 128.834 44.7277 128.667 44.6974 128.503C44.6974 128.323 44.6974 127.974 44.5243 127.77ZM44.5243 127.77C44.5192 127.764 44.5139 127.758 44.5085 127.752M44.5243 127.77C44.5597 127.971 44.54 127.892 44.5085 127.752M44.5085 127.752C44.4998 127.713 44.4902 127.67 44.4806 127.627C44.4264 127.384 44.3722 127.141 44.4806 127.725C44.4903 127.733 44.4996 127.742 44.5085 127.752Z" fill="#FF8566"/>
<path d="M44.5243 127.77C44.5143 127.713 44.5001 127.635 44.4806 127.53C44.4806 127.238 44.4264 126.897 44.3722 126.556C44.318 126.216 44.2638 125.875 44.2638 125.583C44.0471 123.831 43.8303 121.884 43.8303 120.132C43.8303 116.239 44.2638 112.54 45.1309 108.841C46.865 101.638 50.7667 95.0191 56.4026 89.9575C58.7639 87.8368 60.6686 86.5363 62.8819 85.025C63.3099 84.7328 63.7494 84.4327 64.206 84.1173C68.1077 81.7812 72.0095 79.8344 76.5615 78.4717C86.9661 75.3569 97.8043 75.7462 107.992 78.6664C115.579 80.8078 122.082 84.3119 127.284 89.1788C130.102 91.7096 131.619 93.4617 133.787 96.7712C134.654 97.9392 135.304 99.3019 135.955 100.665C136.013 100.769 136.071 100.859 136.125 100.943C136.272 101.172 136.388 101.353 136.388 101.638C136.605 102.125 136.551 101.979 136.496 101.833C136.442 101.687 136.388 101.541 136.605 102.027C136.713 102.319 136.876 102.66 137.038 103.001C137.201 103.341 137.363 103.682 137.472 103.974L137.472 103.974C138.339 106.31 139.206 108.646 139.64 111.177C139.64 111.469 139.694 111.712 139.748 111.956C139.802 112.199 139.856 112.443 139.856 112.735C139.748 111.956 139.748 111.956 139.775 112.199C139.802 112.443 139.856 112.929 139.856 113.124C140.073 114.681 140.073 116.239 140.073 117.601C140.507 123.052 150.478 123.052 150.478 117.212C150.911 105.921 145.926 94.8244 138.122 86.064C125.767 72.0474 104.09 65.4284 84.5817 67.7645C65.7234 69.906 47.0817 81.3918 39.2783 97.1605C34.2927 107.478 33.4257 118.769 35.1598 129.671C38.4112 149.528 49.8997 167.633 65.9401 181.455C70.4921 185.348 77.4286 179.119 72.8765 175.225C59.4372 163.545 49.4661 148.944 45.5644 132.397C45.1916 131.225 44.9791 130.053 44.789 129.005C44.7581 128.834 44.7277 128.667 44.6974 128.503C44.6974 128.323 44.6974 127.974 44.5243 127.77ZM44.5243 127.77C44.5192 127.764 44.5139 127.758 44.5085 127.752M44.5243 127.77C44.5597 127.971 44.54 127.892 44.5085 127.752M44.5085 127.752C44.4998 127.713 44.4902 127.67 44.4806 127.627C44.4264 127.384 44.3722 127.141 44.4806 127.725C44.4903 127.733 44.4996 127.742 44.5085 127.752Z" stroke="#FF8566"/>
</svg>
