<svg width="738" height="425" viewBox="0 0 738 425" fill="none" xmlns="http://www.w3.org/2000/svg">
<rect x="1" y="1" width="736" height="423" rx="9" stroke="white" stroke-width="2"/>
<rect x="34" y="28" width="670" height="370" rx="10" fill="#FF8566"/>
<rect x="168.5" y="77.5" width="73" height="79" rx="7.5" transform="rotate(90 168.5 77.5)" stroke="white" stroke-width="5"/>
<rect x="168.5" y="175.5" width="74" height="79" rx="7.5" transform="rotate(90 168.5 175.5)" stroke="white" stroke-width="5"/>
<rect x="168.5" y="275.5" width="73" height="79" rx="7.5" transform="rotate(90 168.5 275.5)" stroke="white" stroke-width="5"/>
<rect x="266.5" y="77.5" width="73" height="81" rx="7.5" transform="rotate(90 266.5 77.5)" stroke="white" stroke-width="5"/>
<rect x="266.5" y="175.5" width="74" height="81" rx="7.5" transform="rotate(90 266.5 175.5)" stroke="white" stroke-width="5"/>
<rect x="266.5" y="275.5" width="73" height="81" rx="7.5" transform="rotate(90 266.5 275.5)" stroke="white" stroke-width="5"/>
<rect x="360.5" y="77.5" width="73" height="79" rx="7.5" transform="rotate(90 360.5 77.5)" stroke="white" stroke-width="5"/>
<rect x="360.5" y="175.5" width="74" height="79" rx="7.5" transform="rotate(90 360.5 175.5)" stroke="white" stroke-width="5"/>
<rect x="360.5" y="275.5" width="73" height="79" rx="7.5" transform="rotate(90 360.5 275.5)" stroke="white" stroke-width="5"/>
<line x1="154.5" y1="110.5" x2="204.5" y2="110.5" stroke="white" stroke-width="5" stroke-linecap="round" stroke-linejoin="round"/>
<line x1="154.5" y1="211.5" x2="204.5" y2="211.5" stroke="white" stroke-width="5" stroke-linecap="round" stroke-linejoin="round"/>
<line x1="154.5" y1="310.5" x2="204.5" y2="310.5" stroke="white" stroke-width="5" stroke-linecap="round" stroke-linejoin="round"/>
<line x1="247.5" y1="110.5" x2="298.5" y2="110.5" stroke="white" stroke-width="5" stroke-linecap="round" stroke-linejoin="round"/>
<line x1="247.5" y1="211.5" x2="298.5" y2="211.5" stroke="white" stroke-width="5" stroke-linecap="round" stroke-linejoin="round"/>
<line x1="247.5" y1="310.5" x2="298.5" y2="310.5" stroke="white" stroke-width="5" stroke-linecap="round" stroke-linejoin="round"/>
<rect x="456.5" y="77.5" width="73" height="79" rx="7.5" transform="rotate(90 456.5 77.5)" stroke="white" stroke-width="5"/>
<rect x="456.5" y="175.5" width="74" height="79" rx="7.5" transform="rotate(90 456.5 175.5)" stroke="white" stroke-width="5"/>
<rect x="456.5" y="275.5" width="73" height="79" rx="7.5" transform="rotate(90 456.5 275.5)" stroke="white" stroke-width="5"/>
<rect x="554.5" y="77.5" width="73" height="81" rx="7.5" transform="rotate(90 554.5 77.5)" stroke="white" stroke-width="5"/>
<rect x="554.5" y="175.5" width="74" height="81" rx="7.5" transform="rotate(90 554.5 175.5)" stroke="white" stroke-width="5"/>
<rect x="554.5" y="275.5" width="73" height="81" rx="7.5" transform="rotate(90 554.5 275.5)" stroke="white" stroke-width="5"/>
<rect x="648.5" y="77.5" width="73" height="79" rx="7.5" transform="rotate(90 648.5 77.5)" stroke="white" stroke-width="5"/>
<rect x="648.5" y="175.5" width="74" height="79" rx="7.5" transform="rotate(90 648.5 175.5)" stroke="white" stroke-width="5"/>
<rect x="648.5" y="275.5" width="73" height="79" rx="7.5" transform="rotate(90 648.5 275.5)" stroke="white" stroke-width="5"/>
<line x1="442.5" y1="110.5" x2="492.5" y2="110.5" stroke="white" stroke-width="5" stroke-linecap="round" stroke-linejoin="round"/>
<line x1="344.5" y1="110.5" x2="394.5" y2="110.5" stroke="white" stroke-width="5" stroke-linecap="round" stroke-linejoin="round"/>
<line x1="344.5" y1="211.5" x2="394.5" y2="211.5" stroke="white" stroke-width="5" stroke-linecap="round" stroke-linejoin="round"/>
<line x1="344.5" y1="309.5" x2="394.5" y2="309.5" stroke="white" stroke-width="5" stroke-linecap="round" stroke-linejoin="round"/>
<line x1="442.5" y1="211.5" x2="492.5" y2="211.5" stroke="white" stroke-width="5" stroke-linecap="round" stroke-linejoin="round"/>
<line x1="442.5" y1="310.5" x2="492.5" y2="310.5" stroke="white" stroke-width="5" stroke-linecap="round" stroke-linejoin="round"/>
<line x1="535.5" y1="110.5" x2="585.5" y2="110.5" stroke="white" stroke-width="5" stroke-linecap="round" stroke-linejoin="round"/>
<line x1="535.5" y1="211.5" x2="585.5" y2="211.5" stroke="white" stroke-width="5" stroke-linecap="round" stroke-linejoin="round"/>
<line x1="535.5" y1="310.5" x2="585.5" y2="310.5" stroke="white" stroke-width="5" stroke-linecap="round" stroke-linejoin="round"/>
</svg>
