<svg width="320" height="205" viewBox="0 0 320 205" fill="none" xmlns="http://www.w3.org/2000/svg">
<rect x="1" y="1" width="318" height="203" rx="9" stroke="white" stroke-width="2"/>
<rect x="136.978" y="49.5" width="28.2408" height="30.4783" rx="8.5" transform="rotate(90 136.978 49.5)" stroke="#FF8566" stroke-width="3"/>
<rect x="136.979" y="88.7422" width="28.2408" height="30.4783" rx="8.5" transform="rotate(90 136.979 88.7422)" stroke="#FF8566" stroke-width="3"/>
<rect x="136.979" y="128.259" width="28.2408" height="30.4783" rx="8.5" transform="rotate(90 136.979 128.259)" stroke="#FF8566" stroke-width="3"/>
<rect x="176.195" y="49.5" width="28.2408" height="31.4348" rx="8.5" transform="rotate(90 176.195 49.5)" stroke="#FF8566" stroke-width="3"/>
<rect x="176.195" y="88.7422" width="28.2408" height="31.4348" rx="8.5" transform="rotate(90 176.195 88.7422)" stroke="#FF8566" stroke-width="3"/>
<rect x="176.195" y="128.259" width="28.2408" height="31.4348" rx="8.5" transform="rotate(90 176.195 128.259)" stroke="#FF8566" stroke-width="3"/>
<rect x="213.5" y="49.5" width="28.2408" height="30.4783" rx="8.5" transform="rotate(90 213.5 49.5)" stroke="#FF8566" stroke-width="3"/>
<rect x="213.5" y="88.7422" width="28.2408" height="30.4783" rx="8.5" transform="rotate(90 213.5 88.7422)" stroke="#FF8566" stroke-width="3"/>
<rect x="213.5" y="128.259" width="28.2408" height="30.4783" rx="8.5" transform="rotate(90 213.5 128.259)" stroke="#FF8566" stroke-width="3"/>
<line x1="132.326" y1="61.6167" x2="151.326" y2="61.6167" stroke="#FF8566" stroke-width="3" stroke-linecap="round" stroke-linejoin="round"/>
<line x1="132.326" y1="101.866" x2="151.326" y2="101.866" stroke="#FF8566" stroke-width="3" stroke-linecap="round" stroke-linejoin="round"/>
<line x1="132.326" y1="141.384" x2="151.326" y2="141.384" stroke="#FF8566" stroke-width="3" stroke-linecap="round" stroke-linejoin="round"/>
<line x1="169.63" y1="61.6167" x2="188.63" y2="61.6167" stroke="#FF8566" stroke-width="3" stroke-linecap="round" stroke-linejoin="round"/>
<line x1="169.63" y1="101.866" x2="188.63" y2="101.866" stroke="#FF8566" stroke-width="3" stroke-linecap="round" stroke-linejoin="round"/>
<line x1="169.63" y1="141.384" x2="188.63" y2="141.384" stroke="#FF8566" stroke-width="3" stroke-linecap="round" stroke-linejoin="round"/>
</svg>
