<svg width="738" height="425" viewBox="0 0 738 425" fill="none" xmlns="http://www.w3.org/2000/svg">
<rect x="1" y="1" width="736" height="423" rx="9" stroke="white" stroke-width="2"/>
<rect x="34" y="28" width="670" height="370" rx="10" fill="#FF8566"/>
<path d="M330.148 346.051L361.009 359.78L374.229 330.062L343.369 316.333L330.148 346.051Z" stroke="white" stroke-width="5" stroke-linejoin="round"/>
<path d="M286.051 237.434L316.912 251.163L330.132 221.446L299.272 207.717L286.051 237.434Z" stroke="white" stroke-width="5" stroke-linejoin="round"/>
<path d="M341.162 279.752L372.022 293.481L385.243 263.764L354.382 250.035L341.162 279.752Z" stroke="white" stroke-width="5" stroke-linejoin="round"/>
<path d="M378.632 278.622C395.776 286.249 404.348 290.063 404.348 290.063C411.68 293.325 417.575 301.88 413.168 311.786C408.761 321.692 399.347 323.437 391.128 319.78C391.128 319.78 361.982 306.814 303.69 280.881C292.328 275.826 284.064 283.45 281.65 288.875C279.236 294.301 277.611 304.878 290.47 310.599C299.042 314.412 314.472 321.277 336.76 331.192" stroke="white" stroke-width="5" stroke-linejoin="round"/>
<path d="M301.48 244.299C288.259 274.016 281.649 288.875 281.649 288.875C278.508 295.935 280.182 306.022 290.469 310.598C300.756 315.175 308.988 310.519 312.509 302.604C312.509 302.604 325.73 272.887 352.171 213.452C357.039 202.51 368.577 202.951 374.212 205.458C379.846 207.964 388.54 214.799 383.031 227.181C379.359 235.436 374.952 245.342 369.811 256.898" stroke="white" stroke-width="5" stroke-linejoin="round"/>
<path d="M434.313 166.478L454.039 166.478L454.039 147.483L434.313 147.483L434.313 166.478Z" stroke="white" stroke-width="3" stroke-linejoin="round"/>
<path d="M384.999 118.99L404.725 118.99L404.725 99.9947L384.999 99.9947L384.999 118.99Z" stroke="white" stroke-width="3" stroke-linejoin="round"/>
<path d="M424.451 128.488L444.177 128.488L444.177 109.493L424.451 109.493L424.451 128.488Z" stroke="white" stroke-width="3" stroke-linejoin="round"/>
<path d="M444.176 118.99C455.135 118.99 460.614 118.99 460.614 118.99C465.3 118.99 470.477 122.156 470.477 128.488C470.477 134.82 465.868 137.985 460.614 137.985C460.614 137.985 441.984 137.985 404.725 137.985C397.462 137.985 394.862 144.015 394.862 147.483C394.862 150.951 396.506 156.98 404.725 156.98C410.204 156.98 420.067 156.98 434.313 156.98" stroke="white" stroke-width="3" stroke-linejoin="round"/>
<path d="M394.862 118.99C394.862 137.985 394.862 147.483 394.862 147.483C394.862 151.996 398.149 156.98 404.725 156.98C411.3 156.98 414.587 152.542 414.587 147.483C414.587 147.483 414.587 128.488 414.587 90.4977C414.587 83.5039 420.849 81.0001 424.45 81.0001C428.052 81.0001 434.313 82.583 434.313 90.4977C434.313 95.7741 434.313 102.106 434.313 109.493" stroke="white" stroke-width="3" stroke-linejoin="round"/>
<path d="M262.059 134.958L272.077 97.5698L236.074 87.9228L226.056 125.311L262.059 134.958Z" stroke="white" stroke-width="5" stroke-linejoin="round"/>
<path d="M147.006 204.308L157.024 166.92L121.021 157.273L111.002 194.661L147.006 204.308Z" stroke="white" stroke-width="5" stroke-linejoin="round"/>
<path d="M185.045 134.355L195.063 96.9668L159.059 87.3197L149.041 124.708L185.045 134.355Z" stroke="white" stroke-width="5" stroke-linejoin="round"/>
<path d="M177.06 92.1445C182.626 71.3733 185.409 60.9878 185.409 60.9878C187.789 52.1055 196.418 43.9016 208.419 47.1173C220.42 50.333 224.08 60.6766 221.412 70.6348C221.412 70.6348 211.95 105.946 193.027 176.568C189.339 190.334 199.446 198.324 206.02 200.085C212.594 201.847 224.856 201.793 229.031 186.215C231.813 175.829 236.823 157.135 244.058 130.133" stroke="white" stroke-width="5" stroke-linejoin="round"/>
<path d="M152.015 185.615C188.019 195.262 206.02 200.086 206.02 200.086C214.574 202.378 225.692 198.678 229.031 186.215C232.371 173.753 225.628 165.267 216.039 162.698C216.039 162.698 180.035 153.051 108.028 133.757C94.7724 130.205 93.2067 117.066 95.0358 110.239C96.865 103.413 103.045 92.3489 118.047 96.3685C128.047 99.0483 140.049 102.264 154.05 106.016" stroke="white" stroke-width="5" stroke-linejoin="round"/>
<path d="M538 154.267L538 124.667L566.503 124.667L566.503 154.267L538 154.267Z" stroke="white" stroke-width="5" stroke-linejoin="round"/>
<path d="M609.26 228.266L609.26 198.666L637.763 198.666L637.763 228.266L609.26 228.266Z" stroke="white" stroke-width="5" stroke-linejoin="round"/>
<path d="M595.007 169.065L595.007 139.465L623.51 139.465L623.51 169.065L595.007 169.065Z" stroke="white" stroke-width="5" stroke-linejoin="round"/>
<path d="M609.259 139.467C609.259 123.022 609.259 114.8 609.259 114.8C609.259 107.768 604.508 100 595.007 100C585.506 100 580.755 106.916 580.755 114.8C580.755 114.8 580.755 142.755 580.755 198.666C580.755 209.565 571.708 213.466 566.503 213.466C561.299 213.466 552.251 211 552.251 198.666C552.251 190.444 552.251 175.644 552.251 154.266" stroke="white" stroke-width="5" stroke-linejoin="round"/>
<path d="M609.259 213.467C580.755 213.467 566.503 213.467 566.503 213.467C559.732 213.467 552.251 208.534 552.251 198.667C552.251 188.8 558.911 183.867 566.503 183.867C566.503 183.867 595.007 183.867 652.014 183.867C662.509 183.867 666.266 174.472 666.266 169.067C666.266 163.663 663.891 154.267 652.014 154.267C644.097 154.267 634.595 154.267 623.511 154.267" stroke="white" stroke-width="5" stroke-linejoin="round"/>
<path d="M512.092 358.089L492.405 355.481L494.916 336.524L514.603 339.132L512.092 358.089Z" stroke="white" stroke-width="3" stroke-linejoin="round"/>
<path d="M567.585 317.215L547.898 314.607L550.409 295.65L570.096 298.257L567.585 317.215Z" stroke="white" stroke-width="3" stroke-linejoin="round"/>
<path d="M526.956 321.478L507.27 318.87L509.781 299.913L529.467 302.521L526.956 321.478Z" stroke="white" stroke-width="3" stroke-linejoin="round"/>
<path d="M508.526 309.391C497.589 307.943 492.121 307.218 492.121 307.218C487.444 306.599 481.859 309.074 481.022 315.393C480.185 321.712 484.366 325.481 489.61 326.176C489.61 326.176 508.202 328.639 545.388 333.564C552.636 334.524 554.434 340.886 553.975 344.347C553.517 347.808 551.079 353.608 542.877 352.522C537.408 351.797 527.565 350.493 513.347 348.61" stroke="white" stroke-width="3" stroke-linejoin="round"/>
<path d="M557.742 315.911C555.231 334.869 553.975 344.347 553.975 344.347C553.379 348.851 549.439 353.391 542.877 352.522C536.314 351.653 533.62 346.789 534.289 341.739C534.289 341.739 536.8 322.782 541.822 284.867C542.747 277.888 536.829 274.561 533.235 274.085C529.64 273.609 523.182 274.361 522.136 282.26C521.439 287.526 520.601 293.845 519.625 301.217" stroke="white" stroke-width="3" stroke-linejoin="round"/>
<path d="M207 334.65L207 356.804L185.666 356.804L185.666 334.65L207 334.65Z" stroke="white" stroke-width="3" stroke-linejoin="round"/>
<path d="M153.666 279.266L153.666 301.42L132.332 301.42L132.332 279.266L153.666 279.266Z" stroke="white" stroke-width="3" stroke-linejoin="round"/>
<path d="M164.333 323.574L164.333 345.728L143 345.728L143 323.574L164.333 323.574Z" stroke="white" stroke-width="3" stroke-linejoin="round"/>
<path d="M153.666 345.727C153.666 358.035 153.666 364.189 153.666 364.189C153.666 369.452 157.222 375.266 164.333 375.266C171.444 375.266 174.999 370.089 174.999 364.189C174.999 364.189 174.999 343.266 174.999 301.42C174.999 293.263 181.771 290.343 185.666 290.343C189.561 290.343 196.333 292.189 196.333 301.42C196.333 307.574 196.333 318.65 196.333 334.65" stroke="white" stroke-width="3" stroke-linejoin="round"/>
<path d="M153.666 290.342C174.999 290.342 185.666 290.342 185.666 290.342C190.734 290.342 196.333 294.035 196.333 301.419C196.333 308.804 191.348 312.496 185.666 312.496C185.666 312.496 164.333 312.496 121.666 312.496C113.811 312.496 111 319.528 111 323.573C111 327.618 112.777 334.65 121.666 334.65C127.592 334.65 134.703 334.65 142.999 334.65" stroke="white" stroke-width="3" stroke-linejoin="round"/>
</svg>
