<svg width="320" height="205" viewBox="0 0 320 205" fill="none" xmlns="http://www.w3.org/2000/svg">
<rect x="1" y="1" width="318" height="203" rx="9" stroke="white" stroke-width="2"/>
<path d="M151.538 48H126.154V72.4445H151.538V48Z" stroke="#FF8566" stroke-width="3" stroke-linejoin="round"/>
<path d="M215 109.111H189.615V133.556H215V109.111Z" stroke="#FF8566" stroke-width="3" stroke-linejoin="round"/>
<path d="M164.231 96.8887H138.846V121.333H164.231V96.8887Z" stroke="#FF8566" stroke-width="3" stroke-linejoin="round"/>
<path d="M138.846 109.111C124.744 109.111 117.692 109.111 117.692 109.111C111.662 109.111 105 105.037 105 96.8889C105 88.7407 110.931 84.6667 117.692 84.6667C117.692 84.6667 141.667 84.6667 189.615 84.6667C198.962 84.6667 202.308 76.9076 202.308 72.4444C202.308 67.9812 200.192 60.2222 189.615 60.2222C182.564 60.2222 169.872 60.2222 151.538 60.2222" stroke="#FF8566" stroke-width="3" stroke-linejoin="round"/>
<path d="M202.308 109.111C202.308 84.6667 202.308 72.4444 202.308 72.4444C202.308 66.6372 198.077 60.2222 189.615 60.2222C181.154 60.2222 176.923 65.9337 176.923 72.4444C176.923 72.4444 176.923 96.8889 176.923 145.778C176.923 154.778 168.866 158 164.231 158C159.596 158 151.539 155.963 151.539 145.778C151.539 138.988 151.539 130.84 151.539 121.333" stroke="#FF8566" stroke-width="3" stroke-linejoin="round"/>
</svg>
