<svg width="738" height="425" viewBox="0 0 738 425" fill="none" xmlns="http://www.w3.org/2000/svg">
<rect x="1" y="1" width="736" height="423" rx="9" stroke="white" stroke-width="2"/>
<rect x="34" y="28" width="670" height="370" rx="10" fill="#FF8566"/>
<path d="M238.278 361.098L205.986 300.095L238.278 239.091L271.61 300.095L238.278 361.098Z" stroke="white" stroke-width="5"/>
<path d="M351.168 266.961L318.876 205.958L351.168 144.955L384.5 205.958L351.168 266.961Z" stroke="white" stroke-width="5"/>
<path d="M153.808 218.993L126.432 167.275L153.808 115.558L182.067 167.275L153.808 218.993Z" stroke="white" stroke-width="5"/>
<path d="M281.146 152.847L257.661 108.479L281.146 64.1116L305.389 108.479L281.146 152.847Z" stroke="white" stroke-width="5"/>
<line x1="239.904" y1="244.605" x2="239.904" y2="356.318" stroke="white" stroke-width="5"/>
<line x1="351.775" y1="147.849" x2="352.294" y2="263.245" stroke="white" stroke-width="5"/>
<line x1="154.037" y1="119.266" x2="154.037" y2="214.809" stroke="white" stroke-width="5"/>
<line x1="281.431" y1="66.3486" x2="281.431" y2="150.133" stroke="white" stroke-width="5"/>
<line y1="-2.5" x2="37.6194" y2="-2.5" transform="matrix(-0.948842 -0.315752 0.315754 -0.948841 243.805 308.608)" stroke="white" stroke-width="5"/>
<line y1="-2.5" x2="33.8541" y2="-2.5" transform="matrix(-0.908201 -0.418535 0.345269 -0.938504 351.746 216.763)" stroke="white" stroke-width="5"/>
<line y1="-2.5" x2="29.0992" y2="-2.5" transform="matrix(-0.908201 -0.418535 0.345269 -0.938504 154.299 176.563)" stroke="white" stroke-width="5"/>
<line y1="-2.5" x2="25.3359" y2="-2.5" transform="matrix(-0.908201 -0.418535 0.345269 -0.938504 281.571 116.562)" stroke="white" stroke-width="5"/>
<path d="M269.339 298.353L237.952 313.302" stroke="white" stroke-width="5"/>
<path d="M382.23 204.219L350.843 219.168" stroke="white" stroke-width="5"/>
<path d="M482.619 354.238L450.328 293.234L482.619 232.231L515.952 293.234L482.619 354.238Z" stroke="white" stroke-width="5"/>
<line x1="483.226" y1="235.125" x2="483.746" y2="350.521" stroke="white" stroke-width="5"/>
<line y1="-2.5" x2="33.8541" y2="-2.5" transform="matrix(-0.908201 -0.418535 0.345269 -0.938504 483.197 304.039)" stroke="white" stroke-width="5"/>
<path d="M513.681 291.495L482.294 306.444" stroke="white" stroke-width="5"/>
<path d="M576.959 264.736L544.668 203.732L576.959 142.729L610.292 203.732L576.959 264.736Z" stroke="white" stroke-width="5"/>
<line x1="577.566" y1="145.624" x2="578.086" y2="261.019" stroke="white" stroke-width="5"/>
<line y1="-2.5" x2="33.8541" y2="-2.5" transform="matrix(-0.908201 -0.418535 0.345269 -0.938504 577.537 214.537)" stroke="white" stroke-width="5"/>
<path d="M608.021 201.993L576.634 216.943" stroke="white" stroke-width="5"/>
<line y1="-2.5" x2="28.6308" y2="-2.5" transform="matrix(-0.905012 0.425386 -0.351315 -0.936257 178.657 164.38)" stroke="white" stroke-width="5"/>
<line y1="-2.5" x2="24.9281" y2="-2.5" transform="matrix(-0.905012 0.425386 -0.351315 -0.936257 302.777 105.96)" stroke="white" stroke-width="5"/>
<path d="M461.708 155.263L438.223 110.896L461.708 66.5277L485.951 110.896L461.708 155.263Z" stroke="white" stroke-width="5"/>
<line x1="461.993" y1="68.7646" x2="461.993" y2="152.549" stroke="white" stroke-width="5"/>
<line y1="-2.5" x2="25.3359" y2="-2.5" transform="matrix(-0.908201 -0.418535 0.345269 -0.938504 462.133 118.979)" stroke="white" stroke-width="5"/>
<line y1="-2.5" x2="24.9281" y2="-2.5" transform="matrix(-0.905012 0.425386 -0.351315 -0.936257 483.339 108.376)" stroke="white" stroke-width="5"/>
<line y1="-2.5" x2="112.327" y2="-2.5" transform="matrix(0.584599 0.811323 -0.742336 0.670028 154.166 181.003)" stroke="white" stroke-width="5"/>
<line x1="2.5" y1="-2.5" x2="95.9691" y2="-2.5" transform="matrix(0.933622 -0.35826 0.292902 0.956143 168.612 145.723)" stroke="white" stroke-width="5" stroke-linecap="round" stroke-linejoin="round"/>
<line x1="372.15" y1="177.679" x2="455.524" y2="120.356" stroke="white" stroke-width="5" stroke-linecap="round" stroke-linejoin="round"/>
<line x1="2.5" y1="-2.5" x2="80.0188" y2="-2.5" transform="matrix(0.61487 0.788628 -0.78863 0.614868 280.726 117.393)" stroke="white" stroke-width="5" stroke-linecap="round" stroke-linejoin="round"/>
<path d="M466.5 120L557.03 175.279" stroke="white" stroke-width="5" stroke-linecap="round" stroke-linejoin="round"/>
<line x1="2.5" y1="-2.5" x2="148.585" y2="-2.5" transform="matrix(0.964883 0.262681 -0.212376 0.977188 179.117 170.712)" stroke="white" stroke-width="5" stroke-linecap="round" stroke-linejoin="round"/>
<line x1="384.987" y1="205.367" x2="566.598" y2="212.444" stroke="white" stroke-width="5" stroke-linecap="round" stroke-linejoin="round"/>
<line x1="2.5" y1="-2.5" x2="134.907" y2="-2.5" transform="matrix(-0.277161 0.960823 -0.960824 -0.27716 275.647 117.393)" stroke="white" stroke-width="5" stroke-linecap="round" stroke-linejoin="round"/>
<line x1="2.5" y1="-2.5" x2="105.13" y2="-2.5" transform="matrix(-0.721156 0.692773 -0.692775 -0.721154 338.03 210.398)" stroke="white" stroke-width="5" stroke-linecap="round" stroke-linejoin="round"/>
<line x1="569.604" y1="214.919" x2="505.526" y2="270.258" stroke="white" stroke-width="5" stroke-linecap="round" stroke-linejoin="round"/>
<line x1="459.982" y1="269.036" x2="367.464" y2="211.212" stroke="white" stroke-width="5" stroke-linecap="round" stroke-linejoin="round"/>
</svg>
