<svg width="145" height="185" viewBox="0 0 145 185" fill="none" xmlns="http://www.w3.org/2000/svg">
<path d="M123.405 45.6646C123.405 69.5796 101.703 89.3291 74.4594 89.3291C47.2159 89.3291 25.5135 69.5796 25.5135 45.6646C25.5135 21.7495 47.2159 2 74.4594 2C101.703 2 123.405 21.7495 123.405 45.6646Z" stroke="#FF8566" stroke-width="4"/>
<path d="M105.117 45.0791C105.117 60.2642 91.3103 72.9367 73.8063 72.9367C56.3023 72.9367 42.4955 60.2642 42.4955 45.0791C42.4955 29.894 56.3023 17.2215 73.8063 17.2215C91.3103 17.2215 105.117 29.894 105.117 45.0791Z" stroke="#FF8566" stroke-width="4"/>
<path d="M75.072 62.3096C65.3706 61.4387 58.1711 54.3004 58.1711 46.0872C58.1711 37.8739 65.3706 30.7356 75.072 29.8647V29.8938V29.9328V29.9721V30.0116V30.0513V30.0911V30.1312V30.1715V30.212V30.2527V30.2936V30.3347V30.376V30.4175V30.4592V30.5011V30.5432V30.5855V30.6279V30.6706V30.7135V30.7565V30.7998V30.8432V30.8868V30.9306V30.9746V31.0188V31.0632V31.1077V31.1525V31.1974V31.2425V31.2877V31.3332V31.3788V31.4246V31.4706V31.5168V31.5631V31.6096V31.6563V31.7031V31.7501V31.7973V31.8447V31.8922V31.9399V31.9878V32.0358V32.084V32.1323V32.1808V32.2295V32.2783V32.3273V32.3765V32.4258V32.4752V32.5248V32.5746V32.6245V32.6746V32.7248V32.7752V32.8258V32.8764V32.9273V32.9782V33.0293V33.0806V33.132V33.1836V33.2353V33.2871V33.3391V33.3912V33.4434V33.4958V33.5483V33.601V33.6538V33.7067V33.7598V33.813V33.8663V33.9197V33.9733V34.027V34.0809V34.1348V34.1889V34.2431V34.2974V34.3519V34.4065V34.4612V34.516V34.5709V34.626V34.6812V34.7364V34.7918V34.8473V34.903V34.9587V35.0146V35.0705V35.1266V35.1828V35.239V35.2954V35.3519V35.4085V35.4652V35.522V35.5789V35.636V35.6931V35.7503V35.8076V35.865V35.9225V35.9801V36.0377V36.0955V36.1534V36.2113V36.2694V36.3275V36.3858V36.4441V36.5025V36.561V36.6195V36.6782V36.7369V36.7957V36.8546V36.9136V36.9727V37.0318V37.091V37.1503V37.2097V37.2691V37.3286V37.3882V37.4479V37.5076V37.5674V37.6273V37.6872V37.7472V37.8072V37.8674V37.9276V37.9878V38.0481V38.1085V38.1689V38.2294V38.29V38.3506V38.4113V38.472V38.5328V38.5936V38.6545V38.7154V38.7764V38.8374V38.8985V38.9596V39.0208V39.082V39.1433V39.2046V39.266V39.3274V39.3888V39.4503V39.5118V39.5734V39.635V39.6966V39.7583V39.82V39.8817V39.9434V40.0052V40.0671V40.1289V40.1908V40.2527V40.3147V40.3766V40.4386V40.5006V40.5627V40.6247V40.6868V40.7489V40.811V40.8732V40.9353V40.9975V41.0597V41.1219V41.1841V41.2464V41.3086V41.3709V41.4331V41.4954V41.5577V41.62V41.6823V41.7446V41.8069V41.8692V41.9315V41.9938V42.0561V42.1184V42.1807V42.243V42.3053V42.3676V42.4299V42.4922V42.5545V42.6168V42.679V42.7413V42.8035V42.8658V42.928V42.9902V43.0524V43.1146V43.1767V43.2389V43.301V43.3631V43.4252V43.4872V43.5493V43.6113V43.6733V43.7353V43.7972V43.8591V43.921V43.9829V44.0447V44.1065V44.1683V44.23V44.2917V44.3534V44.415V44.4766V44.5381V44.5997V44.6611V44.7226V44.784V44.8453V44.9067V44.9679V45.0292V45.0903V45.1515V45.2126V45.2736V45.3346V45.3955V45.4564V45.5172V45.578V45.6387V45.6994V45.76V45.8206V45.8811V45.9415V46.0019V46.0622V46.1225V46.1827V46.2428V46.3029V46.3629V46.4228V46.4827V46.5425V46.6022V46.6619V46.7215V46.781V46.8404V46.8998V46.9591V47.0181V47.0765V47.1343V47.1915V47.2481V47.3042V47.3598V47.4147V47.4691V47.523V47.5762V47.629V47.6811V47.7328V47.7839V47.8344V47.8844V47.9339V47.9828V48.0313V48.0791V48.1265V48.1733V48.2197V48.2655V48.3108V48.3555V48.3998V48.4436V48.4869V48.5296V48.5719V48.6137V48.655V48.6958V48.7361V48.7759V48.8153V48.8542V48.8926V48.9305V48.968V49.005V49.0416V49.0777V49.1133V49.1485V49.1832V49.2175V49.2513V49.2847V49.3177V49.3502V49.3823V49.414V49.4452V49.476V49.5064V49.5364V49.5659V49.595V49.6238V49.6521V49.68V49.7075V49.7346V49.7613V49.7877V49.8136V49.8392V49.8643V49.8891V49.9135V49.9375V49.9612V49.9844V50.0074V50.0299V50.0521V50.0739V50.0954V50.1165V50.1373V50.1577V50.1778V50.1975V50.2169V50.2359V50.2547V50.2731V50.2911V50.3089V50.3263V50.3434V50.3601V50.3766V50.3928V50.4086V50.4242V50.4394V50.4543V50.469V50.4833V50.4974V50.5112V50.5247V50.5379V50.5508V50.5634V50.5758V50.5879V50.5997V50.6113V50.6226V50.6337V50.6445V50.655V50.6653V50.6753V50.6851V50.6947V50.704V50.713V50.7219V50.7305V50.7389V50.747V50.7549V50.7627V50.7702V50.7774V50.7845V50.7914V50.798V50.8045V50.8107V50.8168V50.8226V50.8283V50.8338V50.8391V50.8442V50.8491V50.8539V50.8585V50.8629V50.8671V50.8712V50.8751V50.8789V50.8825V50.8859V50.8892V50.8923V50.8953V50.8982V50.9009V50.9035V50.9059V50.9082V50.9104V50.9121V50.9123V50.9124V50.9124V50.9126V50.9127V50.9128V50.913V50.9131V50.9134V50.9135V50.9138V50.9139V50.9143V50.9144V50.9147V50.915V50.9152V50.9157V50.9158V50.9162V50.9163V50.9165V50.9169V50.9174V50.9175V50.9179V50.9181V50.9184V50.9187V50.9194V50.9195V50.9195V50.92V50.9207V50.9207V50.9209V50.9214V50.922V50.9223V50.9227V50.9234V50.9234V50.9235V50.924V50.9247V50.9247V50.925V50.9253V50.9257V50.9259V50.9265V50.9266V50.9267V50.9271V50.9275V50.9277V50.9282V50.9283V50.9283V50.9287V50.929V50.9292V50.9296V50.9296V50.93V50.9301V50.9302V50.9304V50.9305V50.9307V50.9309V50.931V50.9311V50.9312V50.9313V50.9314V50.9315V50.9315V50.9322V50.9343V50.9365V50.9389V50.9414V50.9441V50.9468V50.9498V50.9528V50.956V50.9594V50.9629V50.9666V50.9704V50.9744V50.9785V50.9829V50.9874V50.992V50.9969V51.0019V51.0071V51.0125V51.018V51.0238V51.0297V51.0359V51.0422V51.0488V51.0555V51.0625V51.0697V51.077V51.0846V51.0924V51.1005V51.1087V51.1172V51.1259V51.1349V51.1441V51.1535V51.1632V51.1731V51.1832V51.1936V51.2043V51.2152V51.2264V51.2378V51.2495V51.2614V51.2737V51.2862V51.299V51.312V51.3253V51.339V51.3529V51.3671V51.3816V51.3963V51.4114V51.4268V51.4425V51.4585V51.4748V51.4914V51.5083V51.5256V51.5431V51.561V51.5792V51.5978V51.6167V51.6359V51.6554V51.6753V51.6956V51.7161V51.7371V51.7584V51.78V51.802V51.8243V51.8471V51.8701V51.8936V51.9174V51.9416V51.9662V51.9912V52.0165V52.0422V52.0683V52.0949V52.1218V52.1491V52.1768V52.2049V52.2334V52.2623V52.2916V52.3214V52.3515V52.3821V52.4131V52.4446V52.4764V52.5087V52.5414V52.5746V52.6082V52.6423V52.6768V52.7117V52.7471V52.7829V52.8192V52.856V52.8932V52.9309V52.9691V53.0077V53.0468V53.0864V53.1265V53.167V53.2081V53.2496V53.2916V53.3341V53.3771V53.4206V53.4646V53.5091V53.5542V53.5997V53.6457V53.6923V53.7394V53.787V53.8351V53.8838V53.933V53.9827V54.033V54.0838V54.1351V54.187V54.2395V54.2924V54.346V54.4001V54.4547V54.51V54.5658V54.6221V54.679V54.7365V54.7946V54.8533V54.9125V54.9723V55.0328V55.0938V55.1554V55.2176V55.2803V55.3437V55.4077V55.4724V55.5376V55.6034V55.6699V55.7369V55.8046V55.8729V55.9419V56.0115V56.0817V56.1525V56.224V56.2961V56.3689V56.4423V56.5164V56.5911V56.6665V56.7425V56.8192V56.8966V56.9746V57.0533V57.1327V57.2128V57.2935V57.3749V57.457V57.5398V57.6233V57.7075V57.7923V57.8779V57.9642V58.0511V58.1388V58.2272V58.3163V58.4061V58.4967V58.5879V58.6799V58.7726V58.8661V58.9603V59.0552V59.1508V59.2472V59.3444V59.4423V59.5409V59.6403V59.7404V59.8413V59.943V60.0454V60.1486V60.2526V60.3573V60.4628V60.5691V60.6762V60.7841V60.8927V61.0022V61.1124V61.2234V61.3352V61.4479V61.5613V61.6755V61.7906V61.9064V62.0231V62.1406V62.2589V62.3096Z" stroke="#FF8566" stroke-width="4"/>
<path d="M73.1531 91.3291L73.1531 169.778" stroke="#FF8566" stroke-width="4" stroke-linecap="round" stroke-linejoin="round"/>
<path d="M143 169.193C143 169.619 142.811 170.219 142.069 171.01C141.317 171.811 140.111 172.679 138.386 173.568C134.942 175.344 129.827 177.002 123.339 178.416C110.397 181.238 92.4212 183 72.5 183C52.5787 183 34.6033 181.238 21.6608 178.416C15.1732 177.002 10.0582 175.344 6.61378 173.568C4.88896 172.679 3.68259 171.811 2.93125 171.01C2.189 170.219 2 169.619 2 169.193C2 168.767 2.189 168.167 2.93125 167.376C3.68259 166.576 4.88896 165.707 6.61378 164.818C10.0582 163.042 15.1732 161.384 21.6608 159.97C34.6033 157.148 52.5787 155.386 72.5 155.386C92.4212 155.386 110.397 157.148 123.339 159.97C129.827 161.384 134.942 163.042 138.386 164.818C140.111 165.707 141.317 166.576 142.069 167.376C142.811 168.167 143 168.767 143 169.193Z" stroke="#FF8566" stroke-width="4"/>
</svg>
