<svg width="187" height="189" viewBox="0 0 187 189" fill="none" xmlns="http://www.w3.org/2000/svg">
<path d="M1 35L62.6667 2L124.333 35L186 2" stroke="#FF8566" stroke-width="4" stroke-linejoin="round"/>
<path d="M1 100L62.6667 67L124.333 100L186 67" stroke="#FF8566" stroke-width="4" stroke-linejoin="round"/>
<path d="M1 143L62.6667 110L124.333 143L186 110" stroke="#FF8566" stroke-width="4" stroke-linejoin="round"/>
<path d="M1 121L62.6667 89L124.333 121L186 89" stroke="#FF8566" stroke-width="4" stroke-linejoin="round"/>
<path d="M1 57L62.6667 24L124.333 57L186 24" stroke="#FF8566" stroke-width="4" stroke-linejoin="round"/>
<path d="M1 165L62.6667 132L124.333 165L186 132" stroke="#FF8566" stroke-width="4" stroke-linejoin="round"/>
<path d="M1 78L62.6667 46L124.333 78L186 46" stroke="#FF8566" stroke-width="4" stroke-linejoin="round"/>
<path d="M1 187L62.6667 154L124.333 187L186 154" stroke="#FF8566" stroke-width="4" stroke-linejoin="round"/>
</svg>
