<svg width="320" height="205" viewBox="0 0 320 205" fill="none" xmlns="http://www.w3.org/2000/svg">
<rect x="1" y="1" width="318" height="203" rx="9" stroke="white" stroke-width="2"/>
<path d="M105 66.6216L141.667 47L178.333 66.6216L215 47" stroke="#FF8566" stroke-width="3" stroke-linejoin="round"/>
<path d="M105 105.27L141.667 85.6484L178.333 105.27L215 85.6484" stroke="#FF8566" stroke-width="3" stroke-linejoin="round"/>
<path d="M105 130.838L141.667 111.216L178.333 130.838L215 111.216" stroke="#FF8566" stroke-width="3" stroke-linejoin="round"/>
<path d="M105 117.756L141.667 98.729L178.333 117.756L215 98.729" stroke="#FF8566" stroke-width="3" stroke-linejoin="round"/>
<path d="M105 79.7022L141.667 60.0806L178.333 79.7022L215 60.0806" stroke="#FF8566" stroke-width="3" stroke-linejoin="round"/>
<path d="M105 143.919L141.667 124.297L178.333 143.919L215 124.297" stroke="#FF8566" stroke-width="3" stroke-linejoin="round"/>
<path d="M105 92.1887L141.667 73.1616L178.333 92.1887L215 73.1616" stroke="#FF8566" stroke-width="3" stroke-linejoin="round"/>
<path d="M105 157L141.667 137.378L178.333 157L215 137.378" stroke="#FF8566" stroke-width="3" stroke-linejoin="round"/>
</svg>
