<svg width="191" height="191" viewBox="0 0 191 191" fill="none" xmlns="http://www.w3.org/2000/svg">
<path fill-rule="evenodd" clip-rule="evenodd" d="M95.5007 75.3513C106.621 75.3513 115.649 84.3796 115.649 95.5C115.649 106.621 106.621 115.649 95.5007 115.649C84.3798 115.649 75.3516 106.621 75.3516 95.5C75.3516 84.3796 84.3798 75.3513 95.5007 75.3513Z" stroke="#FF8566" stroke-width="4" stroke-linejoin="round"/>
<path fill-rule="evenodd" clip-rule="evenodd" d="M85.4292 78.0571C125.888 54.6985 163.248 43.5493 168.806 53.1763C174.364 62.8032 146.029 89.5839 105.57 112.943C65.1114 136.302 27.7511 147.45 22.1931 137.823C16.6352 128.196 44.9702 101.416 85.4292 78.0571Z" stroke="#FF8566" stroke-width="4" stroke-linejoin="round"/>
<path fill-rule="evenodd" clip-rule="evenodd" d="M78.0569 105.571C60.2587 74.7437 53.6247 45.2037 63.2517 39.6457C72.8786 34.0873 95.1441 54.6025 112.942 85.4296C130.74 116.257 137.374 145.797 127.747 151.355C118.12 156.913 95.8546 136.398 78.0569 105.571Z" stroke="#FF8566" stroke-width="4" stroke-linejoin="round"/>
<path fill-rule="evenodd" clip-rule="evenodd" d="M42.2033 64.7293C69.9941 16.595 116.438 -8.69625 145.853 8.28625C175.268 25.2693 176.587 78.1362 148.797 126.271C121.006 174.405 74.5626 199.696 45.1475 182.713C15.7323 165.731 14.4131 112.864 42.2033 64.7293Z" stroke="#FF8566" stroke-width="4" stroke-linejoin="round"/>
<path fill-rule="evenodd" clip-rule="evenodd" d="M126.271 42.2035C174.405 69.9943 199.696 116.438 182.714 145.853C165.731 175.268 112.864 176.587 64.729 148.797C16.5947 121.006 -8.6965 74.5623 8.2865 45.1472C25.269 15.732 78.136 14.4133 126.271 42.2035Z" stroke="#FF8566" stroke-width="4" stroke-linejoin="round"/>
</svg>
