<svg width="738" height="425" viewBox="0 0 738 425" fill="none" xmlns="http://www.w3.org/2000/svg">
<rect x="1" y="1" width="736" height="423" rx="9" stroke="white" stroke-width="2"/>
<rect x="34" y="28" width="670" height="370" rx="10" fill="#FF8566"/>
<path d="M311.999 123H235.333V212.999H311.999V123Z" stroke="white" stroke-width="5" stroke-linejoin="round"/>
<path d="M311.999 257.999H235.333V347.999H311.999V257.999Z" stroke="white" stroke-width="5" stroke-linejoin="round"/>
<path d="M503.665 78H426.999V168H503.665V78Z" stroke="white" stroke-width="5" stroke-linejoin="round"/>
<path d="M503.665 212.999H426.999V302.999H503.665V212.999Z" stroke="white" stroke-width="5" stroke-linejoin="round"/>
<path d="M350.332 78H311.999V123H350.332V78Z" stroke="white" stroke-width="5" stroke-linejoin="round"/>
<path d="M350.332 212.999H311.999V257.999H350.332V212.999Z" stroke="white" stroke-width="5" stroke-linejoin="round"/>
<path d="M388.665 123H350.332V167.999H388.665V123Z" stroke="white" stroke-width="5" stroke-linejoin="round"/>
<path d="M427 168.001H388.667V213.001H427V168.001Z" stroke="white" stroke-width="5" stroke-linejoin="round"/>
<path d="M388.665 257.999H350.332V302.999H388.665V257.999Z" stroke="white" stroke-width="5" stroke-linejoin="round"/>
<path d="M427 303H388.667V348H427V303Z" stroke="white" stroke-width="5" stroke-linejoin="round"/>
<path d="M158.667 123H82V212.999H158.667V123Z" stroke="white" stroke-width="5" stroke-linejoin="round"/>
<path d="M158.667 257.999H82V347.999H158.667V257.999Z" stroke="white" stroke-width="5" stroke-linejoin="round"/>
<path d="M196.999 78H158.666V123H196.999V78Z" stroke="white" stroke-width="5" stroke-linejoin="round"/>
<path d="M196.999 212.999H158.666V257.999H196.999V212.999Z" stroke="white" stroke-width="5" stroke-linejoin="round"/>
<path d="M235.332 123H196.999V167.999H235.332V123Z" stroke="white" stroke-width="5" stroke-linejoin="round"/>
<path d="M273.668 168.001H235.334V213.001H273.668V168.001Z" stroke="white" stroke-width="5" stroke-linejoin="round"/>
<path d="M235.332 257.999H196.999V302.999H235.332V257.999Z" stroke="white" stroke-width="5" stroke-linejoin="round"/>
<path d="M273.668 303H235.334V348H273.668V303Z" stroke="white" stroke-width="5" stroke-linejoin="round"/>
<path d="M580.333 123H657V212.999H580.333V123Z" stroke="white" stroke-width="5" stroke-linejoin="round"/>
<path d="M580.333 257.999H657V347.999H580.333V257.999Z" stroke="white" stroke-width="5" stroke-linejoin="round"/>
<path d="M542.001 78H580.334V123H542.001V78Z" stroke="white" stroke-width="5" stroke-linejoin="round"/>
<path d="M542.001 212.999H580.334V257.999H542.001V212.999Z" stroke="white" stroke-width="5" stroke-linejoin="round"/>
<path d="M503.668 123H542.001V167.999H503.668V123Z" stroke="white" stroke-width="5" stroke-linejoin="round"/>
<path d="M465.332 168.001H503.666V213.001H465.332V168.001Z" stroke="white" stroke-width="5" stroke-linejoin="round"/>
<path d="M503.668 257.999H542.001V302.999H503.668V257.999Z" stroke="white" stroke-width="5" stroke-linejoin="round"/>
<path d="M465.332 303H503.666V348H465.332V303Z" stroke="white" stroke-width="5" stroke-linejoin="round"/>
</svg>
