<svg width="320" height="205" viewBox="0 0 320 205" fill="none" xmlns="http://www.w3.org/2000/svg">
<rect x="1" y="1" width="318" height="203" rx="9" stroke="white" stroke-width="2"/>
<path d="M136.429 65.3335H105V102H136.429V65.3335Z" stroke="#FF8566" stroke-width="3" stroke-linejoin="round"/>
<path d="M136.429 120.333H105V157H136.429V120.333Z" stroke="#FF8566" stroke-width="3" stroke-linejoin="round"/>
<path d="M215 47H183.572V83.6666H215V47Z" stroke="#FF8566" stroke-width="3" stroke-linejoin="round"/>
<path d="M215 102H183.572V138.667H215V102Z" stroke="#FF8566" stroke-width="3" stroke-linejoin="round"/>
<path d="M152.142 47H136.428V65.3333H152.142V47Z" stroke="#FF8566" stroke-width="3" stroke-linejoin="round"/>
<path d="M152.142 102H136.428V120.333H152.142V102Z" stroke="#FF8566" stroke-width="3" stroke-linejoin="round"/>
<path d="M167.857 65.3335H152.143V83.6668H167.857V65.3335Z" stroke="#FF8566" stroke-width="3" stroke-linejoin="round"/>
<path d="M183.572 83.667H167.857V102H183.572V83.667Z" stroke="#FF8566" stroke-width="3" stroke-linejoin="round"/>
<path d="M167.857 120.333H152.143V138.666H167.857V120.333Z" stroke="#FF8566" stroke-width="3" stroke-linejoin="round"/>
<path d="M183.572 138.667H167.857V157H183.572V138.667Z" stroke="#FF8566" stroke-width="3" stroke-linejoin="round"/>
</svg>
