<svg width="190" height="189" viewBox="0 0 190 189" fill="none" xmlns="http://www.w3.org/2000/svg">
<path d="M44.9394 44.3574H11.0624C8.77659 44.3574 6.92358 46.2345 6.92358 48.55V81.7582C6.92358 84.0737 8.77659 85.9508 11.0624 85.9508H44.9394C47.2252 85.9508 49.0782 84.0737 49.0782 81.7582V48.55C49.0782 46.2345 47.2252 44.3574 44.9394 44.3574Z" stroke="#FF8566" stroke-width="4" stroke-linejoin="round"/>
<path d="M74.448 2.7641H57.4329C55.1471 2.7641 53.2941 4.64119 53.2941 6.95671V23.5275C53.2941 25.843 55.1471 27.7201 57.4329 27.7201H74.448C76.7338 27.7201 78.5868 25.843 78.5868 23.5275V6.95671C78.5868 4.64119 76.7338 2.7641 74.448 2.7641Z" stroke="#FF8566" stroke-width="4" stroke-linejoin="round"/>
<path d="M15.3546 44.3573V27.7199V15.2419H2.70825V27.7199" stroke="#FF8566" stroke-width="4" stroke-linejoin="round"/>
<path d="M40.6475 44.3572V27.7198H44.8629" stroke="#FF8566" stroke-width="4" stroke-linejoin="round"/>
<path d="M28.0009 44.3573V27.7199V15.2419H53.2936" stroke="#FF8566" stroke-width="4" stroke-linejoin="round"/>
<path d="M2.70825 2.7641H42.7551" stroke="#FF8566" stroke-width="4" stroke-linejoin="round"/>
<path d="M51.1861 48.5167H65.9402V36.0387" stroke="#FF8566" stroke-width="4" stroke-linejoin="round"/>
<path d="M51.1862 73.4724H61.7248V85.9504H70.1558H78.5867V73.4724" stroke="#FF8566" stroke-width="4" stroke-linejoin="round"/>
<path d="M76.4789 36.0388V52.6762V63.0745H51.1861" stroke="#FF8566" stroke-width="4" stroke-linejoin="round"/>
<path d="M146.649 36.0849L146.649 70.4022C146.649 72.7177 148.502 74.5948 150.787 74.5948L183.569 74.5948C185.855 74.5948 187.708 72.7177 187.708 70.4022L187.708 36.0849C187.708 33.7694 185.855 31.8923 183.569 31.8923L150.787 31.8923C148.502 31.8923 146.649 33.7694 146.649 36.0849Z" stroke="#FF8566" stroke-width="4" stroke-linejoin="round"/>
<path d="M105.589 6.19263L105.589 23.4289C105.589 25.7444 107.442 27.6215 109.728 27.6215L126.086 27.6215C128.372 27.6215 130.225 25.7444 130.225 23.4289L130.225 6.19263C130.225 3.87712 128.372 2.00002 126.086 2.00002L109.728 2.00002C107.442 2.00002 105.589 3.87712 105.589 6.19263Z" stroke="#FF8566" stroke-width="4" stroke-linejoin="round"/>
<path d="M146.648 66.0542L130.225 66.0542L117.907 66.0542L117.907 78.8649L130.225 78.8649" stroke="#FF8566" stroke-width="4" stroke-linejoin="round"/>
<path d="M146.648 40.4326L130.224 40.4326L130.224 36.1623" stroke="#FF8566" stroke-width="4" stroke-linejoin="round"/>
<path d="M146.648 53.2436L130.225 53.2436L117.907 53.2436L117.907 27.6221" stroke="#FF8566" stroke-width="4" stroke-linejoin="round"/>
<path d="M105.589 78.8649L105.589 38.2976" stroke="#FF8566" stroke-width="4" stroke-linejoin="round"/>
<path d="M150.754 29.757L150.754 14.8111L138.437 14.8111" stroke="#FF8566" stroke-width="4" stroke-linejoin="round"/>
<path d="M175.39 29.7568L175.39 19.0812L187.708 19.0812L187.708 10.5407L187.708 2.00018L175.39 2.00018" stroke="#FF8566" stroke-width="4" stroke-linejoin="round"/>
<path d="M138.437 4.13538L154.861 4.13538L165.125 4.13538L165.125 29.7569" stroke="#FF8566" stroke-width="4" stroke-linejoin="round"/>
<path d="M41.7307 145.407L75.6076 145.407C77.8935 145.407 79.7465 143.53 79.7465 141.214L79.7465 108.006C79.7465 105.69 77.8934 103.813 75.6076 103.813L41.7307 103.813C39.4449 103.813 37.5919 105.69 37.5919 108.006L37.5919 141.214C37.5919 143.53 39.4449 145.407 41.7307 145.407Z" stroke="#FF8566" stroke-width="4" stroke-linejoin="round"/>
<path d="M12.2219 187L29.237 187C31.5228 187 33.3759 185.123 33.3759 182.807L33.3759 166.237C33.3759 163.921 31.5228 162.044 29.237 162.044L12.2219 162.044C9.93612 162.044 8.08311 163.921 8.08311 166.237L8.08311 182.807C8.08311 185.123 9.93612 187 12.2219 187Z" stroke="#FF8566" stroke-width="4" stroke-linejoin="round"/>
<path d="M71.3154 145.407L71.3154 162.044L71.3154 174.522L83.9618 174.522L83.9618 162.044" stroke="#FF8566" stroke-width="4" stroke-linejoin="round"/>
<path d="M46.0226 145.407L46.0226 162.044L41.8071 162.044" stroke="#FF8566" stroke-width="4" stroke-linejoin="round"/>
<path d="M58.6692 145.407L58.6692 162.044L58.6692 174.522L33.3764 174.522" stroke="#FF8566" stroke-width="4" stroke-linejoin="round"/>
<path d="M83.9618 187L43.9149 187" stroke="#FF8566" stroke-width="4" stroke-linejoin="round"/>
<path d="M35.484 141.248L20.7299 141.248L20.7299 153.726" stroke="#FF8566" stroke-width="4" stroke-linejoin="round"/>
<path d="M35.4838 116.292L24.9452 116.292L24.9452 103.814L16.5143 103.814L8.08337 103.814L8.08337 116.292" stroke="#FF8566" stroke-width="4" stroke-linejoin="round"/>
<path d="M10.1912 153.725L10.1912 137.088L10.1912 126.69L35.4839 126.69" stroke="#FF8566" stroke-width="4" stroke-linejoin="round"/>
<path d="M140.632 144.318L174.509 144.318C176.795 144.318 178.648 142.441 178.648 140.125L178.648 106.917C178.648 104.602 176.795 102.724 174.509 102.724L140.632 102.724C138.346 102.724 136.493 104.602 136.493 106.917L136.493 140.125C136.493 142.441 138.346 144.318 140.632 144.318Z" stroke="#FF8566" stroke-width="4" stroke-linejoin="round"/>
<path d="M111.123 185.911L128.139 185.911C130.424 185.911 132.277 184.034 132.277 181.718L132.277 165.148C132.277 162.832 130.424 160.955 128.139 160.955L111.123 160.955C108.838 160.955 106.985 162.832 106.985 165.148L106.985 181.718C106.985 184.034 108.838 185.911 111.123 185.911Z" stroke="#FF8566" stroke-width="4" stroke-linejoin="round"/>
<path d="M170.217 144.318L170.217 160.955L170.217 173.433L182.863 173.433L182.863 160.955" stroke="#FF8566" stroke-width="4" stroke-linejoin="round"/>
<path d="M144.924 144.318L144.924 160.955L140.709 160.955" stroke="#FF8566" stroke-width="4" stroke-linejoin="round"/>
<path d="M157.571 144.318L157.571 160.955L157.571 173.433L132.278 173.433" stroke="#FF8566" stroke-width="4" stroke-linejoin="round"/>
<path d="M182.863 185.911L142.816 185.911" stroke="#FF8566" stroke-width="4" stroke-linejoin="round"/>
<path d="M134.385 140.159L119.631 140.159L119.631 152.637" stroke="#FF8566" stroke-width="4" stroke-linejoin="round"/>
<path d="M134.385 115.203L123.847 115.203L123.847 102.725L115.416 102.725L106.985 102.725L106.985 115.203" stroke="#FF8566" stroke-width="4" stroke-linejoin="round"/>
<path d="M109.093 152.636L109.093 135.999L109.093 125.601L134.385 125.601" stroke="#FF8566" stroke-width="4" stroke-linejoin="round"/>
</svg>
