<svg width="320" height="205" viewBox="0 0 320 205" fill="none" xmlns="http://www.w3.org/2000/svg">
<rect x="1" y="1" width="318" height="203" rx="9" stroke="white" stroke-width="2"/>
<rect x="106" y="49" width="32.9206" height="34.0657" stroke="#FF8566" stroke-width="2"/>
<rect x="112.984" y="56.2134" width="18.9524" height="19.6394" fill="#FF8566" stroke="#FF8566" stroke-width="2"/>
<rect x="181.079" y="49" width="32.9206" height="34.0657" stroke="#FF8566" stroke-width="2"/>
<rect x="188.063" y="56.2134" width="18.9524" height="19.6394" fill="#FF8566" stroke="#FF8566" stroke-width="2"/>
<rect x="106" y="122.934" width="32.9206" height="34.0657" stroke="#FF8566" stroke-width="2"/>
<rect x="112.984" y="130.148" width="18.9524" height="19.6394" fill="#FF8566" stroke="#FF8566" stroke-width="2"/>
<rect x="145" y="48" width="9.16667" height="17.1875" fill="#FF8566"/>
<rect x="145" y="48" width="9.16667" height="17.1875" stroke="#FF8566"/>
<rect x="172" y="48" width="4" height="17" fill="#FF8566"/>
<rect x="172" y="48" width="4" height="17" stroke="#FF8566"/>
<rect x="160" y="131.646" width="8.02083" height="11.4583" transform="rotate(90 160 131.646)" fill="#FF8566"/>
<rect x="160" y="131.646" width="8.02083" height="11.4583" transform="rotate(90 160 131.646)" stroke="#FF8566"/>
<rect x="157.708" y="80.0835" width="18.3333" height="9.16667" transform="rotate(-180 157.708 80.0835)" fill="#FF8566"/>
<rect x="157.708" y="80.0835" width="18.3333" height="9.16667" transform="rotate(-180 157.708 80.0835)" stroke="#FF8566"/>
<rect x="150.833" y="121.333" width="8.02083" height="11.4583" transform="rotate(90 150.833 121.333)" fill="#FF8566"/>
<rect x="150.833" y="121.333" width="8.02083" height="11.4583" transform="rotate(90 150.833 121.333)" stroke="#FF8566"/>
<path d="M173 97L182 97L182 109L173 109L173 97Z" fill="#FF8566"/>
<path d="M173 97L182 97L182 109L173 109L173 97Z" stroke="#FF8566"/>
<path d="M189.792 98.4165L197.812 98.4165L197.812 109.875L189.792 109.875L189.792 98.4165Z" fill="#FF8566"/>
<path d="M189.792 98.4165L197.812 98.4165L197.812 109.875L189.792 109.875L189.792 98.4165Z" stroke="#FF8566"/>
<path d="M172.604 82.375L180.625 82.375L180.625 93.8333L172.604 93.8333L172.604 82.375Z" fill="#FF8566"/>
<path d="M172.604 82.375L180.625 82.375L180.625 93.8333L172.604 93.8333L172.604 82.375Z" stroke="#FF8566"/>
<rect x="213.854" y="121.333" width="3.4375" height="11.4583" transform="rotate(-180 213.854 121.333)" fill="#FF8566"/>
<rect x="213.854" y="121.333" width="3.4375" height="11.4583" transform="rotate(-180 213.854 121.333)" stroke="#FF8566"/>
<rect x="151.12" y="145.109" width="1.71875" height="10.8854" transform="rotate(90 151.12 145.109)" fill="#FF8566" stroke="#FF8566" stroke-width="1.71875"/>
<rect x="154.557" y="151.412" width="1.71875" height="6.30208" transform="rotate(-180 154.557 151.412)" fill="#FF8566" stroke="#FF8566" stroke-width="1.71875"/>
<rect x="209.557" y="99.2759" width="1.71875" height="6.30208" transform="rotate(90 209.557 99.2759)" fill="#FF8566" stroke="#FF8566" stroke-width="1.71875"/>
<rect x="208.271" y="86.8125" width="3.72917" height="23.2083" transform="rotate(90 208.271 86.8125)" fill="#FF8566" stroke="#FF8566" stroke-width="2"/>
<rect x="152.979" y="157" width="3.72917" height="14.0417" transform="rotate(-90 152.979 157)" fill="#FF8566" stroke="#FF8566" stroke-width="2"/>
<rect x="212.854" y="100.854" width="4.875" height="14.0417" transform="rotate(180 212.854 100.854)" fill="#FF8566" stroke="#FF8566" stroke-width="2"/>
<rect x="173.896" y="157" width="6.02083" height="16.3333" transform="rotate(180 173.896 157)" fill="#FF8566" stroke="#FF8566" stroke-width="2"/>
<rect x="212.854" y="107.438" width="4.875" height="18.625" transform="rotate(90 212.854 107.438)" fill="#FF8566" stroke="#FF8566" stroke-width="2"/>
<rect x="182.63" y="157.141" width="1.71875" height="31.5104" transform="rotate(-90 182.63 157.141)" fill="#FF8566" stroke="#FF8566" stroke-width="1.71875"/>
<rect x="173.464" y="146.828" width="1.71875" height="17.7604" transform="rotate(-90 173.464 146.828)" fill="#FF8566" stroke="#FF8566" stroke-width="1.71875"/>
<rect x="165.443" y="136.516" width="1.71875" height="13.1771" transform="rotate(-90 165.443 136.516)" fill="#FF8566" stroke="#FF8566" stroke-width="1.71875"/>
<rect x="179.193" y="120.474" width="1.71875" height="13.1771" transform="rotate(-90 179.193 120.474)" fill="#FF8566" stroke="#FF8566" stroke-width="1.71875"/>
<rect x="180.771" y="124.917" width="4.875" height="9.45833" transform="rotate(180 180.771 124.917)" fill="#FF8566" stroke="#FF8566" stroke-width="2"/>
<rect x="168.88" y="126.203" width="1.71875" height="12.0312" transform="rotate(-90 168.88 126.203)" fill="#FF8566" stroke="#FF8566" stroke-width="1.71875"/>
<rect x="188.5" y="130.646" width="6.02083" height="8.3125" transform="rotate(-90 188.5 130.646)" fill="#FF8566" stroke="#FF8566" stroke-width="2"/>
<rect x="188.5" y="153.562" width="6.02083" height="9.45833" transform="rotate(-90 188.5 153.562)" fill="#FF8566" stroke="#FF8566" stroke-width="2"/>
<rect x="161" y="86" width="4" height="16" fill="#FF8566" stroke="#FF8566" stroke-width="4"/>
<rect x="137" y="89" width="4" height="18" stroke="#FF8566" stroke-width="4"/>
<rect x="145.677" y="87.5314" width="1.14583" height="14.8958" transform="rotate(90 145.677 87.5314)" stroke="#FF8566" stroke-width="1.14583"/>
<rect x="172.312" y="91.25" width="13.1875" height="6.3125" fill="#FF8566" stroke="#FF8566" stroke-width="4"/>
<rect x="183.49" y="109.302" width="4.58333" height="3.4375" fill="#FF8566" stroke="#FF8566" stroke-width="3.4375"/>
<rect x="148" y="80" width="4" height="13" fill="#FF8566" stroke="#FF8566" stroke-width="4"/>
<rect x="181.479" y="133.646" width="8.60417" height="10.8958" fill="#FF8566" stroke="#FF8566" stroke-width="4"/>
<rect x="206.688" y="142.812" width="6.3125" height="6.3125" fill="#FF8566" stroke="#FF8566" stroke-width="4"/>
<rect x="156" y="111" width="12" height="14" fill="#FF8566" stroke="#FF8566" stroke-width="4"/>
<rect x="198.672" y="116.463" width="1.71875" height="33.8021" stroke="#FF8566" stroke-width="1.71875"/>
<rect x="137.37" y="98.1304" width="1.71875" height="28.0729" transform="rotate(90 137.37 98.1304)" stroke="#FF8566" stroke-width="1.71875"/>
<rect x="120.188" y="115.896" width="4.02083" height="4.02083" transform="rotate(-180 120.188 115.896)" stroke="#FF8566" stroke-width="4"/>
<rect x="121.042" y="105.292" width="2.29167" height="5.72917" transform="rotate(-180 121.042 105.292)" stroke="#FF8566" stroke-width="2.29167"/>
<rect x="128.5" y="111.5" width="3" height="9" stroke="#FF8566" stroke-width="3"/>
<rect x="130.495" y="90.1094" width="1.71875" height="22.3438" transform="rotate(90 130.495 90.1094)" stroke="#FF8566" stroke-width="1.71875"/>
<rect x="148.255" y="129.068" width="1.71875" height="16.6146" stroke="#FF8566" stroke-width="1.71875"/>
<rect x="140.229" y="113.021" width="8.60417" height="14.3333" fill="#FF8566" stroke="#FF8566" stroke-width="4"/>
<rect x="211.854" y="129.062" width="5.16667" height="9.75" transform="rotate(90 211.854 129.062)" fill="#FF8566" stroke="#FF8566" stroke-width="4"/>
<rect x="160.859" y="98.7031" width="1.71875" height="8.59375" transform="rotate(-90 160.859 98.7031)" stroke="#FF8566" stroke-width="1.71875"/>
<rect x="107.578" y="96.4116" width="1.71875" height="8.59375" transform="rotate(-180 107.578 96.4116)" stroke="#FF8566" stroke-width="1.71875"/>
<rect x="167" y="50" width="13" height="7" transform="rotate(90 167 50)" fill="#FF8566" stroke="#FF8566" stroke-width="4"/>
<rect x="174" y="66" width="5" height="14" transform="rotate(90 174 66)" fill="#FF8566" stroke="#FF8566" stroke-width="4"/>
<rect x="152" y="101" width="6" height="12" transform="rotate(90 152 101)" fill="#FF8566" stroke="#FF8566" stroke-width="4"/>
<rect x="110.156" y="97.8437" width="20.625" height="3.4375" transform="rotate(90 110.156 97.8437)" stroke="#FF8566" stroke-width="3.4375"/>
<rect x="115.885" y="119.615" width="9.16667" height="1.14583" transform="rotate(-180 115.885 119.615)" stroke="#FF8566" stroke-width="1.14583"/>
</svg>
