<svg width="738" height="425" viewBox="0 0 738 425" fill="none" xmlns="http://www.w3.org/2000/svg">
<rect x="1" y="1" width="736" height="423" rx="9" stroke="white" stroke-width="2"/>
<rect x="34" y="28" width="670" height="370" rx="10" fill="#FF8566"/>
<path d="M185.935 94H84V195.935H185.935V94Z" stroke="white" stroke-width="5" stroke-linejoin="round"/>
<path d="M253.893 229.912H151.957V331.847H253.893V229.912Z" stroke="white" stroke-width="5" stroke-linejoin="round"/>
<path d="M219.914 263.888H185.936V297.866H219.914V263.888Z" stroke="white" stroke-width="5" stroke-linejoin="round"/>
<path d="M253.892 94H219.914V127.978H253.892V94Z" stroke="white" stroke-width="5" stroke-linejoin="round"/>
<path d="M253.892 161.961H219.914V195.939H253.892V161.961Z" stroke="white" stroke-width="5" stroke-linejoin="round"/>
<path d="M117.978 229.912H84V263.891H117.978V229.912Z" stroke="white" stroke-width="5" stroke-linejoin="round"/>
<path d="M117.978 297.874H84V331.852H117.978V297.874Z" stroke="white" stroke-width="5" stroke-linejoin="round"/>
<path d="M321.849 94H287.87V127.978H321.849V94Z" stroke="white" stroke-width="5" stroke-linejoin="round"/>
<path d="M654.989 94H621.01V127.978H654.989V94Z" stroke="white" stroke-width="5" stroke-linejoin="round"/>
<path d="M654.989 161.655H621.01V195.634H654.989V161.655Z" stroke="white" stroke-width="5" stroke-linejoin="round"/>
<path d="M654.989 230.367H621.01V264.346H654.989V230.367Z" stroke="white" stroke-width="5" stroke-linejoin="round"/>
<path d="M654.989 298.021H621.01V332H654.989V298.021Z" stroke="white" stroke-width="5" stroke-linejoin="round"/>
<path d="M321.849 161.961H287.87V195.939H321.849V161.961Z" stroke="white" stroke-width="5" stroke-linejoin="round"/>
<path d="M321.849 229.912H287.87V263.891H321.849V229.912Z" stroke="white" stroke-width="5" stroke-linejoin="round"/>
<path d="M321.849 297.874H287.87V331.852H321.849V297.874Z" stroke="white" stroke-width="5" stroke-linejoin="round"/>
<path d="M590.357 195.935L590.357 94L488.422 94L488.422 195.935L590.357 195.935Z" stroke="white" stroke-width="5" stroke-linejoin="round"/>
<path d="M454.445 263.892L454.445 161.957L352.509 161.957L352.509 263.892L454.445 263.892Z" stroke="white" stroke-width="5" stroke-linejoin="round"/>
<path d="M420.47 229.914L420.47 195.936L386.491 195.936L386.491 229.914L420.47 229.914Z" stroke="white" stroke-width="5" stroke-linejoin="round"/>
<path d="M590.357 263.892L590.357 229.913L556.379 229.913L556.379 263.892L590.357 263.892Z" stroke="white" stroke-width="5" stroke-linejoin="round"/>
<path d="M522.396 263.892L522.396 229.913L488.417 229.913L488.417 263.892L522.396 263.892Z" stroke="white" stroke-width="5" stroke-linejoin="round"/>
<path d="M454.445 127.978L454.445 94L420.466 94L420.466 127.978L454.445 127.978Z" stroke="white" stroke-width="5" stroke-linejoin="round"/>
<path d="M386.483 127.978L386.483 94L352.505 94L352.505 127.978L386.483 127.978Z" stroke="white" stroke-width="5" stroke-linejoin="round"/>
<path d="M590.357 331.85L590.357 297.871L556.379 297.871L556.379 331.85L590.357 331.85Z" stroke="white" stroke-width="5" stroke-linejoin="round"/>
<path d="M522.396 331.85L522.396 297.871L488.417 297.871L488.417 331.85L522.396 331.85Z" stroke="white" stroke-width="5" stroke-linejoin="round"/>
<path d="M454.445 331.85L454.445 297.871L420.466 297.871L420.466 331.85L454.445 331.85Z" stroke="white" stroke-width="5" stroke-linejoin="round"/>
<path d="M386.483 331.85L386.483 297.871L352.505 297.871L352.505 331.85L386.483 331.85Z" stroke="white" stroke-width="5" stroke-linejoin="round"/>
</svg>
