<svg width="320" height="205" viewBox="0 0 320 205" fill="none" xmlns="http://www.w3.org/2000/svg">
<rect x="1" y="1" width="318" height="203" rx="9" stroke="white" stroke-width="2"/>
<path d="M152.143 47H105V94.1429H152.143V47Z" stroke="#FF8566" stroke-width="3" stroke-linejoin="round"/>
<path d="M183.571 109.856H136.428V156.999H183.571V109.856Z" stroke="#FF8566" stroke-width="3" stroke-linejoin="round"/>
<path d="M167.857 125.569H152.143V141.284H167.857V125.569Z" stroke="#FF8566" stroke-width="3" stroke-linejoin="round"/>
<path d="M183.571 47H167.857V62.7143H183.571V47Z" stroke="#FF8566" stroke-width="3" stroke-linejoin="round"/>
<path d="M183.571 78.4307H167.857V94.1449H183.571V78.4307Z" stroke="#FF8566" stroke-width="3" stroke-linejoin="round"/>
<path d="M120.714 109.856H105V125.571H120.714V109.856Z" stroke="#FF8566" stroke-width="3" stroke-linejoin="round"/>
<path d="M120.714 141.287H105V157.001H120.714V141.287Z" stroke="#FF8566" stroke-width="3" stroke-linejoin="round"/>
<path d="M215 47H199.286V62.7143H215V47Z" stroke="#FF8566" stroke-width="3" stroke-linejoin="round"/>
<path d="M215 78.4307H199.286V94.1449H215V78.4307Z" stroke="#FF8566" stroke-width="3" stroke-linejoin="round"/>
<path d="M215 109.856H199.286V125.571H215V109.856Z" stroke="#FF8566" stroke-width="3" stroke-linejoin="round"/>
<path d="M215 141.287H199.286V157.001H215V141.287Z" stroke="#FF8566" stroke-width="3" stroke-linejoin="round"/>
</svg>
