<svg width="738" height="425" viewBox="0 0 738 425" fill="none" xmlns="http://www.w3.org/2000/svg">
<rect x="1" y="1" width="736" height="423" rx="9" stroke="white" stroke-width="2"/>
<rect x="34" y="28" width="670" height="370" rx="10" fill="#FF8566"/>
<path d="M170.261 270.971C170.261 297.205 149.043 318.463 122.881 318.463C96.7183 318.463 75.5 297.205 75.5 270.971C75.5 244.736 96.7183 223.479 122.881 223.479C149.043 223.479 170.261 244.736 170.261 270.971Z" stroke="white" stroke-width="5"/>
<path d="M150.123 271.934C150.123 286.711 138.232 298.661 123.602 298.661C108.971 298.661 97.0803 286.711 97.0803 271.934C97.0803 257.156 108.971 245.207 123.602 245.207C138.232 245.207 150.123 257.156 150.123 271.934Z" stroke="white" stroke-width="5"/>
<path d="M144.821 302.887C144.821 305.107 143.021 306.907 140.801 306.907C138.581 306.907 136.781 305.107 136.781 302.887C136.781 300.667 138.581 298.867 140.801 298.867C143.021 298.867 144.821 300.667 144.821 302.887Z" stroke="white"/>
<path d="M170.261 153.992C170.261 180.227 149.043 201.484 122.881 201.484C96.7183 201.484 75.5 180.227 75.5 153.992C75.5 127.758 96.7183 106.5 122.881 106.5C149.043 106.5 170.261 127.758 170.261 153.992Z" stroke="white" stroke-width="5"/>
<path d="M149.569 154.358C149.569 168.935 137.78 180.742 123.25 180.742C108.719 180.742 96.9297 168.935 96.9297 154.358C96.9297 139.781 108.719 127.974 123.25 127.974C137.78 127.974 149.569 139.781 149.569 154.358Z" stroke="white" stroke-width="5"/>
<path d="M90.5768 148.972C90.5768 151.206 88.7694 153.016 86.5422 153.016C84.315 153.016 82.5076 151.206 82.5076 148.972C82.5076 146.737 84.315 144.927 86.5422 144.927C88.7694 144.927 90.5768 146.737 90.5768 148.972Z" stroke="white"/>
<path d="M292.77 270.971C292.77 297.205 271.552 318.463 245.389 318.463C219.227 318.463 198.009 297.205 198.009 270.971C198.009 244.736 219.227 223.479 245.389 223.479C271.552 223.479 292.77 244.736 292.77 270.971Z" stroke="white" stroke-width="5"/>
<path d="M272.078 271.336C272.078 285.913 260.289 297.721 245.759 297.721C231.228 297.721 219.439 285.913 219.439 271.336C219.439 256.76 231.228 244.952 245.759 244.952C260.289 244.952 272.078 256.76 272.078 271.336Z" stroke="white" stroke-width="5"/>
<path d="M279.995 253.159C279.995 255.379 278.195 257.179 275.975 257.179C273.755 257.179 271.955 255.379 271.955 253.159C271.955 250.939 273.755 249.139 275.975 249.139C278.195 249.139 279.995 250.939 279.995 253.159Z" stroke="white"/>
<path d="M293.815 153.992C293.815 180.227 272.597 201.484 246.434 201.484C220.272 201.484 199.054 180.227 199.054 153.992C199.054 127.758 220.272 106.5 246.434 106.5C272.597 106.5 293.815 127.758 293.815 153.992Z" stroke="white" stroke-width="5"/>
<path d="M273.123 154.358C273.123 168.935 261.334 180.742 246.803 180.742C232.272 180.742 220.483 168.935 220.483 154.358C220.483 139.781 232.272 127.974 246.803 127.974C261.334 127.974 273.123 139.781 273.123 154.358Z" stroke="white" stroke-width="5"/>
<path d="M223.494 178.577C223.494 180.797 221.694 182.597 219.474 182.597C217.254 182.597 215.454 180.797 215.454 178.577C215.454 176.356 217.254 174.557 219.474 174.557C221.694 174.557 223.494 176.356 223.494 178.577Z" stroke="white"/>
<path d="M416.213 270.971C416.213 297.205 394.995 318.463 368.833 318.463C342.67 318.463 321.452 297.205 321.452 270.971C321.452 244.736 342.67 223.479 368.833 223.479C394.995 223.479 416.213 244.736 416.213 270.971Z" stroke="white" stroke-width="5"/>
<path d="M396.075 271.934C396.075 286.711 384.185 298.661 369.554 298.661C354.923 298.661 343.032 286.711 343.032 271.934C343.032 257.156 354.923 245.207 369.554 245.207C384.185 245.207 396.075 257.156 396.075 271.934Z" stroke="white" stroke-width="5"/>
<path d="M390.773 302.887C390.773 305.107 388.973 306.907 386.753 306.907C384.533 306.907 382.733 305.107 382.733 302.887C382.733 300.667 384.533 298.867 386.753 298.867C388.973 298.867 390.773 300.667 390.773 302.887Z" stroke="white"/>
<path d="M416.214 153.992C416.214 180.227 394.996 201.484 368.834 201.484C342.671 201.484 321.453 180.227 321.453 153.992C321.453 127.758 342.671 106.5 368.834 106.5C394.996 106.5 416.214 127.758 416.214 153.992Z" stroke="white" stroke-width="5"/>
<path d="M395.522 154.358C395.522 168.935 383.732 180.742 369.202 180.742C354.671 180.742 342.882 168.935 342.882 154.358C342.882 139.781 354.671 127.974 369.202 127.974C383.732 127.974 395.522 139.781 395.522 154.358Z" stroke="white" stroke-width="5"/>
<path d="M336.529 148.972C336.529 151.206 334.722 153.016 332.494 153.016C330.267 153.016 328.46 151.206 328.46 148.972C328.46 146.737 330.267 144.927 332.494 144.927C334.722 144.927 336.529 146.737 336.529 148.972Z" stroke="white"/>
<path d="M538.722 270.971C538.722 297.205 517.504 318.463 491.341 318.463C465.179 318.463 443.961 297.205 443.961 270.971C443.961 244.736 465.179 223.479 491.341 223.479C517.504 223.479 538.722 244.736 538.722 270.971Z" stroke="white" stroke-width="5"/>
<path d="M518.032 271.336C518.032 285.913 506.243 297.721 491.712 297.721C477.181 297.721 465.392 285.913 465.392 271.336C465.392 256.76 477.181 244.952 491.712 244.952C506.243 244.952 518.032 256.76 518.032 271.336Z" stroke="white" stroke-width="5"/>
<path d="M525.947 253.159C525.947 255.379 524.147 257.179 521.927 257.179C519.707 257.179 517.907 255.379 517.907 253.159C517.907 250.939 519.707 249.139 521.927 249.139C524.147 249.139 525.947 250.939 525.947 253.159Z" stroke="white"/>
<path d="M613.963 318.24C587.728 318.24 566.471 297.021 566.471 270.859C566.471 244.697 587.728 223.479 613.963 223.479C640.197 223.479 661.455 244.697 661.455 270.859C661.455 297.021 640.197 318.24 613.963 318.24Z" stroke="white" stroke-width="5"/>
<path d="M613.596 297.549C599.019 297.549 587.212 285.76 587.212 271.229C587.212 256.698 599.019 244.909 613.596 244.909C628.173 244.909 639.981 256.698 639.981 271.229C639.981 285.76 628.173 297.549 613.596 297.549Z" stroke="white" stroke-width="5"/>
<path d="M631.774 305.465C629.554 305.465 627.754 303.665 627.754 301.445C627.754 299.225 629.554 297.425 631.774 297.425C633.994 297.425 635.794 299.225 635.794 301.445C635.794 303.665 633.994 305.465 631.774 305.465Z" stroke="white"/>
<path d="M539.767 153.992C539.767 180.227 518.549 201.484 492.386 201.484C466.224 201.484 445.006 180.227 445.006 153.992C445.006 127.758 466.224 106.5 492.386 106.5C518.549 106.5 539.767 127.758 539.767 153.992Z" stroke="white" stroke-width="5"/>
<path d="M519.075 154.358C519.075 168.935 507.286 180.742 492.755 180.742C478.225 180.742 466.436 168.935 466.436 154.358C466.436 139.781 478.225 127.974 492.755 127.974C507.286 127.974 519.075 139.781 519.075 154.358Z" stroke="white" stroke-width="5"/>
<path d="M469.446 178.577C469.446 180.797 467.647 182.597 465.426 182.597C463.206 182.597 461.406 180.797 461.406 178.577C461.406 176.356 463.206 174.557 465.426 174.557C467.647 174.557 469.446 176.356 469.446 178.577Z" stroke="white"/>
<path d="M615.008 106.501C641.242 106.501 662.5 127.719 662.5 153.881C662.5 180.043 641.242 201.262 615.008 201.262C588.773 201.262 567.516 180.043 567.516 153.881C567.516 127.719 588.773 106.501 615.008 106.501Z" stroke="white" stroke-width="5"/>
<path d="M615.373 127.192C629.95 127.192 641.757 138.981 641.757 153.512C641.757 168.043 629.95 179.832 615.373 179.832C600.796 179.832 588.988 168.043 588.988 153.512C588.988 138.981 600.796 127.192 615.373 127.192Z" stroke="white" stroke-width="5"/>
<path d="M639.592 176.821C641.812 176.821 643.612 178.621 643.612 180.841C643.612 183.061 641.812 184.861 639.592 184.861C637.372 184.861 635.572 183.061 635.572 180.841C635.572 178.621 637.372 176.821 639.592 176.821Z" stroke="white"/>
</svg>
