<svg width="320" height="205" viewBox="0 0 320 205" fill="none" xmlns="http://www.w3.org/2000/svg">
<rect x="1" y="1" width="318" height="203" rx="9" stroke="white" stroke-width="2"/>
<path d="M154.079 132.654C154.079 145.827 143.425 156.5 130.289 156.5C117.154 156.5 106.5 145.827 106.5 132.654C106.5 119.481 117.154 108.808 130.289 108.808C143.425 108.808 154.079 119.481 154.079 132.654Z" stroke="#FF8566" stroke-width="3"/>
<path d="M143.869 133.142C143.869 140.507 137.943 146.46 130.655 146.46C123.367 146.46 117.441 140.507 117.441 133.142C117.441 125.776 123.367 119.824 130.655 119.824C137.943 119.824 143.869 125.776 143.869 133.142Z" stroke="#FF8566" stroke-width="3"/>
<path d="M141.167 148.835C141.167 149.825 140.364 150.627 139.375 150.627C138.385 150.627 137.583 149.825 137.583 148.835C137.583 147.846 138.385 147.043 139.375 147.043C140.364 147.043 141.167 147.846 141.167 148.835Z" stroke="#FF8566"/>
<path d="M154.079 73.346C154.079 86.5189 143.425 97.1919 130.289 97.1919C117.154 97.1919 106.5 86.5189 106.5 73.346C106.5 60.173 117.154 49.5 130.289 49.5C143.425 49.5 154.079 60.173 154.079 73.346Z" stroke="#FF8566" stroke-width="3"/>
<path d="M143.588 73.5315C143.588 80.7941 137.715 86.6759 130.477 86.6759C123.238 86.6759 117.365 80.7941 117.365 73.5315C117.365 66.269 123.238 60.3872 130.477 60.3872C137.715 60.3872 143.588 66.269 143.588 73.5315Z" stroke="#FF8566" stroke-width="3"/>
<path d="M113.664 70.8003C113.664 71.7978 112.858 72.6045 111.865 72.6045C110.873 72.6045 110.066 71.7978 110.066 70.8003C110.066 69.8028 110.873 68.9961 111.865 68.9961C112.858 68.9961 113.664 69.8028 113.664 70.8003Z" stroke="#FF8566"/>
<path d="M212.969 132.654C212.969 145.827 202.315 156.5 189.18 156.5C176.045 156.5 165.391 145.827 165.391 132.654C165.391 119.481 176.045 108.808 189.18 108.808C202.315 108.808 212.969 119.481 212.969 132.654Z" stroke="#FF8566" stroke-width="3"/>
<path d="M202.479 132.839C202.479 140.102 196.606 145.984 189.367 145.984C182.129 145.984 176.256 140.102 176.256 132.839C176.256 125.577 182.129 119.695 189.367 119.695C196.606 119.695 202.479 125.577 202.479 132.839Z" stroke="#FF8566" stroke-width="3"/>
<path d="M206.479 123.623C206.479 124.613 205.677 125.415 204.687 125.415C203.698 125.415 202.896 124.613 202.896 123.623C202.896 122.634 203.698 121.832 204.687 121.832C205.677 121.832 206.479 122.634 206.479 123.623Z" stroke="#FF8566"/>
<path d="M213.5 73.346C213.5 86.5189 202.846 97.1919 189.711 97.1919C176.575 97.1919 165.921 86.5189 165.921 73.346C165.921 60.173 176.575 49.5 189.711 49.5C202.846 49.5 213.5 60.173 213.5 73.346Z" stroke="#FF8566" stroke-width="3"/>
<path d="M203.01 73.5315C203.01 80.7941 197.136 86.6759 189.898 86.6759C182.66 86.6759 176.786 80.7941 176.786 73.5315C176.786 66.269 182.66 60.3872 189.898 60.3872C197.136 60.3872 203.01 66.269 203.01 73.5315Z" stroke="#FF8566" stroke-width="3"/>
<path d="M177.833 85.8107C177.833 86.8002 177.031 87.6023 176.042 87.6023C175.052 87.6023 174.25 86.8002 174.25 85.8107C174.25 84.8212 175.052 84.019 176.042 84.019C177.031 84.019 177.833 84.8212 177.833 85.8107Z" stroke="#FF8566"/>
</svg>
