<svg width="189" height="189" viewBox="0 0 189 189" fill="none" xmlns="http://www.w3.org/2000/svg">
<path d="M39 102.909V86.0909C39 76.8025 30.7173 69.2727 20.5 69.2727C10.2827 69.2727 1.99999 76.8025 1.99999 86.0909V102.909C1.99999 112.197 10.2827 119.727 20.5 119.727C30.7173 119.727 39 112.197 39 102.909Z" stroke="#FF8566" stroke-width="4" stroke-linejoin="round"/>
<path fill-rule="evenodd" clip-rule="evenodd" d="M39 94.5L187 94.5V119.727H168.5V111.318H150V119.727H131.5V94.5L39 94.5Z" stroke="#FF8566" stroke-width="4" stroke-linejoin="round"/>
<path d="M150 35.6363V18.8182C150 9.52975 158.283 2 168.5 2C178.717 2 187 9.52975 187 18.8182V35.6363C187 44.9248 178.717 52.4545 168.5 52.4545C158.283 52.4545 150 44.9248 150 35.6363Z" stroke="#FF8566" stroke-width="4" stroke-linejoin="round"/>
<path fill-rule="evenodd" clip-rule="evenodd" d="M150 27.2273L2 27.2273L2 52.4545H20.5V44.0454H39V52.4545H57.5V27.2273L150 27.2273Z" stroke="#FF8566" stroke-width="4" stroke-linejoin="round"/>
<path d="M150 170.182V153.364C150 144.075 158.283 136.546 168.5 136.546C178.717 136.546 187 144.075 187 153.364V170.182C187 179.47 178.717 187 168.5 187C158.283 187 150 179.47 150 170.182Z" stroke="#FF8566" stroke-width="4" stroke-linejoin="round"/>
<path fill-rule="evenodd" clip-rule="evenodd" d="M150 161.773H2L2 187H20.5V178.591H39V187H57.5V161.773H150Z" stroke="#FF8566" stroke-width="4" stroke-linejoin="round"/>
</svg>
