<svg width="322" height="204" viewBox="0 0 322 204" fill="none" xmlns="http://www.w3.org/2000/svg">
<rect x="1.5" y="1.5" width="319" height="201" rx="8.5" fill="#131F26" stroke="white" stroke-width="3"/>
<circle cx="145.655" cy="113.756" r="9.52283" fill="white"/>
<rect x="96.5" y="60.5" width="128.732" height="83.499" rx="8.5" stroke="white" stroke-width="3"/>
<path fill-rule="evenodd" clip-rule="evenodd" d="M226.542 91.7867C226.714 90.9761 226.195 90.1803 225.385 90.0092C224.574 89.8381 223.778 90.3565 223.607 91.167C223.492 91.7143 223.033 92.8998 222.15 94.5807C221.288 96.2202 220.076 98.2286 218.541 100.392C215.466 104.725 211.138 109.614 205.801 113.401C200.468 117.184 194.186 119.827 187.153 119.796C180.145 119.765 172.209 117.076 163.543 109.869C163.48 109.815 163.413 109.765 163.34 109.72C162.994 109.508 162.585 109.451 162.207 109.541C161.995 109.592 161.792 109.689 161.616 109.831C161.484 109.937 161.369 110.066 161.278 110.216C161.233 110.288 161.196 110.363 161.165 110.44C158.34 117.001 151.286 124.053 140.672 125.922C130.075 127.789 115.637 124.532 98.0299 109.85C97.3936 109.319 96.4478 109.405 95.9172 110.042C95.3866 110.678 95.4722 111.624 96.1084 112.154C114.153 127.201 129.458 130.943 141.192 128.877C151.966 126.979 159.482 120.22 163.091 113.36C171.642 120.056 179.73 122.763 187.139 122.796C194.962 122.831 201.845 119.885 207.536 115.848C213.222 111.814 217.777 106.652 220.988 102.128C222.596 99.8621 223.878 97.7403 224.805 95.9762C225.711 94.2533 226.336 92.7618 226.542 91.7867Z" fill="white"/>
<circle cx="129.123" cy="102.646" r="17.5457" stroke="white" stroke-width="3"/>
</svg>
