<svg width="320" height="205" viewBox="0 0 320 205" fill="none" xmlns="http://www.w3.org/2000/svg">
<rect x="1" y="1" width="318" height="203" rx="9" stroke="white" stroke-width="2"/>
<path d="M131 120.938C140.941 120.938 149 112.879 149 102.938C149 92.9964 140.941 84.9375 131 84.9375C121.059 84.9375 113 92.9964 113 102.938C113 112.879 121.059 120.938 131 120.938Z" stroke="#FF8566" stroke-width="3" stroke-linejoin="round"/>
<path d="M131 109.938C134.866 109.938 138 106.803 138 102.938C138 99.0715 134.866 95.9375 131 95.9375C127.134 95.9375 124 99.0715 124 102.938C124 106.803 127.134 109.938 131 109.938Z" stroke="#FF8566" stroke-width="3" stroke-linejoin="round"/>
<path d="M189.931 120.857C199.872 120.857 207.931 112.798 207.931 102.857C207.931 92.9158 199.872 84.8569 189.931 84.8569C179.99 84.8569 171.931 92.9158 171.931 102.857C171.931 112.798 179.99 120.857 189.931 120.857Z" stroke="#FF8566" stroke-width="3" stroke-linejoin="round"/>
<path d="M160.393 90C170.334 90 178.393 81.9411 178.393 72C178.393 62.0589 170.334 54 160.393 54C150.452 54 142.393 62.0589 142.393 72C142.393 81.9411 150.452 90 160.393 90Z" stroke="#FF8566" stroke-width="3" stroke-linejoin="round"/>
<path d="M160.393 151.714C170.334 151.714 178.393 143.655 178.393 133.714C178.393 123.773 170.334 115.714 160.393 115.714C150.452 115.714 142.393 123.773 142.393 133.714C142.393 143.655 150.452 151.714 160.393 151.714Z" stroke="#FF8566" stroke-width="3" stroke-linejoin="round"/>
</svg>
