<svg width="738" height="425" viewBox="0 0 738 425" fill="none" xmlns="http://www.w3.org/2000/svg">
<rect x="1" y="1" width="736" height="423" rx="9" stroke="white" stroke-width="2"/>
<rect x="34" y="28" width="670" height="370" rx="10" fill="#FF8566"/>
<path d="M410.15 307.437C422.05 293.328 447.6 297.265 454.95 307.437" stroke="white" stroke-width="2" stroke-linecap="round" stroke-linejoin="round"/>
<path d="M417.501 296.281C427.692 290.937 442.516 292.994 449.001 296.281" stroke="white" stroke-width="2" stroke-linecap="round" stroke-linejoin="round"/>
<path d="M442.639 339.996C420.109 352.03 416.783 309.841 443.144 319.87" stroke="white" stroke-width="2" stroke-linecap="round" stroke-linejoin="round"/>
<path d="M436.518 330.098C441.702 323.769 454.182 333.934 442.038 340.329" stroke="white" stroke-width="2" stroke-linecap="round" stroke-linejoin="round"/>
<path d="M415.175 340.009C403.399 315.071 432.47 299.085 448.159 314.304" stroke="white" stroke-width="2" stroke-linecap="round" stroke-linejoin="round"/>
<path d="M459.333 330.098C454.549 358.553 423.217 357.351 415.175 340.01" stroke="white" stroke-width="2" stroke-linecap="round" stroke-linejoin="round"/>
<path d="M407.071 335.251C405.068 308.188 423.963 301.386 438.076 303.865C452.189 306.343 458.484 317.287 453.466 319.614C448.448 321.94 444.371 312.374 430.885 313.925C417.398 315.476 413.605 330.507 421.028 339.965C428.451 349.424 449.608 351.619 453.466 330.995" stroke="white" stroke-width="2" stroke-linecap="round"/>
<path d="M442.113 334.689C442.532 334.329 442.579 333.697 442.219 333.279C441.859 332.86 441.228 332.812 440.809 333.172L442.113 334.689ZM430.526 329.607L429.543 329.424L430.526 329.607ZM445.522 326.466C445.992 326.756 446.608 326.609 446.898 326.139C447.188 325.669 447.042 325.053 446.571 324.763L445.522 326.466ZM440.809 333.172C437.802 335.759 435.24 335.882 433.655 335.068C432.052 334.244 431.048 332.269 431.509 329.79L429.543 329.424C428.95 332.609 430.213 335.549 432.741 336.847C435.287 338.154 438.72 337.607 442.113 334.689L440.809 333.172ZM431.509 329.79C431.992 327.196 433.41 325.138 435.6 324.299C437.798 323.457 441.078 323.726 445.522 326.466L446.571 324.763C441.844 321.848 437.891 321.28 434.885 322.432C431.871 323.586 430.115 326.352 429.543 329.424L431.509 329.79Z" fill="white"/>
<path d="M109.228 107.729C141.15 69.88 209.689 80.4425 229.406 107.729" stroke="white" stroke-width="5" stroke-linecap="round" stroke-linejoin="round"/>
<path d="M128.945 77.8021C156.283 63.4669 196.048 68.9851 213.445 77.8021" stroke="white" stroke-width="5" stroke-linecap="round" stroke-linejoin="round"/>
<path d="M196.379 195.069C135.943 227.351 127.019 114.178 197.734 141.081" stroke="white" stroke-width="5" stroke-linecap="round" stroke-linejoin="round"/>
<path d="M179.961 168.515C193.867 151.538 227.344 178.807 194.768 195.961" stroke="white" stroke-width="5" stroke-linecap="round" stroke-linejoin="round"/>
<path d="M122.706 195.104C91.1179 128.207 169.102 85.3233 211.188 126.15" stroke="white" stroke-width="5" stroke-linecap="round" stroke-linejoin="round"/>
<path d="M241.164 168.517C228.331 244.848 144.28 241.625 122.707 195.106" stroke="white" stroke-width="5" stroke-linecap="round" stroke-linejoin="round"/>
<path d="M100.967 182.34C95.5945 109.741 146.281 91.4963 184.14 98.1448C222 104.793 238.885 134.15 225.423 140.392C211.962 146.634 201.025 120.972 164.848 125.133C128.671 129.294 118.495 169.613 138.408 194.986C158.322 220.359 215.075 226.247 225.423 170.924" stroke="white" stroke-width="5" stroke-linecap="round"/>
<path d="M194.851 180.695C195.898 179.794 196.016 178.216 195.116 177.169C194.216 176.122 192.637 176.004 191.591 176.904L194.851 180.695ZM163.887 167.2L166.345 167.658L166.345 167.658L163.887 167.2ZM204.21 158.619C205.385 159.343 206.925 158.978 207.65 157.803C208.374 156.628 208.009 155.087 206.834 154.363L204.21 158.619ZM191.591 176.904C183.489 183.871 176.536 184.241 172.197 182.012C167.812 179.76 165.095 174.374 166.345 167.658L161.429 166.743C159.851 175.224 163.216 183.02 169.912 186.46C176.654 189.922 185.783 188.493 194.851 180.695L191.591 176.904ZM166.345 167.658C167.648 160.657 171.484 155.072 177.434 152.793C183.404 150.506 192.263 151.253 204.21 158.619L206.834 154.363C194.178 146.56 183.635 145.063 175.645 148.124C167.635 151.192 162.955 158.547 161.429 166.743L166.345 167.658Z" fill="white"/>
<path d="M446.362 171.229C473.75 138.755 532.556 147.817 549.473 171.229" stroke="white" stroke-width="5" stroke-linecap="round" stroke-linejoin="round"/>
<path d="M463.278 145.552C486.734 133.253 520.852 137.987 535.778 145.552" stroke="white" stroke-width="5" stroke-linecap="round" stroke-linejoin="round"/>
<path d="M521.136 246.165C469.282 273.863 461.626 176.762 522.298 199.845" stroke="white" stroke-width="5" stroke-linecap="round" stroke-linejoin="round"/>
<path d="M507.05 223.384C518.981 208.817 547.704 232.214 519.754 246.931" stroke="white" stroke-width="5" stroke-linecap="round" stroke-linejoin="round"/>
<path d="M457.926 246.196C430.823 188.799 497.733 152.005 533.842 187.035" stroke="white" stroke-width="5" stroke-linecap="round" stroke-linejoin="round"/>
<path d="M559.56 223.385C548.55 288.876 476.436 286.11 457.926 246.198" stroke="white" stroke-width="5" stroke-linecap="round" stroke-linejoin="round"/>
<path d="M439.273 235.244C434.664 172.955 478.152 157.301 510.635 163.006C543.118 168.71 557.605 193.898 546.055 199.253C534.506 204.608 525.122 182.591 494.083 186.161C463.043 189.731 454.312 224.324 471.397 246.094C488.483 267.864 537.176 272.916 546.055 225.449" stroke="white" stroke-width="5" stroke-linecap="round"/>
<path d="M520.056 234.102C521.103 233.201 521.222 231.623 520.322 230.576C519.421 229.529 517.843 229.41 516.796 230.311L520.056 234.102ZM493.258 222.254L495.716 222.712L493.258 222.254ZM527.668 215.194C528.844 215.918 530.384 215.553 531.108 214.378C531.833 213.202 531.468 211.662 530.292 210.938L527.668 215.194ZM516.796 230.311C509.913 236.23 504.103 236.472 500.55 234.647C496.952 232.799 494.667 228.349 495.716 222.712L490.801 221.797C489.423 229.199 492.356 236.059 498.266 239.094C504.221 242.153 512.207 240.851 520.056 234.102L516.796 230.311ZM495.716 222.712C496.819 216.79 500.05 212.124 505.008 210.224C509.987 208.317 517.468 208.905 527.668 215.194L530.292 210.938C519.384 204.212 510.218 202.874 503.22 205.555C496.201 208.244 492.125 214.68 490.801 221.797L495.716 222.712Z" fill="white"/>
<path d="M269.884 241.126C290.85 215.594 335.867 222.719 348.817 241.125" stroke="white" stroke-width="3" stroke-linecap="round" stroke-linejoin="round"/>
<path d="M282.834 220.937C300.79 211.268 326.908 214.99 338.334 220.937" stroke="white" stroke-width="3" stroke-linecap="round" stroke-linejoin="round"/>
<path d="M327.125 300.041C287.43 321.817 281.569 245.475 328.015 263.623" stroke="white" stroke-width="3" stroke-linecap="round" stroke-linejoin="round"/>
<path d="M316.341 282.129C325.474 270.677 347.462 289.072 326.066 300.643" stroke="white" stroke-width="3" stroke-linecap="round" stroke-linejoin="round"/>
<path d="M278.736 300.064C257.989 254.938 309.209 226.011 336.851 253.551" stroke="white" stroke-width="3" stroke-linecap="round" stroke-linejoin="round"/>
<path d="M356.539 282.13C348.111 333.619 292.906 331.445 278.736 300.066" stroke="white" stroke-width="3" stroke-linecap="round" stroke-linejoin="round"/>
<path d="M264.458 291.454C260.929 242.482 294.22 230.175 319.086 234.66C343.952 239.144 355.042 258.947 346.201 263.158C337.36 267.368 330.176 250.058 306.415 252.865C282.654 255.671 275.97 282.869 289.049 299.985C302.128 317.1 339.404 321.072 346.201 283.753" stroke="white" stroke-width="3" stroke-linecap="round"/>
<path d="M326.044 290.19C326.665 289.641 326.723 288.693 326.175 288.072C325.627 287.451 324.679 287.393 324.058 287.941L326.044 290.19ZM305.784 281.241L307.26 281.509L307.26 281.509L305.784 281.241ZM332.328 275.284C333.028 275.727 333.954 275.519 334.397 274.819C334.841 274.12 334.633 273.193 333.933 272.75L332.328 275.284ZM324.058 287.941C318.706 292.668 314.093 292.936 311.192 291.406C308.247 289.852 306.423 286.129 307.26 281.509L304.309 280.974C303.288 286.604 305.459 291.773 309.792 294.059C314.169 296.368 320.119 295.423 326.044 290.19L324.058 287.941ZM307.26 281.509C308.127 276.725 310.684 272.902 314.644 271.343C318.607 269.784 324.461 270.303 332.328 275.284L333.933 272.75C325.641 267.499 318.751 266.504 313.545 268.552C308.337 270.601 305.3 275.506 304.309 280.974L307.26 281.509Z" fill="white"/>
<path d="M588.728 285.104C603.65 267.412 635.689 272.349 644.906 285.104" stroke="white" stroke-width="3" stroke-linecap="round" stroke-linejoin="round"/>
<path d="M597.945 271.115C610.725 264.414 629.313 266.993 637.445 271.115" stroke="white" stroke-width="3" stroke-linecap="round" stroke-linejoin="round"/>
<path d="M629.468 325.931C601.217 341.022 597.045 288.119 630.101 300.695" stroke="white" stroke-width="3" stroke-linecap="round" stroke-linejoin="round"/>
<path d="M621.792 313.519C628.292 305.583 643.941 318.33 628.714 326.348" stroke="white" stroke-width="3" stroke-linecap="round" stroke-linejoin="round"/>
<path d="M595.028 325.948C580.262 294.677 616.716 274.63 636.39 293.715" stroke="white" stroke-width="3" stroke-linecap="round" stroke-linejoin="round"/>
<path d="M650.402 313.519C644.403 349.201 605.113 347.694 595.029 325.949" stroke="white" stroke-width="3" stroke-linecap="round" stroke-linejoin="round"/>
<path d="M584.866 319.981C582.354 286.044 606.048 277.516 623.746 280.623C641.443 283.731 649.336 297.454 643.044 300.372C636.751 303.29 631.638 291.294 614.727 293.239C597.816 295.184 593.059 314.032 602.368 325.892C611.676 337.753 638.206 340.505 643.044 314.644" stroke="white" stroke-width="3" stroke-linecap="round"/>
<path d="M628.97 319.463C629.598 318.923 629.669 317.976 629.129 317.348C628.589 316.72 627.642 316.649 627.013 317.189L628.97 319.463ZM614.279 312.904L612.805 312.63L614.279 312.904ZM632.955 309.175C633.66 309.609 634.584 309.39 635.019 308.685C635.453 307.98 635.234 307.056 634.529 306.621L632.955 309.175ZM627.013 317.189C623.29 320.391 620.185 320.493 618.315 319.533C616.418 318.559 615.192 316.201 615.754 313.179L612.805 312.63C612.045 316.711 613.661 320.515 616.945 322.202C620.255 323.902 624.667 323.164 628.97 319.463L627.013 317.189ZM615.754 313.179C616.349 309.985 618.086 307.492 620.73 306.479C623.387 305.461 627.417 305.76 632.955 309.175L634.529 306.621C628.566 302.945 623.526 302.195 619.657 303.677C615.776 305.164 613.533 308.719 612.805 312.63L615.754 313.179Z" fill="white"/>
<path d="M124.889 304.333C140 286.416 172.445 291.416 181.778 304.333" stroke="white" stroke-width="3" stroke-linecap="round" stroke-linejoin="round"/>
<path d="M134.223 290.167C147.164 283.381 165.987 285.993 174.223 290.167" stroke="white" stroke-width="3" stroke-linecap="round" stroke-linejoin="round"/>
<path d="M166.144 345.677C137.535 360.959 133.311 307.386 166.786 320.121" stroke="white" stroke-width="3" stroke-linecap="round" stroke-linejoin="round"/>
<path d="M158.372 333.107C164.955 325.071 180.802 337.979 165.381 346.099" stroke="white" stroke-width="3" stroke-linecap="round" stroke-linejoin="round"/>
<path d="M131.269 345.694C116.316 314.027 153.232 293.727 173.154 313.054" stroke="white" stroke-width="3" stroke-linecap="round" stroke-linejoin="round"/>
<path d="M187.344 333.109C181.269 369.242 141.482 367.716 131.269 345.695" stroke="white" stroke-width="3" stroke-linecap="round" stroke-linejoin="round"/>
<path d="M120.978 339.652C118.435 305.285 142.429 296.649 160.35 299.796C178.272 302.943 186.264 316.84 179.892 319.795C173.52 322.749 168.343 310.602 151.218 312.571C134.093 314.541 129.275 333.627 138.702 345.638C148.128 357.649 174.994 360.436 179.892 334.247" stroke="white" stroke-width="3" stroke-linecap="round"/>
<path d="M165.627 339.113C166.255 338.572 166.326 337.625 165.786 336.997C165.246 336.369 164.299 336.298 163.671 336.838L165.627 339.113ZM150.763 332.485L149.289 332.21L150.763 332.485ZM169.685 328.692C170.39 329.127 171.314 328.907 171.749 328.202C172.184 327.497 171.964 326.573 171.259 326.138L169.685 328.692ZM163.671 336.838C159.897 340.084 156.744 340.191 154.842 339.214C152.912 338.223 151.667 335.826 152.238 332.759L149.289 332.21C148.521 336.337 150.155 340.18 153.471 341.883C156.814 343.6 161.273 342.857 165.627 339.113L163.671 336.838ZM152.238 332.759C152.841 329.521 154.603 326.989 157.289 325.96C159.987 324.926 164.074 325.233 169.685 328.692L171.259 326.138C165.224 322.417 160.126 321.661 156.216 323.159C152.294 324.661 150.025 328.255 149.289 332.21L152.238 332.759Z" fill="white"/>
<path d="M581.15 101.437C593.05 87.3277 618.6 91.2652 625.95 101.437" stroke="white" stroke-width="2" stroke-linecap="round" stroke-linejoin="round"/>
<path d="M588.501 90.2812C598.692 84.9374 613.516 86.9945 620.001 90.2812" stroke="white" stroke-width="2" stroke-linecap="round" stroke-linejoin="round"/>
<path d="M613.639 133.996C591.109 146.03 587.783 103.841 614.144 113.87" stroke="white" stroke-width="2" stroke-linecap="round" stroke-linejoin="round"/>
<path d="M607.518 124.098C612.702 117.769 625.182 127.934 613.038 134.329" stroke="white" stroke-width="2" stroke-linecap="round" stroke-linejoin="round"/>
<path d="M586.175 134.009C574.399 109.071 603.47 93.0849 619.159 108.304" stroke="white" stroke-width="2" stroke-linecap="round" stroke-linejoin="round"/>
<path d="M630.333 124.098C625.549 152.553 594.217 151.351 586.175 134.01" stroke="white" stroke-width="2" stroke-linecap="round" stroke-linejoin="round"/>
<path d="M578.071 129.251C576.068 102.188 594.963 95.3862 609.076 97.8646C623.189 100.343 629.484 111.287 624.466 113.614C619.448 115.94 615.371 106.374 601.885 107.925C588.398 109.476 584.605 124.507 592.028 133.965C599.451 143.424 620.608 145.619 624.466 124.995" stroke="white" stroke-width="2" stroke-linecap="round"/>
<path d="M613.113 128.689C613.532 128.329 613.579 127.697 613.219 127.279C612.859 126.86 612.228 126.812 611.809 127.172L613.113 128.689ZM601.526 123.607L600.543 123.424L601.526 123.607ZM616.522 120.466C616.992 120.756 617.608 120.609 617.898 120.139C618.188 119.669 618.042 119.053 617.571 118.763L616.522 120.466ZM611.809 127.172C608.802 129.759 606.24 129.882 604.655 129.068C603.052 128.244 602.048 126.269 602.509 123.79L600.543 123.424C599.95 126.609 601.213 129.549 603.741 130.847C606.287 132.154 609.72 131.607 613.113 128.689L611.809 127.172ZM602.509 123.79C602.992 121.196 604.41 119.138 606.6 118.299C608.798 117.457 612.078 117.726 616.522 120.466L617.571 118.763C612.844 115.848 608.891 115.28 605.885 116.432C602.871 117.586 601.115 120.352 600.543 123.424L602.509 123.79Z" fill="white"/>
<path d="M328.112 82.917C347.001 60.5213 387.557 66.7713 399.223 82.917" stroke="white" stroke-width="3" stroke-linecap="round" stroke-linejoin="round"/>
<path d="M339.778 65.2083C355.955 56.726 379.484 59.9912 389.778 65.2083" stroke="white" stroke-width="3" stroke-linecap="round" stroke-linejoin="round"/>
<path d="M379.681 134.597C343.92 153.699 338.639 86.7324 380.482 102.651" stroke="white" stroke-width="3" stroke-linecap="round" stroke-linejoin="round"/>
<path d="M369.964 118.885C378.193 108.839 398.002 124.975 378.726 135.125" stroke="white" stroke-width="3" stroke-linecap="round" stroke-linejoin="round"/>
<path d="M336.087 134.618C317.395 95.0335 363.54 69.6585 388.442 93.8165" stroke="white" stroke-width="3" stroke-linecap="round" stroke-linejoin="round"/>
<path d="M406.18 118.885C398.586 164.052 348.852 162.144 336.087 134.619" stroke="white" stroke-width="3" stroke-linecap="round" stroke-linejoin="round"/>
<path d="M323.223 127.066C320.044 84.1077 350.036 73.3119 372.438 77.2459C394.84 81.1799 404.831 98.5508 396.866 102.244C388.901 105.937 382.429 90.7532 361.023 93.2152C339.616 95.6772 333.594 119.535 345.378 134.548C357.161 149.562 390.742 153.046 396.866 120.31" stroke="white" stroke-width="3" stroke-linecap="round"/>
<path d="M378.789 126.107C379.417 125.567 379.488 124.62 378.948 123.992C378.408 123.364 377.461 123.293 376.833 123.833L378.789 126.107ZM360.454 118.107L358.979 117.832L358.979 117.832L360.454 118.107ZM384.302 113.047C385.008 113.481 385.932 113.262 386.367 112.557C386.801 111.852 386.582 110.928 385.877 110.493L384.302 113.047ZM376.833 123.833C372.043 127.952 367.938 128.166 365.38 126.853C362.795 125.525 361.19 122.348 361.929 118.381L358.979 117.832C358.044 122.858 360.038 127.481 364.01 129.521C368.009 131.575 373.419 130.725 378.789 126.107L376.833 123.833ZM361.929 118.381C362.699 114.243 364.965 110.946 368.477 109.601C372.001 108.251 377.236 108.69 384.302 113.047L385.877 110.493C378.386 105.874 372.14 104.985 367.404 106.799C362.656 108.618 359.883 112.978 358.979 117.832L361.929 118.381Z" fill="white"/>
</svg>
