<svg width="189" height="189" viewBox="0 0 189 189" fill="none" xmlns="http://www.w3.org/2000/svg">
<path d="M37.5769 127.536C57.2255 127.536 73.1538 112.745 73.1538 94.5C73.1538 76.2549 57.2255 61.4643 37.5769 61.4643C17.9283 61.4643 2 76.2549 2 94.5C2 112.745 17.9283 127.536 37.5769 127.536Z" stroke="#FF8566" stroke-width="4" stroke-linejoin="round"/>
<path d="M37.5769 107.714C45.4363 107.714 51.8076 101.798 51.8076 94.5C51.8076 87.2019 45.4363 81.2857 37.5769 81.2857C29.7174 81.2857 23.3461 87.2019 23.3461 94.5C23.3461 101.798 29.7174 107.714 37.5769 107.714Z" stroke="#FF8566" stroke-width="4" stroke-linejoin="round"/>
<path d="M151.423 127.536C171.072 127.536 187 112.745 187 94.5C187 76.2549 171.072 61.4643 151.423 61.4643C131.775 61.4643 115.846 76.2549 115.846 94.5C115.846 112.745 131.775 127.536 151.423 127.536Z" stroke="#FF8566" stroke-width="4" stroke-linejoin="round"/>
<path d="M94.5001 68.0714C114.149 68.0714 130.077 53.2808 130.077 35.0357C130.077 16.7906 114.149 2 94.5001 2C74.8515 2 58.9232 16.7906 58.9232 35.0357C58.9232 53.2808 74.8515 68.0714 94.5001 68.0714Z" stroke="#FF8566" stroke-width="4" stroke-linejoin="round"/>
<path d="M94.5001 187C114.149 187 130.077 172.209 130.077 153.964C130.077 135.719 114.149 120.929 94.5001 120.929C74.8515 120.929 58.9232 135.719 58.9232 153.964C58.9232 172.209 74.8515 187 94.5001 187Z" stroke="#FF8566" stroke-width="4" stroke-linejoin="round"/>
</svg>
