<svg width="320" height="205" viewBox="0 0 320 205" fill="none" xmlns="http://www.w3.org/2000/svg">
<rect x="1" y="1" width="318" height="203" rx="9" stroke="white" stroke-width="2"/>
<path d="M122.722 73.2082C143.5 48.5728 188.111 55.4478 200.944 73.2081" stroke="#FF8566" stroke-width="3" stroke-linecap="round" stroke-linejoin="round"/>
<path d="M135.556 53.7292C153.35 44.3986 179.232 47.9903 190.556 53.7292" stroke="#FF8566" stroke-width="3" stroke-linecap="round" stroke-linejoin="round"/>
<path d="M179.448 130.056C140.111 151.069 134.303 77.4056 180.33 94.9166" stroke="#FF8566" stroke-width="3" stroke-linecap="round" stroke-linejoin="round"/>
<path d="M168.762 112.773C177.813 101.723 199.602 119.472 178.399 130.637" stroke="#FF8566" stroke-width="3" stroke-linecap="round" stroke-linejoin="round"/>
<path d="M131.495 130.08C110.935 86.5371 161.694 58.6246 189.087 85.1984" stroke="#FF8566" stroke-width="3" stroke-linecap="round" stroke-linejoin="round"/>
<path d="M208.598 112.774C200.245 162.457 145.537 160.359 131.495 130.081" stroke="#FF8566" stroke-width="3" stroke-linecap="round" stroke-linejoin="round"/>
<path d="M117.346 121.772C113.849 74.5178 146.84 62.6425 171.482 66.9699C196.124 71.2973 207.115 90.4053 198.353 94.468C189.591 98.5307 182.472 81.828 158.925 84.5362C135.378 87.2444 128.754 113.488 141.716 130.003C154.677 146.518 191.617 150.35 198.353 114.341" stroke="#FF8566" stroke-width="3" stroke-linecap="round"/>
<path d="M178.37 120.604C178.998 120.064 179.07 119.117 178.53 118.489C177.989 117.861 177.042 117.789 176.414 118.33L178.37 120.604ZM158.3 111.917L159.774 112.192L158.3 111.917ZM184.612 106.223C185.317 106.658 186.241 106.439 186.676 105.734C187.111 105.029 186.891 104.105 186.186 103.67L184.612 106.223ZM176.414 118.33C171.116 122.886 166.536 123.153 163.65 121.671C160.737 120.175 158.952 116.608 159.774 112.192L156.825 111.643C155.806 117.118 157.98 122.131 162.279 124.34C166.606 126.562 172.493 125.659 178.37 120.604L176.414 118.33ZM159.774 112.192C160.628 107.604 163.146 103.924 167.071 102.421C171.008 100.913 176.818 101.418 184.612 106.223L186.186 103.67C177.967 98.6019 171.147 97.6468 165.998 99.6193C160.837 101.597 157.812 106.339 156.825 111.643L159.774 112.192Z" fill="#FF8566"/>
</svg>
