<svg width="189" height="189" viewBox="0 0 189 189" fill="none" xmlns="http://www.w3.org/2000/svg">
<path d="M80.2694 2H37.5771V43.1111H80.2694V2Z" stroke="#FF8566" stroke-width="4" stroke-linejoin="round"/>
<path d="M187 104.778H144.308V145.889H187V104.778Z" stroke="#FF8566" stroke-width="4" stroke-linejoin="round"/>
<path d="M101.615 84.2222H58.9231V125.333H101.615V84.2222Z" stroke="#FF8566" stroke-width="4" stroke-linejoin="round"/>
<path d="M58.923 104.778C35.2051 104.778 23.3461 104.778 23.3461 104.778C13.2038 104.778 2 97.9259 2 84.2222C2 70.5185 11.9752 63.6667 23.3461 63.6667C23.3461 63.6667 63.6666 63.6667 144.308 63.6667C160.026 63.6667 165.654 50.6173 165.654 43.1111C165.654 35.6049 162.096 22.5555 144.308 22.5555C132.449 22.5555 111.102 22.5555 80.2692 22.5555" stroke="#FF8566" stroke-width="4" stroke-linejoin="round"/>
<path d="M165.654 104.778C165.654 63.6667 165.654 43.1111 165.654 43.1111C165.654 33.3444 158.538 22.5555 144.308 22.5555C130.077 22.5555 122.962 32.1613 122.962 43.1111C122.962 43.1111 122.962 84.2222 122.962 166.444C122.962 181.581 109.41 187 101.615 187C93.8205 187 80.2693 183.574 80.2693 166.444C80.2693 155.025 80.2693 141.321 80.2693 125.333" stroke="#FF8566" stroke-width="4" stroke-linejoin="round"/>
</svg>
