<svg width="320" height="205" viewBox="0 0 320 205" fill="none" xmlns="http://www.w3.org/2000/svg">
<rect x="1" y="1" width="318" height="203" rx="9" stroke="white" stroke-width="2"/>
<path d="M105.898 122.124C99.9739 118.703 97.8938 111.199 101.256 105.376C104.618 99.5524 112.157 97.6016 118.081 101.022" stroke="#FF8566" stroke-width="3" stroke-linejoin="round"/>
<path d="M182.484 138.205C188.408 141.625 190.488 149.129 187.126 154.953C183.764 160.776 176.225 162.727 170.301 159.306" stroke="#FF8566" stroke-width="3" stroke-linejoin="round"/>
<path d="M118.081 101.022C135.854 111.283 152.528 149.046 170.301 159.307" stroke="#FF8566" stroke-width="3" stroke-linejoin="round"/>
<path d="M105.898 122.124C123.67 132.385 164.712 127.944 182.484 138.205" stroke="#FF8566" stroke-width="3" stroke-linejoin="round"/>
<path d="M118.24 122.215C112.366 125.548 104.797 123.485 101.347 117.611C97.8978 111.737 99.8661 104.263 105.74 100.93" stroke="#FF8566" stroke-width="3" stroke-linejoin="round"/>
<path d="M169.594 64.6981C175.468 61.3652 183.037 63.4279 186.486 69.3015C189.936 75.1753 187.968 82.6499 182.094 85.9828" stroke="#FF8566" stroke-width="3" stroke-linejoin="round"/>
<path d="M105.74 100.93C123.361 90.9313 164.473 95.9807 182.094 85.982" stroke="#FF8566" stroke-width="3" stroke-linejoin="round"/>
<path d="M118.239 122.215C135.861 112.216 151.973 74.6962 169.594 64.6975" stroke="#FF8566" stroke-width="3" stroke-linejoin="round"/>
<path d="M163.502 75.2483C163.452 68.4951 168.941 63.0532 175.752 63.1036C182.564 63.1542 188.135 68.6779 188.185 75.4311" stroke="#FF8566" stroke-width="3" stroke-linejoin="round"/>
<path d="M188.734 148.847C188.784 155.6 183.295 161.042 176.484 160.991C169.672 160.941 164.101 155.417 164.051 148.664" stroke="#FF8566" stroke-width="3" stroke-linejoin="round"/>
<path d="M188.186 75.4307C188.337 95.6903 163.9 128.404 164.051 148.664" stroke="#FF8566" stroke-width="3" stroke-linejoin="round"/>
<path d="M163.502 75.248C163.654 95.5077 188.583 128.587 188.734 148.847" stroke="#FF8566" stroke-width="3" stroke-linejoin="round"/>
</svg>
