<svg width="738" height="425" viewBox="0 0 738 425" fill="none" xmlns="http://www.w3.org/2000/svg">
<rect x="1" y="1" width="736" height="423" rx="9" stroke="white" stroke-width="2"/>
<rect x="34" y="28" width="670" height="370" rx="10" fill="#FF8566"/>
<path fill-rule="evenodd" clip-rule="evenodd" d="M173 123.236C183.356 123.236 191.764 131.644 191.764 142C191.764 152.356 183.356 160.764 173 160.764C162.644 160.764 154.236 152.356 154.236 142C154.236 131.644 162.644 123.236 173 123.236Z" stroke="white" stroke-width="5" stroke-linejoin="round"/>
<path fill-rule="evenodd" clip-rule="evenodd" d="M163.638 125.916C201.252 104.377 235.986 94.0962 241.153 102.973C246.32 111.85 219.977 136.545 182.363 158.085C144.748 179.624 110.014 189.905 104.847 181.027C99.6799 172.15 126.023 147.456 163.638 125.916Z" stroke="white" stroke-width="5" stroke-linejoin="round"/>
<path fill-rule="evenodd" clip-rule="evenodd" d="M156.635 150.511C139.936 122.063 133.712 94.8035 142.744 89.6746C151.776 84.5452 172.667 103.477 189.366 131.924C206.064 160.372 212.288 187.632 203.256 192.761C194.224 197.89 173.333 178.958 156.635 150.511Z" stroke="white" stroke-width="5" stroke-linejoin="round"/>
<path fill-rule="evenodd" clip-rule="evenodd" d="M122.98 113.392C149.062 68.6396 192.651 45.1256 220.257 60.9148C247.864 76.7044 249.102 125.856 223.02 170.609C196.938 215.361 153.35 238.875 125.743 223.085C98.1359 207.296 96.8978 158.144 122.98 113.392Z" stroke="white" stroke-width="5" stroke-linejoin="round"/>
<path fill-rule="evenodd" clip-rule="evenodd" d="M201.608 91.7666C246.36 117.553 269.874 160.646 254.085 187.939C238.296 215.232 189.144 216.456 144.391 190.67C99.6394 164.884 76.1254 121.791 91.915 94.4979C107.704 67.2048 156.856 65.9812 201.608 91.7666Z" stroke="white" stroke-width="5" stroke-linejoin="round"/>
<path fill-rule="evenodd" clip-rule="evenodd" d="M569.5 270.9C578.11 270.9 585.1 277.89 585.1 286.5C585.1 295.11 578.11 302.1 569.5 302.1C560.89 302.1 553.9 295.11 553.9 286.5C553.9 277.89 560.89 270.9 569.5 270.9Z" stroke="white" stroke-width="5" stroke-linejoin="round"/>
<path fill-rule="evenodd" clip-rule="evenodd" d="M561.716 273.128C592.989 255.22 621.866 246.673 626.162 254.053C630.458 261.434 608.557 281.965 577.284 299.873C546.012 317.781 517.134 326.328 512.838 318.947C508.542 311.567 530.444 291.036 561.716 273.128Z" stroke="white" stroke-width="5" stroke-linejoin="round"/>
<path fill-rule="evenodd" clip-rule="evenodd" d="M555.894 293.576C542.011 269.925 536.836 247.261 544.345 242.997C551.855 238.732 569.223 254.472 583.106 278.123C596.989 301.774 602.164 324.439 594.655 328.703C587.145 332.967 569.777 317.227 555.894 293.576Z" stroke="white" stroke-width="5" stroke-linejoin="round"/>
<path fill-rule="evenodd" clip-rule="evenodd" d="M527.913 262.715C549.598 225.509 585.838 205.959 608.79 219.086C631.742 232.214 632.771 273.078 611.087 310.285C589.402 347.492 553.163 367.041 530.211 353.914C507.259 340.787 506.229 299.922 527.913 262.715Z" stroke="white" stroke-width="5" stroke-linejoin="round"/>
<path fill-rule="evenodd" clip-rule="evenodd" d="M593.285 244.736C630.491 266.174 650.041 302.001 636.914 324.693C623.786 347.384 582.922 348.402 545.715 326.964C508.508 305.526 488.959 269.698 502.086 247.007C515.213 224.315 556.078 223.298 593.285 244.736Z" stroke="white" stroke-width="5" stroke-linejoin="round"/>
<path fill-rule="evenodd" clip-rule="evenodd" d="M400 102.146C404.335 102.146 407.855 105.665 407.855 110C407.855 114.335 404.335 117.855 400 117.855C395.665 117.855 392.145 114.335 392.145 110C392.145 105.665 395.665 102.146 400 102.146Z" stroke="white" stroke-width="3" stroke-linejoin="round"/>
<path fill-rule="evenodd" clip-rule="evenodd" d="M396.081 103.267C411.827 94.2505 426.366 89.9469 428.529 93.6629C430.692 97.379 419.665 107.716 403.919 116.733C388.174 125.749 373.634 130.053 371.471 126.337C369.308 122.621 380.335 112.284 396.081 103.267Z" stroke="white" stroke-width="3" stroke-linejoin="round"/>
<path fill-rule="evenodd" clip-rule="evenodd" d="M393.149 113.563C386.159 101.654 383.554 90.2432 387.335 88.0962C391.116 85.949 399.86 93.8739 406.851 105.782C413.841 117.69 416.446 129.102 412.665 131.249C408.884 133.396 400.139 125.471 393.149 113.563Z" stroke="white" stroke-width="3" stroke-linejoin="round"/>
<path fill-rule="evenodd" clip-rule="evenodd" d="M379.061 98.0244C389.979 79.291 408.226 69.4479 419.782 76.0574C431.339 82.667 431.857 103.242 420.939 121.976C410.021 140.709 391.774 150.552 380.218 143.943C368.662 137.333 368.143 116.758 379.061 98.0244Z" stroke="white" stroke-width="3" stroke-linejoin="round"/>
<path fill-rule="evenodd" clip-rule="evenodd" d="M411.976 88.9722C430.709 99.7663 440.552 117.805 433.943 129.23C427.333 140.655 406.758 141.168 388.024 130.374C369.291 119.58 359.448 101.541 366.057 90.1155C372.667 78.6905 393.242 78.1783 411.976 88.9722Z" stroke="white" stroke-width="3" stroke-linejoin="round"/>
<path fill-rule="evenodd" clip-rule="evenodd" d="M373.748 283.846C376.759 289.06 374.97 295.738 369.756 298.748C364.541 301.759 357.864 299.969 354.853 294.755C351.843 289.541 353.632 282.863 358.846 279.853C364.061 276.842 370.738 278.632 373.748 283.846Z" stroke="white" stroke-width="3" stroke-linejoin="round"/>
<path fill-rule="evenodd" clip-rule="evenodd" d="M369.678 279.912C391.458 292.589 406.731 307.089 403.764 312.271C400.796 317.454 380.705 311.369 358.925 298.691C337.145 286.014 321.872 271.514 324.839 266.331C327.807 261.149 347.899 267.234 369.678 279.912Z" stroke="white" stroke-width="3" stroke-linejoin="round"/>
<path fill-rule="evenodd" clip-rule="evenodd" d="M355.258 283.535C364.727 266.857 376.643 255.799 381.852 258.856C387.06 261.912 383.6 277.934 374.131 294.612C364.662 311.289 352.746 322.347 347.538 319.291C342.33 316.234 345.789 300.212 355.258 283.535Z" stroke="white" stroke-width="3" stroke-linejoin="round"/>
<path fill-rule="evenodd" clip-rule="evenodd" d="M364.165 255.8C394.28 255.924 418.79 271.035 418.866 289.525C418.941 308.015 394.553 322.927 364.438 322.804C334.323 322.681 309.813 307.569 309.737 289.079C309.662 270.589 334.05 255.677 364.165 255.8Z" stroke="white" stroke-width="3" stroke-linejoin="round"/>
<path fill-rule="evenodd" clip-rule="evenodd" d="M397.91 289.103C397.936 319.132 383.074 343.498 364.742 343.482C346.41 343.466 331.505 319.074 331.479 289.045C331.453 259.016 346.315 234.65 364.647 234.666C382.979 234.682 397.884 259.074 397.91 289.103Z" stroke="white" stroke-width="3" stroke-linejoin="round"/>
<path fill-rule="evenodd" clip-rule="evenodd" d="M180.342 319.289C184.548 320.932 186.629 325.681 184.986 329.887C183.342 334.093 178.594 336.174 174.388 334.531C170.181 332.887 168.101 328.139 169.744 323.932C171.387 319.726 176.136 317.646 180.342 319.289Z" stroke="white" stroke-width="3" stroke-linejoin="round"/>
<path fill-rule="evenodd" clip-rule="evenodd" d="M176.114 318.891C194.809 316.111 210.548 317.446 211.238 321.871C211.928 326.297 197.311 332.147 178.616 334.927C159.921 337.708 144.182 336.372 143.492 331.947C142.802 327.521 157.419 321.671 176.114 318.891Z" stroke="white" stroke-width="3" stroke-linejoin="round"/>
<path fill-rule="evenodd" clip-rule="evenodd" d="M169.367 327.769C167.099 313.566 168.896 301.507 173.378 300.857C177.861 300.206 183.341 311.21 185.61 325.414C187.879 339.617 186.081 351.677 181.599 352.327C177.117 352.977 171.636 341.973 169.367 327.769Z" stroke="white" stroke-width="3" stroke-linejoin="round"/>
<path fill-rule="evenodd" clip-rule="evenodd" d="M161.588 307.354C179.282 293.316 200.717 290.682 209.424 301.475C218.131 312.268 210.835 332.428 193.141 346.466C175.447 360.504 154.013 363.138 145.306 352.345C136.598 341.552 143.894 321.392 161.588 307.354Z" stroke="white" stroke-width="3" stroke-linejoin="round"/>
<path fill-rule="evenodd" clip-rule="evenodd" d="M196.955 311.046C211.039 328.619 213.752 349.852 203.009 358.433C192.266 367.012 172.108 359.711 158.023 342.137C143.938 324.564 141.225 303.33 151.969 294.75C162.712 286.17 182.869 293.472 196.955 311.046Z" stroke="white" stroke-width="3" stroke-linejoin="round"/>
<path fill-rule="evenodd" clip-rule="evenodd" d="M603 87.5273C608.78 87.5273 613.473 92.2199 613.473 97.9999C613.473 103.78 608.78 108.473 603 108.473C597.22 108.473 592.527 103.78 592.527 97.9999C592.527 92.2199 597.22 87.5273 603 87.5273Z" stroke="white" stroke-width="3" stroke-linejoin="round"/>
<path fill-rule="evenodd" clip-rule="evenodd" d="M597.775 89.0229C618.769 77.001 638.155 71.2629 641.039 76.2176C643.923 81.1723 629.22 94.9554 608.226 106.977C587.232 119 567.845 124.737 564.961 119.783C562.077 114.828 576.78 101.045 597.775 89.0229Z" stroke="white" stroke-width="3" stroke-linejoin="round"/>
<path fill-rule="evenodd" clip-rule="evenodd" d="M593.866 102.75C584.546 86.8727 581.072 71.6579 586.113 68.7952C591.154 65.9323 602.814 76.4988 612.134 92.3765C621.454 108.254 624.928 123.469 619.887 126.332C614.846 129.195 603.186 118.628 593.866 102.75Z" stroke="white" stroke-width="3" stroke-linejoin="round"/>
<path fill-rule="evenodd" clip-rule="evenodd" d="M575.082 82.0325C589.639 57.0547 613.968 43.9306 629.376 52.7431C644.785 61.5559 645.476 88.9896 630.918 113.968C616.361 138.945 592.032 152.07 576.624 143.257C561.216 134.444 560.525 107.011 575.082 82.0325Z" stroke="white" stroke-width="3" stroke-linejoin="round"/>
<path fill-rule="evenodd" clip-rule="evenodd" d="M618.968 69.9623C643.945 84.3544 657.069 108.406 648.257 123.64C639.444 138.873 612.01 139.556 587.032 125.164C562.055 110.772 548.93 86.7201 557.743 71.4867C566.556 56.2533 593.989 55.5704 618.968 69.9623Z" stroke="white" stroke-width="3" stroke-linejoin="round"/>
</svg>
