<svg width="320" height="205" viewBox="0 0 320 205" fill="none" xmlns="http://www.w3.org/2000/svg">
<rect x="1" y="1" width="318" height="203" rx="9" stroke="white" stroke-width="2"/>
<path fill-rule="evenodd" clip-rule="evenodd" d="M160 91C166.623 91 172 96.3769 172 103C172 109.623 166.623 115 160 115C153.377 115 148 109.623 148 103C148 96.3769 153.377 91 160 91Z" stroke="#FF8566" stroke-width="3" stroke-linejoin="round"/>
<path fill-rule="evenodd" clip-rule="evenodd" d="M154.012 92.7136C178.068 78.9385 200.281 72.3636 203.586 78.0408C206.891 83.718 190.044 99.5112 165.988 113.286C141.932 127.062 119.718 133.636 116.414 127.959C113.109 122.282 129.957 106.489 154.012 92.7136Z" stroke="#FF8566" stroke-width="3" stroke-linejoin="round"/>
<path fill-rule="evenodd" clip-rule="evenodd" d="M149.534 108.443C138.854 90.2501 134.874 72.8165 140.65 69.5363C146.427 66.2559 159.787 78.3634 170.466 96.5566C181.146 114.75 185.126 132.184 179.35 135.464C173.573 138.744 160.213 126.636 149.534 108.443Z" stroke="#FF8566" stroke-width="3" stroke-linejoin="round"/>
<path fill-rule="evenodd" clip-rule="evenodd" d="M128.01 84.7039C144.691 56.0835 172.567 41.0455 190.223 51.1432C207.878 61.2412 208.67 92.6756 191.99 121.296C175.309 149.917 147.433 164.955 129.777 154.857C112.122 144.759 111.33 113.325 128.01 84.7039Z" stroke="#FF8566" stroke-width="3" stroke-linejoin="round"/>
<path fill-rule="evenodd" clip-rule="evenodd" d="M178.296 70.8739C206.917 87.3649 221.955 114.924 211.857 132.379C201.759 149.834 170.324 150.617 141.704 134.126C113.083 117.635 98.0453 90.0755 108.143 72.6206C118.241 55.1657 149.675 54.3832 178.296 70.8739Z" stroke="#FF8566" stroke-width="3" stroke-linejoin="round"/>
</svg>
