<svg width="738" height="425" viewBox="0 0 738 425" fill="none" xmlns="http://www.w3.org/2000/svg">
<rect x="1" y="1" width="736" height="423" rx="9" stroke="white" stroke-width="2"/>
<rect x="34" y="28" width="670" height="370" rx="10" fill="#FF8566"/>
<path fill-rule="evenodd" clip-rule="evenodd" d="M91.7551 139.567L114.776 193.539L282.799 122.921L271.288 95.9355L259.778 68.9499L91.7551 139.567Z" stroke="white" stroke-width="5" stroke-linejoin="round"/>
<path fill-rule="evenodd" clip-rule="evenodd" d="M160.607 66.7018L172.896 95.6585L181.679 116.34L281.877 121.947L271.335 97.125L259.087 68.2844L160.607 66.7018Z" stroke="white" stroke-width="5" stroke-linejoin="round"/>
<path fill-rule="evenodd" clip-rule="evenodd" d="M158.87 67.4328L171.223 96.3631L180.042 117.03L114.357 192.395L103.773 167.59L91.4747 138.77L158.87 67.4328Z" stroke="white" stroke-width="5" stroke-linejoin="round"/>
<path fill-rule="evenodd" clip-rule="evenodd" d="M473.391 101.842L471.307 160.481L653.414 167.921L654.457 138.602L655.499 109.282L473.391 101.842Z" stroke="white" stroke-width="5" stroke-linejoin="round"/>
<path fill-rule="evenodd" clip-rule="evenodd" d="M566.674 65.1234L565.5 96.5579L564.666 119.012L652.994 166.649L653.994 139.699L655.156 108.387L566.674 65.1234Z" stroke="white" stroke-width="5" stroke-linejoin="round"/>
<path fill-rule="evenodd" clip-rule="evenodd" d="M564.791 65.0471L563.686 96.485L562.891 118.941L471.413 159.268L472.368 132.316L473.476 101.001L564.791 65.0471Z" stroke="white" stroke-width="5" stroke-linejoin="round"/>
<path fill-rule="evenodd" clip-rule="evenodd" d="M108.085 306.905L115.837 365.067L296.624 341.946L292.748 312.866L288.872 283.785L108.085 306.905Z" stroke="white" stroke-width="5" stroke-linejoin="round"/>
<path fill-rule="evenodd" clip-rule="evenodd" d="M193.913 255.102L198.012 286.29L200.946 308.567L295.996 340.761L292.475 314.024L288.384 282.959L193.913 255.102Z" stroke="white" stroke-width="5" stroke-linejoin="round"/>
<path fill-rule="evenodd" clip-rule="evenodd" d="M192.044 255.343L196.212 286.523L199.184 308.795L115.739 363.853L112.172 337.121L108.028 306.062L192.044 255.343Z" stroke="white" stroke-width="5" stroke-linejoin="round"/>
<path fill-rule="evenodd" clip-rule="evenodd" d="M496.349 325.689L509.035 374.67L661.386 336.072L655.043 311.582L648.7 287.092L496.349 325.689Z" stroke="white" stroke-width="5" stroke-linejoin="round"/>
<path fill-rule="evenodd" clip-rule="evenodd" d="M564.43 272.416L571.184 298.688L576.012 317.452L660.726 335.123L654.93 312.602L648.197 286.435L564.43 272.416Z" stroke="white" stroke-width="5" stroke-linejoin="round"/>
<path fill-rule="evenodd" clip-rule="evenodd" d="M562.855 272.817L569.666 299.074L574.527 317.83L508.825 373.641L502.991 351.129L496.212 324.973L562.855 272.817Z" stroke="white" stroke-width="5" stroke-linejoin="round"/>
<path fill-rule="evenodd" clip-rule="evenodd" d="M330.745 175.936L314.917 215.994L439.084 265.818L446.998 245.789L454.912 225.76L330.745 175.936Z" stroke="white" stroke-width="5" stroke-linejoin="round"/>
<path fill-rule="evenodd" clip-rule="evenodd" d="M404.292 173.416L395.767 194.877L389.682 210.207L439.105 264.834L446.409 246.434L454.895 225.056L404.292 173.416Z" stroke="white" stroke-width="5" stroke-linejoin="round"/>
<path fill-rule="evenodd" clip-rule="evenodd" d="M403.008 172.902L394.53 194.381L388.471 209.722L315.288 215.181L322.561 196.768L331.01 175.374L403.008 172.902Z" stroke="white" stroke-width="5" stroke-linejoin="round"/>
</svg>
